rangeen1.sfdir
StartChar: exclam
Encoding: 33 33 0
Width: 119
Flags: HW
LayerCount: 2
Fore
SplineSet
55 817 m 0
 57.73828125 817 59.9658203125 814.79296875 60 812.0625 c 2
 66 323 l 2
 66 320.240234375 63.759765625 318 61 318 c 0
 58.26171875 318 56.0341796875 320.20703125 56 322.9375 c 2
 56 322.9375 50 811.9375 50 812 c 0
 50 814.759765625 52.240234375 817 55 817 c 0
59 203 m 2
 59 205.759765625 61.240234375 208 64 208 c 0
 66.759765625 208 69 205.759765625 69 203 c 2
 69 137 l 2
 69 134.240234375 66.759765625 132 64 132 c 0
 61.240234375 132 59 134.240234375 59 137 c 2
 59 203 l 2
EndSplineSet
EndChar
StartChar: quotedbl
Encoding: 34 34 1
Width: 520
Flags: HW
LayerCount: 2
Fore
SplineSet
216.025773196 566.432989691 m 1
 203.541237113 841.092783505 l 1
 213.974226804 841.567010309 l 1
 226.458762887 566.907216495 l 1
 216.025773196 566.432989691 l 1
306.025773196 569.432989691 m 1
 293.541237113 844.092783505 l 1
 303.974226804 844.567010309 l 1
 316.458762887 569.907216495 l 1
 306.025773196 569.432989691 l 1
EndSplineSet
EndChar
StartChar: numbersign
Encoding: 35 35 2
Width: 521
Flags: W
HStem: 250 10<60 377.339> 259 10<143.661 461> 450 10<60 377.339> 459 10<143.661 461>
LayerCount: 2
Fore
SplineSet
60 250 m 1x80
 50 260 l 1x80
 461 269 l 1
 471 259 l 1x40
 60 250 l 1x80
60 450 m 1x20
 50 460 l 1x20
 461 469 l 1
 471 459 l 1x10
 60 450 l 1x20
374 547 m 1
 384 537 l 1
 330 186 l 1
 320 196 l 1
 374 547 l 1
173 547 m 1
 183 537 l 1
 129 186 l 1
 119 196 l 1
 173 547 l 1
EndSplineSet
EndChar
StartChar: dollar
Encoding: 36 36 3
Width: 311
Flags: W
HStem: -6 21G<131 141> 126 11<120.907 174.664>
VStem: 66 10<514.443 578.157> 131 10<4 198> 164 10<616 798> 242 10<192.396 222.576> 252 10<234.45 293.828>
LayerCount: 2
Fore
SplineSet
131 208 m 1xf8
 141 198 l 1
 141 -6 l 1
 131 4 l 1
 131 208 l 1xf8
164 808 m 1
 174 798 l 1
 174 606 l 1
 164 616 l 1
 164 808 l 1
262 271 m 2xfa
 262 261 l 2xfa
 262 244 259 226 252 207 c 1
 252 160 210 136 171 129 c 0
 162 127 154 126 147 126 c 2
 137 126 l 2
 111 126 100 138 82 154 c 0
 77 158 71 163 65 168 c 1
 50 222 l 1
 60 232 l 1
 75 178 l 1
 81 173 87 168 92 164 c 0
 109 149 120 138 142 137 c 0
 148 137 154 138 161 139 c 0
 200 146 242 170 242 217 c 1xfc
 248 234 251 251 252 266 c 0
 248 369 130 427 74 495 c 1
 68 510 66 526 66 542 c 2
 66 552 l 2
 66 612 103 672 164 688 c 2
 170 690 l 1
 174 688 l 2
 182 684 191 675 200 666 c 0
 209 656 220 646 231 640 c 1
 221 630 l 1
 210 636 199 646 190 656 c 0
 182 664 174 672 167 676 c 1
 112 658 78 603 76 547 c 0
 77 533 79 518 84 505 c 1
 140 437 262 377 262 271 c 2xfa
EndSplineSet
EndChar
StartChar: percent
Encoding: 37 37 4
Width: 512
Flags: HW
LayerCount: 2
Fore
SplineSet
350 317 m 0
 350 353.87109375 374.365234375 385 406 385 c 0
 437.634765625 385 462 353.87109375 462 317 c 0
 462 280.12890625 437.634765625 249 406 249 c 0
 374.365234375 249 350 280.12890625 350 317 c 0
360 317 m 0
 360 283.87109375 381.634765625 259 406 259 c 0
 430.365234375 259 452 283.87109375 452 317 c 0
 452 350.12890625 430.365234375 375 406 375 c 0
 381.634765625 375 360 350.12890625 360 317 c 0
50 617 m 0
 50 653.87109375 74.365234375 685 106 685 c 0
 137.634765625 685 162 653.87109375 162 617 c 0
 162 580.12890625 137.634765625 549 106 549 c 0
 74.365234375 549 50 580.12890625 50 617 c 0
60 617 m 0
 60 583.87109375 81.634765625 559 106 559 c 0
 130.365234375 559 152 583.87109375 152 617 c 0
 152 650.12890625 130.365234375 675 106 675 c 0
 81.634765625 675 60 650.12890625 60 617 c 0
397 652 m 0
 399.759765625 652 402 649.759765625 402 647 c 0
 402 645.923828125 401.659179688 644.926757812 401.080078125 644.111328125 c 2
 71.080078125 179.111328125 l 2
 70.173828125 177.833984375 68.68359375 177 67 177 c 0
 64.240234375 177 62 179.240234375 62 182 c 0
 62 183.076171875 62.3408203125 184.073242188 62.919921875 184.888671875 c 2
 392.919921875 649.888671875 l 2
 393.826171875 651.166015625 395.31640625 652 397 652 c 0
EndSplineSet
EndChar
StartChar: ampersand
Encoding: 38 38 5
Width: 389
Flags: W
HStem: 93 10<152.672 232.481>
VStem: 50 10<179.431 248.109> 104 10<481.814 496> 249 10<515.923 547 552 659.692> 329 10<246.636 267>
LayerCount: 2
Fore
SplineSet
249 547 m 0
 247 477 197 432 148 387 c 1
 145 394 141 400 138 406 c 0
 122 434 127 466 114 496 c 1
 114 639 l 1
 141 708 l 1
 165 722 166 745 203 747 c 1
 245 742 247 643 247 588 c 0
 247 575 247 564 248 558 c 0
 248 554 249 551 249 547 c 0
154 373 m 1
 204 420 259 467 259 542 c 2
 259 552 l 2
 259 557 259 562 258 568 c 0
 257 574 257 585 257 598 c 0
 256 654 256 757 210 757 c 2
 200 757 l 2
 156 757 156 733 131 718 c 1
 104 649 l 1
 104 486 l 1
 117 456 112 424 128 396 c 0
 131 390 135 384 138 377 c 1
 93 335 50 290 50 220 c 2
 50 210 l 2
 50 107 117 93 212 93 c 2
 222 93 l 2
 240 93 258 105 274 122 c 1
 314 62 l 1
 324 72 l 1
 283 133 l 1
 315 174 339 236 339 267 c 1
 329 277 l 1
 329 247 307 186 275 145 c 1
 222 223 l 2
 194 264 176 324 154 373 c 1
144 364 m 1
 166 315 184 254 212 213 c 2
 266 134 l 1
 250 116 232 104 214 103 c 0
 125 104 62 120 60 215 c 0
 62 280 101 324 144 364 c 1
EndSplineSet
EndChar
StartChar: quotesingle
Encoding: 39 39 6
Width: 113
Flags: W
HStem: 612 121
VStem: 50 10<622 723>
LayerCount: 2
Fore
SplineSet
53 733 m 1
 63 723 l 1
 60 612 l 1
 50 622 l 1
 53 733 l 1
EndSplineSet
EndChar
StartChar: parenleft
Encoding: 40 40 7
Width: 164
Flags: HW
LayerCount: 2
Fore
SplineSet
109 -44 m 0
 111.759765625 -44 114 -46.240234375 114 -49 c 0
 114 -51.759765625 111.759765625 -54 109 -54 c 0
 98.1728515625 -54 92.373046875 -40.7392578125 87.298828125 -24.8447265625 c 0
 80.4697265625 -3.4501953125 74.4072265625 29.494140625 69.173828125 71.7294921875 c 0
 57.404296875 166.708984375 50 308.499023438 50 467 c 0
 50 625.500976562 57.404296875 767.291015625 69.173828125 862.270507812 c 0
 74.4072265625 904.505859375 80.4697265625 937.450195312 87.298828125 958.844726562 c 0
 92.373046875 974.739257812 98.1728515625 988 109 988 c 0
 111.759765625 988 114 985.759765625 114 983 c 0
 114 980.240234375 111.759765625 978 109 978 c 0
 107.975585938 978 102.391601562 973.234375 96.8271484375 955.8046875 c 0
 90.359375 935.541992188 84.2890625 902.928710938 79.09765625 861.030273438 c 0
 67.41015625 766.708984375 60 625.166015625 60 467 c 0
 60 308.833984375 67.41015625 167.291015625 79.09765625 72.9697265625 c 0
 84.2890625 31.0712890625 90.359375 -1.5419921875 96.8271484375 -21.8046875 c 0
 102.391601562 -39.234375 107.975585938 -44 109 -44 c 0
EndSplineSet
EndChar
StartChar: parenright
Encoding: 41 41 8
Width: 164
Flags: HW
LayerCount: 2
Fore
SplineSet
55 -54 m 0
 52.240234375 -54 50 -51.759765625 50 -49 c 0
 50 -46.240234375 52.240234375 -44 55 -44 c 0
 56.0244140625 -44 61.6083984375 -39.234375 67.1728515625 -21.8046875 c 0
 73.640625 -1.5419921875 79.7109375 31.0712890625 84.90234375 72.9697265625 c 0
 96.58984375 167.291015625 104 308.833984375 104 467 c 0
 104 625.166015625 96.58984375 766.708984375 84.90234375 861.030273438 c 0
 79.7109375 902.928710938 73.640625 935.541992188 67.1728515625 955.8046875 c 0
 61.6083984375 973.234375 56.0244140625 978 55 978 c 0
 52.240234375 978 50 980.240234375 50 983 c 0
 50 985.759765625 52.240234375 988 55 988 c 0
 65.8271484375 988 71.626953125 974.739257812 76.701171875 958.844726562 c 0
 83.5302734375 937.450195312 89.5927734375 904.505859375 94.826171875 862.270507812 c 0
 106.595703125 767.291015625 114 625.500976562 114 467 c 0
 114 308.499023438 106.595703125 166.708984375 94.826171875 71.7294921875 c 0
 89.5927734375 29.494140625 83.5302734375 -3.4501953125 76.701171875 -24.8447265625 c 0
 71.626953125 -40.7392578125 65.8271484375 -54 55 -54 c 0
EndSplineSet
EndChar
StartChar: asterisk
Encoding: 42 42 9
Width: 341
Flags: W
HStem: 285 334
VStem: 167 10<295 609>
LayerCount: 2
Fore
SplineSet
279 573 m 1
 289 563 l 1
 62 331 l 1
 52 341 l 1
 279 573 l 1
50 560 m 1
 60 570 l 1
 291 344 l 1
 281 334 l 1
 50 560 l 1
164 609 m 1
 174 619 l 1
 177 295 l 1
 167 285 l 1
 164 609 l 1
EndSplineSet
EndChar
StartChar: plus
Encoding: 43 43 10
Width: 389
Flags: W
HStem: 406 10<60 329>
VStem: 181 10<278 549>
LayerCount: 2
Fore
SplineSet
181 559 m 1
 191 549 l 1
 191 268 l 1
 181 278 l 1
 181 559 l 1
50 406 m 1
 60 416 l 1
 339 416 l 1
 329 406 l 1
 50 406 l 1
EndSplineSet
EndChar
StartChar: comma
Encoding: 44 44 11
Width: 146
Flags: W
HStem: -69 100
VStem: 77 19<-6.38923 28.168>
LayerCount: 2
Fore
SplineSet
96 -2 m 2
 96 -12 l 2
 96 -38 60 -69 60 -69 c 1
 50 -59 l 1
 50 -59 82 -32 86 -7 c 0
 84 6 77 21 77 21 c 1
 87 31 l 1
 87 31 96 11 96 -2 c 2
EndSplineSet
EndChar
StartChar: hyphen
Encoding: 45 45 12
Width: 571
Flags: HW
LayerCount: 2
Fore
SplineSet
80 406 m 1
 90 416 l 1
 438 416 l 1
 428 406 l 1
 80 406 l 1
EndSplineSet
EndChar
StartChar: period
Encoding: 46 46 13
Width: 142
Flags: HW
LayerCount: 2
Fore
SplineSet
72 24 m 1
 62 24 l 1
 62 34 l 1
 72 34 l 1
 72 24 l 1
EndSplineSet
EndChar
StartChar: slash
Encoding: 47 47 14
Width: 454
Flags: HW
LayerCount: 2
Fore
SplineSet
96 102 m 1
 86 112 l 1
 317 670 l 1
 327 660 l 1
 96 102 l 1
EndSplineSet
EndChar
StartChar: zero
Encoding: 48 48 15
Width: 334
Flags: HW
LayerCount: 2
Fore
SplineSet
90 210 m 2
 90 321 122 411 162 411 c 2
 172 411 l 2
 212 411 244 321 244 210 c 2
 244 200 l 2
 244 89 212 -1 172 -1 c 2
 162 -1 l 2
 122 -1 90 89 90 200 c 2
 90 210 l 2
167 400.528052788 m 1
 129.957886316 393.508712858 100.925283546 309.051512051 100.021687212 205 c 0
 100.925283433 100.948500922 129.957879076 16.4913082039 166.999985628 9.47194711418 c 1
 204.042106421 16.4912672359 233.074716849 100.948476732 233.978312788 205 c 0
 233.074716454 309.051512051 204.042113684 393.508712858 167 400.528052788 c 1
EndSplineSet
EndChar
StartChar: one
Encoding: 49 49 16
Width: 269
Flags: HW
LayerCount: 2
Fore
SplineSet
72 344 m 0
 73.365234375 344 74.603515625 344.548828125 75.505859375 345.436523438 c 2
 130 399.065429688 l 1
 130 0 l 2
 130 -2.759765625 132.240234375 -5 135 -5 c 0
 137.759765625 -5 140 -2.759765625 140 0 c 2
 140 411 l 2
 140 413.759765625 137.759765625 416 135 416 c 0
 133.634765625 416 132.396484375 415.451171875 131.494140625 414.563476562 c 2
 68.494140625 352.563476562 l 2
 67.572265625 351.65625 67 350.39453125 67 349 c 0
 67 346.240234375 69.240234375 344 72 344 c 0
55 -5 m 2
 52.240234375 -5 50 -2.759765625 50 0 c 0
 50 2.759765625 52.240234375 5 55 5 c 2
 214 5 l 2
 216.759765625 5 219 2.759765625 219 0 c 0
 219 -2.759765625 216.759765625 -5 214 -5 c 2
 55 -5 l 2
EndSplineSet
EndChar
StartChar: two
Encoding: 50 50 17
Width: 550
Flags: HW
LayerCount: 2
Fore
SplineSet
293.259501884 416.097421619 m 2
 303.259501884 416.097421619 l 2
 345.003185037 416.097421619 374.488751267 387.66407987 389 348 c 0
 397.011552939 325.651983906 401.46715128 304.726349651 401.46715128 284.548364428 c 2
 401.46715128 274.548364428 l 2
 401.46715128 246.872740978 393.085197526 220.603608673 374 194 c 0
 308.598785608 100.707091234 238.067812402 72.5834723208 157.652840923 5 c 1
 401 5 l 1
 391 -5 l 1
 124.58974359 -5 l 1
 136 5 l 2
 167.504868072 32.611007973 196.754210223 53.4554381831 224.413382694 73.1666401402 c 0
 274.890273015 109.138800201 320.071135156 141.336766325 364 204 c 0
 381.939178955 229.006133042 390.421927479 253.716752649 391.375977202 279.57766007 c 0
 390.704718717 298.202300785 386.348022278 317.502885224 379 338 c 0
 365.052949213 376.121938277 337.273348982 403.869465086 298.072740199 405.969487652 c 0
 255.313409877 404.431294321 229.300273174 385.29065132 200.204546322 363.881817511 c 0
 184.176670035 352.088397073 167.213367985 339.606683992 146 329 c 1
 136 339 l 1
 157.213367985 349.606683992 174.176670035 362.088397073 190.204546322 373.881817511 c 0
 220.352936212 396.065207947 247.190605962 416.097421619 293.259501884 416.097421619 c 2
EndSplineSet
EndChar
StartChar: three
Encoding: 51 51 18
Width: 438
Flags: W
HStem: -195 10<200.815 294.501> 406 10<61 330>
VStem: 378 10<-108.75 -48.8055>
LayerCount: 2
Fore
SplineSet
388 -74 m 2
 388 -84 l 2
 388 -100 385 -117 378 -135 c 0
 358 -185 305 -195 249 -195 c 2
 239 -195 l 2
 190 -195 156 -181 119 -166 c 0
 98 -157 76 -148 50 -141 c 1
 60 -131 l 1
 86 -138 108 -147 129 -156 c 0
 165 -171 198 -184 244 -185 c 0
 297 -184 348 -175 368 -125 c 0
 374 -109 377 -94 378 -79 c 0
 377 -42 359 -7 332 27 c 0
 291 78 250 100 203 126 c 0
 178 140 151 154 123 174 c 2
 117 178 l 1
 330 406 l 1
 51 406 l 1
 61 416 l 1
 358 416 l 1
 139 180 l 1
 215 128 281 114 342 37 c 0
 370 1 388 -35 388 -74 c 2
EndSplineSet
EndChar
StartChar: four
Encoding: 52 52 19
Width: 435
Flags: W
HStem: -204 10<319 329> -5 10<71 375> 396 20G<260.501 281>
VStem: 271 10<-200 406> 319 10<-204 -194>
LayerCount: 2
Fore
SplineSet
50 -5 m 1
 271 416 l 1
 281 406 l 1
 71 5 l 1
 385 5 l 1
 375 -5 l 1
 50 -5 l 1
281 -210 m 1
 271 -200 l 1
 271 416 l 1
 281 406 l 1
 281 -210 l 1
329 -204 m 1
 319 -204 l 1
 319 -194 l 1
 329 -194 l 1
 329 -204 l 1
EndSplineSet
EndChar
StartChar: five
Encoding: 53 53 20
Width: 685
Flags: HW
LayerCount: 2
Fore
SplineSet
318.642155266 211.484685247 m 2
 328.642155266 211.484685247 l 2
 347.207651018 211.484685247 366.270728438 208.180105977 387 199 c 0
 446.004484905 172.998023601 461.027102613 122.911559896 480 61 c 0
 489.203603311 29.810011001 495.008496496 3.32592833034 495.008496496 -22.8635836205 c 2
 495.008496496 -32.8635836205 l 2
 495.008496496 -57.8943599825 489.705906328 -82.6560551138 477 -111 c 0
 455 -160 419 -177 369 -198 c 0
 340.715674165 -209.942270908 317.17210737 -215.16846651 291.664840945 -215.16846651 c 2
 281.664840945 -215.16846651 l 2
 266.590373309 -215.16846651 250.830052443 -213.343134833 233 -210 c 0
 207.037042482 -204.807408496 191.606509387 -192.452768385 174.403020762 -178.678590311 c 0
 165.101842323 -171.23149101 155.282412172 -163.369447303 143 -156 c 1
 153 -146 l 1
 165.282412172 -153.369447303 175.101842323 -161.23149101 184.403020762 -168.678590311 c 0
 201.606509387 -182.452768385 217.037042482 -194.807408496 243 -200 c 0
 258.853404163 -202.972513331 273.070542547 -204.745098374 286.624179503 -205.101585324 c 0
 310.258128609 -204.459420686 332.557314298 -199.164689519 359 -188 c 0
 409 -167 445 -150 467 -101 c 0
 478.863812644 -74.534567535 484.27311097 -51.1922880411 484.938008815 -27.8379493242 c 0
 484.248918341 -3.1343612102 478.554267098 23.0830688011 469.644218149 52.1610545373 c 0
 450.810787224 113.624043004 435.631261537 163.162494916 377 189 c 0
 358.10976494 197.365675434 340.603198987 200.852096735 323.595939313 201.404862034 c 0
 302.971053236 200.758871142 282.833522915 196.289461703 261.560030877 191.567932072 c 0
 239.247347846 186.615759955 215.685011005 181.386234338 189 180 c 2
 179.013772524 179.481234936 l 1
 172.734513274 416 l 1
 513 416 l 1
 503 406 l 1
 183.265486726 406 l 1
 188.981355299 190.702283734 l 1
 211.626592818 192.704934368 232.070049002 197.242242299 251.560030877 201.567932072 c 0
 274.564861889 206.673722466 296.241307115 211.484685247 318.642155266 211.484685247 c 2
EndSplineSet
EndChar
StartChar: six
Encoding: 54 54 21
Width: 560
Flags: HW
LayerCount: 2
Fore
SplineSet
317 693 m 1
 261.769557789 549.361099796 143.526918098 395.607133524 141.311321366 220.70559994 c 0
 141.390279414 214.500279072 141.617246188 208.265354703 142 202 c 0
 148.665880265 92.8852090855 173.812211477 2.69083504355 212.019612223 -4.5333969239 c 1
 250.104411852 2.56451538885 280.97445143 89.7622865878 281.974971724 196.647216922 c 0
 280.85288414 299.785513575 242.191566063 315.131710782 205 325 c 1
 215 335 l 1
 252.743164062 324.985351562 292 309.329101562 292 202 c 2
 292 192 l 2
 292 78 258 -15 217 -15 c 2
 207 -15 l 2
 166 -15 138.951360571 78.2121333963 132 192 c 0
 131.514426744 199.948421649 131.279580882 207.847867987 131.279580882 215.700027215 c 2
 131.279580882 225.700027215 l 2
 131.279580882 402.752321813 251.430673302 558.479756228 307 703 c 1
 317 693 l 1
EndSplineSet
EndChar
StartChar: seven
Encoding: 55 55 22
Width: 360
Flags: HW
LayerCount: 2
Fore
SplineSet
268.02134647 416 m 1
 81 -203 l 1
 71 -193 l 1
 251.97865353 406 l 1
 71 406 l 1
 81 416 l 1
 268.02134647 416 l 1
EndSplineSet
EndChar
StartChar: eight
Encoding: 56 56 23
Width: 226
Flags: W
HStem: -5 21G<92 134> 383 10<76 150>
VStem: 50 10<123.984 264.016 511.984 652.016> 166 10<123.984 264.016 511.984 652.016>
LayerCount: 2
Fore
SplineSet
50 587 m 2
 50 694 76 781 108 781 c 2
 118 781 l 2
 150 781 176 694 176 587 c 2
 176 577 l 2
 176 470 150 383 118 383 c 2
 108 383 l 2
 76 383 50 470 50 577 c 2
 50 587 l 2
113 770 m 1
 84 762 61 681 60 582 c 0
 61 483 84 402 113 394 c 1
 142 402 165 483 166 582 c 0
 165 681 142 762 113 770 c 1
50 199 m 2
 50 306 76 393 108 393 c 2
 118 393 l 2
 150 393 176 306 176 199 c 2
 176 189 l 2
 176 82 150 -5 118 -5 c 2
 108 -5 l 2
 76 -5 50 82 50 189 c 2
 50 199 l 2
113 382 m 1
 84 374 61 293 60 194 c 0
 61 95 84 14 113 6 c 1
 142 14 165 95 166 194 c 0
 165 293 142 374 113 382 c 1
EndSplineSet
EndChar
StartChar: nine
Encoding: 57 57 24
Width: 267
Flags: HW
LayerCount: 2
Fore
SplineSet
191 108 m 0
 191 105.240234375 188.759765625 103 186 103 c 0
 185.556640625 103 185.125976562 103.057617188 184.715820312 103.166992188 c 0
 177.234375 105.15234375 166.389648438 105.61328125 154.211914062 106.046875 c 0
 135.188476562 106.723632812 112.787109375 107.391601562 93.3134765625 115.897460938 c 0
 68.51171875 126.73046875 50 150.342773438 50 198.151367188 c 0
 50 274.78515625 65.0380859375 342.118164062 88.0751953125 379.439453125 c 0
 99.5146484375 397.970703125 113.620117188 410.151367188 130 410.151367188 c 0
 151.979492188 410.151367188 169.016601562 387.911132812 182.232421875 356.506835938 c 0
 199.055664062 316.53125 210.842773438 258.060546875 215.983398438 194.559570312 c 0
 216.854492188 183.793945312 217.270507812 173.314453125 217.270507812 163.095703125 c 0
 217.270507812 62.14453125 176.72265625 -12.83984375 136.827148438 -86.7734375 c 0
 116.627929688 -124.205078125 96.5625 -161.420898438 81.6923828125 -201.728515625 c 0
 80.98828125 -203.637695312 79.15234375 -205 77 -205 c 0
 74.240234375 -205 72 -202.759765625 72 -200 c 0
 72 -199.392578125 72.1083984375 -198.810546875 72.3076171875 -198.271484375 c 0
 87.494140625 -157.104492188 107.82421875 -119.4609375 128.020507812 -82.0341796875 c 0
 167.970703125 -7.9990234375 207.270507812 64.9853515625 207.270507812 163.095703125 c 0
 207.270507812 173.038085938 206.866210938 183.245117188 206.016601562 193.743164062 c 0
 200.936523438 256.495117188 189.16796875 314.243164062 173.010742188 352.634765625 c 0
 159.84375 383.923828125 144.46484375 400.151367188 130 400.151367188 c 0
 115.354492188 400.151367188 99.43359375 384.575195312 86.447265625 354.388671875 c 0
 70.4736328125 317.256835938 60 260.927734375 60 198.151367188 c 0
 60 153.100585938 76.3916015625 134.202148438 97.30859375 125.06640625 c 0
 114.41015625 117.596679688 135.5078125 116.71875 154.572265625 116.040039062 c 0
 166.754882812 115.607421875 178.057617188 115.28125 187.284179688 112.833007812 c 0
 189.421875 112.265625 191 110.315429688 191 108 c 0
EndSplineSet
EndChar
StartChar: colon
Encoding: 58 58 25
Width: 110
Flags: HW
LayerCount: 2
Fore
SplineSet
50 439 m 0
 50 441.759765625 52.240234375 444 55 444 c 0
 57.759765625 444 60 441.759765625 60 439 c 0
 60 436.240234375 57.759765625 434 55 434 c 0
 52.240234375 434 50 436.240234375 50 439 c 0
50 29 m 0
 50 31.759765625 52.240234375 34 55 34 c 0
 57.759765625 34 60 31.759765625 60 29 c 0
 60 26.240234375 57.759765625 24 55 24 c 0
 52.240234375 24 50 26.240234375 50 29 c 0
EndSplineSet
EndChar
StartChar: semicolon
Encoding: 59 59 26
Width: 146
Flags: W
HStem: 383 10<52 62>
VStem: 52 10<383 393> 77 19<-6.38923 28.168>
LayerCount: 2
Fore
SplineSet
96 -2 m 2
 96 -12 l 2
 96 -38 60 -69 60 -69 c 1
 50 -59 l 1
 50 -59 82 -32 86 -7 c 0
 84 6 77 21 77 21 c 1
 87 31 l 1
 87 31 96 11 96 -2 c 2
62 383 m 1
 52 383 l 1
 52 393 l 1
 62 393 l 1
 62 383 l 1
EndSplineSet
EndChar
StartChar: less
Encoding: 60 60 55
Width: 344
Flags: HW
LayerCount: 2
Fore
SplineSet
289 640 m 0
 291.759765625 640 294 637.759765625 294 635 c 0
 294 633.581054688 293.407226562 632.298828125 292.456054688 631.388671875 c 2
 62.0439453125 410.823242188 l 1
 280.634765625 179.431640625 l 2
 281.48046875 178.536132812 282 177.328125 282 176 c 0
 282 173.240234375 279.759765625 171 277 171 c 0
 275.568359375 171 274.27734375 171.602539062 273.365234375 172.568359375 c 2
 51.365234375 407.568359375 l 2
 50.51953125 408.463867188 50 409.671875 50 411 c 0
 50 412.418945312 50.5927734375 413.701171875 51.5439453125 414.611328125 c 2
 285.543945312 638.611328125 l 2
 286.442382812 639.471679688 287.66015625 640 289 640 c 0
EndSplineSet
EndChar
StartChar: equal
Encoding: 61 61 56
Width: 458
Flags: HW
LayerCount: 2
Fore
SplineSet
55 367 m 2
 52.240234375 367 50 369.240234375 50 372 c 0
 50 374.759765625 52.240234375 377 55 377 c 2
 403 377 l 2
 405.759765625 377 408 374.759765625 408 372 c 0
 408 369.240234375 405.759765625 367 403 367 c 2
 55 367 l 2
55 467 m 2
 52.240234375 467 50 469.240234375 50 472 c 0
 50 474.759765625 52.240234375 477 55 477 c 2
 403 477 l 2
 405.759765625 477 408 474.759765625 408 472 c 0
 408 469.240234375 405.759765625 467 403 467 c 2
 55 467 l 2
EndSplineSet
EndChar
StartChar: greater
Encoding: 62 62 57
Width: 344
Flags: HW
LayerCount: 2
Fore
SplineSet
50 635 m 0
 50 637.759765625 52.240234375 640 55 640 c 0
 56.33984375 640 57.5576171875 639.471679688 58.4560546875 638.611328125 c 2
 292.456054688 414.611328125 l 2
 293.407226562 413.701171875 294 412.418945312 294 411 c 0
 294 409.671875 293.48046875 408.463867188 292.634765625 407.568359375 c 2
 70.634765625 172.568359375 l 2
 69.72265625 171.602539062 68.431640625 171 67 171 c 0
 64.240234375 171 62 173.240234375 62 176 c 0
 62 177.328125 62.51953125 178.536132812 63.365234375 179.431640625 c 2
 281.956054688 410.823242188 l 1
 51.5439453125 631.388671875 l 2
 50.5927734375 632.298828125 50 633.581054688 50 635 c 0
EndSplineSet
EndChar
StartChar: question
Encoding: 63 63 58
Width: 316
VWidth: 1000
Flags: HW
LayerCount: 2
Fore
SplineSet
134 395 m 1
 134 212 l 2
 134 209.240234375 131.759765625 207 129 207 c 0
 126.240234375 207 124 209.240234375 124 212 c 2
 124 400 l 2
 124 402.759765625 126.240234375 405 129 405 c 2
 220.299804688 405 l 1
 245.514648438 443.79296875 256.01953125 477.594726562 256.01953125 507.66796875 c 0
 256.01953125 542.20703125 242.202148438 572.469726562 219.415039062 600.485351562 c 1
 193.51953125 622.393554688 167.458984375 632.999023438 141.000976562 632.999023438 c 0
 115.009765625 632.999023438 88.041015625 622.728515625 60 601.529296875 c 1
 60 570 l 2
 60 567.240234375 57.759765625 565 55 565 c 0
 52.240234375 565 50 567.240234375 50 570 c 2
 50 604 l 2
 50 605.610351562 50.7626953125 607.043945312 51.9462890625 607.958984375 c 0
 81.875 631.083984375 111.59375 642.999023438 141.000976562 642.999023438 c 0
 170.423828125 642.999023438 198.9140625 631.034179688 226.235351562 607.810546875 c 0
 226.467773438 607.61328125 226.681640625 607.395507812 226.874023438 607.159179688 c 0
 250.8046875 577.85546875 266.01953125 545.20703125 266.01953125 507.66796875 c 0
 266.01953125 474.545898438 254.205078125 438.119140625 227.173828125 397.247070312 c 0
 226.278320312 395.893554688 224.743164062 395 223 395 c 2
 134 395 l 1
128 152 m 2
 128 154.759765625 130.240234375 157 133 157 c 0
 135.759765625 157 138 154.759765625 138 152 c 2
 138 108 l 2
 138 105.240234375 135.759765625 103 133 103 c 0
 130.240234375 103 128 105.240234375 128 108 c 2
 128 152 l 2
EndSplineSet
EndChar
StartChar: at
Encoding: 64 64 59
Width: 728
Flags: HW
LayerCount: 2
Fore
SplineSet
170 176 m 0
 170 182.094726562 169.962890625 188.276367188 169.962890625 194.532226562 c 0
 169.962890625 256.822265625 172.7421875 355 256 355 c 0
 287.049804688 355 311.66015625 339.721679688 334.369140625 325.798828125 c 0
 355.665039062 312.741210938 375.23046875 301 397 301 c 0
 399.759765625 301 402 298.759765625 402 296 c 0
 402 293.240234375 399.759765625 291 397 291 c 0
 371.578125 291 350.2421875 304.336914062 329.15234375 317.266601562 c 0
 306.288085938 331.28515625 283.612304688 345 256 345 c 0
 184.349609375 345 179.962890625 259.912109375 179.962890625 194.532226562 c 0
 179.962890625 188.282226562 180 182.108398438 180 176 c 0
 180 56.734375 286.4140625 7 388 7 c 0
 436.87109375 7 455 59.7734375 455 110 c 0
 455 129.943359375 456.35546875 142.041015625 460.313476562 149.2265625 c 0
 462.354492188 152.931640625 465.841796875 155.830078125 470.267578125 155.830078125 c 0
 476.838867188 155.830078125 482.0625 150.775390625 487.321289062 145.018554688 c 0
 494.192382812 137.497070312 501.864257812 126.758789062 510.340820312 114.940429688 c 0
 534.2109375 81.66015625 563.384765625 43 589 43 c 0
 658.111328125 43 668 107.239257812 668 185 c 0
 668 326.124023438 535.677734375 450 391 450 c 0
 186.798828125 450 60 371.9453125 60 179 c 0
 60 10.25 171.243164062 -164.000976562 337.08984375 -164.000976562 c 1
 337.08984375 -164.000976562 507.068359375 -167 616 -167 c 0
 639.640625 -167 659 -149.899414062 659 -127 c 0
 659 -120.892578125 662.630859375 -117.048828125 664.783203125 -114.657226562 c 0
 667.130859375 -112.048828125 668 -110.892578125 668 -109 c 0
 668 -106.240234375 670.240234375 -104 673 -104 c 0
 675.759765625 -104 678 -106.240234375 678 -109 c 0
 678 -115.107421875 674.369140625 -118.951171875 672.216796875 -121.342773438 c 0
 669.869140625 -123.951171875 669 -125.107421875 669 -127 c 0
 669 -156.100585938 644.359375 -177 616 -177 c 0
 506.920898438 -177 336.92578125 -173.999023438 336.91015625 -173.999023438 c 0
 163.162109375 -173.999023438 50 7.1083984375 50 179 c 0
 50 378.768554688 184.173828125 460 391 460 c 0
 540.924804688 460 678 332.25 678 185 c 0
 678 108.8828125 668.36328125 33 589 33 c 0
 573.725585938 33 559.55078125 42.23046875 546.584960938 54.4921875 c 0
 530.267578125 69.92578125 515.223632812 90.9765625 502.208984375 109.12109375 c 0
 493.748046875 120.91796875 486.122070312 131.506835938 479.9375 138.27734375 c 0
 474.751953125 143.954101562 470.96484375 145.830078125 470.267578125 145.830078125 c 2
 470.267578125 145.830078125 465 141.723632812 465 110 c 0
 465 59.4716796875 446.53515625 -3 388 -3 c 0
 284.165039062 -3 170 48.7353515625 170 176 c 0
EndSplineSet
EndChar
StartChar: A
Encoding: 65 65 27
Width: 466
Flags: HW
LayerCount: 2
Fore
SplineSet
301 793 m 0
 308.020507812 793 309.37890625 784.978515625 309.37890625 779.173828125 c 0
 309.37890625 776.5546875 309.169921875 774.23828125 309.045898438 773.096679688 c 0
 321.485351562 688.762695312 339.602539062 607.423828125 350.95703125 524.685546875 c 2
 371.953125 371.684570312 l 2
 371.974609375 371.530273438 371.98828125 371.374023438 371.995117188 371.215820312 c 2
 377.990234375 230.329101562 l 1
 381.693359375 188.094726562 381.809570312 146.362304688 386.912109375 105.021484375 c 0
 393.571289062 82.3173828125 399.71875 59.9970703125 404.825195312 36.3466796875 c 0
 413.467773438 11.2119140625 416.8125 -1.5341796875 416.8125 -7.814453125 c 0
 416.8125 -7.8603515625 416.818359375 -7.990234375 416.818359375 -8.185546875 c 0
 416.818359375 -9.6640625 416.5 -14.857421875 411.024414062 -14.857421875 c 0
 408.102539062 -14.857421875 406.880859375 -13.26171875 406.19921875 -12.5556640625 c 0
 405.135742188 -11.4560546875 404.290039062 -10.21875 403.360351562 -8.69921875 c 0
 401.291015625 -5.314453125 398.952148438 -0.4912109375 396.517578125 5.427734375 c 0
 391.129882812 18.53125 385.37109375 36.8828125 383.129882812 54.640625 c 1
 366.159179688 92.759765625 366.967773438 133.405273438 356.255859375 174.376953125 c 1
 336.44140625 220.88671875 328.299804688 273.357421875 302.752929688 314.361328125 c 0
 302.657226562 314.514648438 302.5703125 314.673828125 302.491210938 314.837890625 c 0
 276.325195312 369.2421875 218.801757812 398.040039062 162.194335938 416.56640625 c 1
 166.36328125 372.608398438 173.234375 328.952148438 178.7578125 285.280273438 c 0
 182.387695312 256.58203125 186.229492188 226.330078125 186.229492188 196.837890625 c 0
 186.229492188 182.453125 185.313476562 168.247070312 182.985351562 154.48828125 c 0
 180.909179688 95.10546875 158.844726562 29.7763671875 109.015625 -7.9873046875 c 0
 108.177734375 -8.623046875 107.1328125 -9 106 -9 c 2
 100 -9 l 2
 97.240234375 -9 95 -6.759765625 95 -4 c 0
 95 -1.240234375 97.240234375 1 100 1 c 2
 104.303710938 1 l 1
 149.920898438 36.4365234375 171.083007812 98.1796875 173.002929688 155.170898438 c 0
 173.010742188 155.400390625 173.034179688 155.625976562 173.071289062 155.846679688 c 0
 175.322265625 169.013671875 176.229492188 182.772460938 176.229492188 196.837890625 c 0
 176.229492188 230.229492188 171.03515625 265.828125 167.037109375 298.385742188 c 0
 162.083984375 338.724609375 155.526367188 378.903320312 151.84375 419.84765625 c 1
 145.395507812 421.830078125 138.606445312 423.760742188 132.278320312 425.693359375 c 0
 120.75 429.213867188 111.516601562 432 100 432 c 0
 97.138671875 432 96.3935546875 433.216796875 95.8212890625 433.666992188 c 0
 93.2685546875 435.6796875 90.3056640625 439.182617188 88.4111328125 441.362304688 c 1
 54.1728515625 447.068359375 l 2
 51.806640625 447.462890625 50 449.522460938 50 452 c 0
 50 454.759765625 52.240234375 457 55 457 c 0
 55.28125 457 55.5576171875 456.9765625 55.8271484375 456.931640625 c 2
 91.8271484375 450.931640625 l 2
 93.537109375 450.646484375 94.51171875 449.584960938 95.5244140625 448.418945312 c 0
 96.9775390625 446.745117188 99.9580078125 443.40625 101.4765625 441.986328125 c 0
 117.036132812 441.701171875 130.055664062 436.661132812 143.389648438 432.803710938 c 0
 145.895507812 432.079101562 148.416015625 431.336914062 150.94921875 430.576171875 c 1
 149.735351562 446.434570312 149 462.493164062 149 478.908203125 c 0
 148.860351562 482.801757812 148.791015625 486.694335938 148.791015625 490.5859375 c 0
 148.791015625 587.66796875 191.775390625 683.389648438 255.389648438 755.463867188 c 0
 259.333007812 759.932617188 268.73828125 770.603515625 278.278320312 779.369140625 c 0
 285.671875 786.161132812 293.329101562 793 301 793 c 0
299.37890625 779.173828125 m 0
 299.37890625 780.301757812 299.294921875 781.444335938 299.176757812 782.353515625 c 1
 296.286132812 780.9375 290.762695312 777.26171875 285.040039062 772.00390625 c 0
 276.0390625 763.734375 266.788085938 753.268554688 262.888671875 748.8515625 c 0
 200.662109375 678.348632812 158.791015625 584.706054688 158.791015625 490.5859375 c 0
 158.791015625 486.724609375 159 482.862304688 159 479 c 0
 159 461.501953125 159.848632812 444.369140625 161.236328125 427.396484375 c 1
 219.819335938 408.75 282.568359375 379.060546875 311.390625 319.408203125 c 1
 337.897460938 276.719726562 345.434570312 225.134765625 365.599609375 177.961914062 c 0
 365.694335938 177.740234375 365.7734375 177.510742188 365.8359375 177.275390625 c 0
 369.45703125 163.522460938 371.74609375 149.384765625 373.916015625 135.2578125 c 1
 371.517578125 166.811523438 370.768554688 198.254882812 368.01953125 229.557617188 c 0
 368.012695312 229.6328125 368.0078125 229.708007812 368.004882812 229.784179688 c 2
 362.014648438 370.547851562 l 1
 341.059570312 523.220703125 l 2
 329.677734375 606.145507812 311.53125 687.694335938 299.060546875 772.223632812 c 0
 299.020507812 772.4765625 299 772.735351562 299 773 c 0
 299 773.94921875 299.37890625 775.430664062 299.37890625 779.173828125 c 0
EndSplineSet
EndChar
StartChar: B
Encoding: 66 66 28
Width: 547
Flags: HW
LayerCount: 2
Fore
SplineSet
267 759 m 2
 251.292350798 759 224.664372596 767.356926364 207.494434661 768.631318045 c 0
 167.964678979 765.671413015 138.019242007 727.964934921 130 693 c 0
 130 687.265462945 125.680970622 673.281869397 124 666 c 2
 109 606 l 1
 91 495 l 1
 82.303030303 294.96969697 l 1
 94 178 l 1
 110.01953125 120.831054688 126.430664062 65.41015625 148 10 c 1
 138 8.881784197e-16 l 1
 116.430664062 55.41015625 100.01953125 110.831054688 84 168 c 1
 71.696969697 291.03030303 l 1
 81 505 l 1
 99 616 l 1
 104.471349635 637.885398542 109.674804385 659.929429867 115.46824393 681.685911409 c 0
 117.319355117 688.637510032 120 698.704310671 120 703 c 0
 128.353296854 739.421457364 160.497580847 778.817622309 202.4834698 778.817622309 c 2
 212.4834698 778.817622309 l 2
 223.523913614 778.817622309 231.179519957 776.595906468 241.824538928 774.421554357 c 0
 251.745115398 772.395176952 262.203026358 770.259043532 270.426595571 769.395977933 c 0
 271.053613885 769.433533714 271.676276379 769.451786859 272.294865892 769.451786859 c 2
 282.294865892 769.451786859 l 2
 292.809490953 769.451786859 302.147337206 764.178029234 311.697420131 758.784406199 c 0
 319.708912886 754.259736393 327.869765203 749.650712431 337 748 c 0
 415.629882812 733.784179688 466 661.575195312 466 583 c 2
 466 573 l 1
 445.960627173 500.364174114 360.848151377 443.34582359 284.871503544 443.34582359 c 2
 274.871503544 443.34582359 l 2
 265.784994668 443.34582359 255.210905914 444.461594742 247.694958435 445.615041466 c 1
 247.682087016 445.497866466 247.669327953 445.381377188 247.656687252 445.265618284 c 0
 251.463362646 436.790247868 271.457475994 424.226831782 298.133829476 407.464591685 c 0
 365.352861208 365.227126594 475 296.329716476 475 199 c 2
 475 189 l 2
 475 82.6669921875 414.061523438 27 316 27 c 2
 306 27 l 2
 271.448043264 27 238.881684755 52.0554008589 210 63 c 1
 177 153 l 1
 174 222 l 1
 184 232 l 1
 187 163 l 1
 220 73 l 1
 248.287711735 62.280484564 279.350619803 38.6576951554 312.514282162 37.0832397671 c 0
 404.945887173 39.4651505333 465.354181592 92.9441847226 464.935894894 193.072874997 c 0
 464.538222044 288.267060782 354.411390875 355.818704891 288.133829476 397.464591685 c 0
 258.422233735 416.134043707 237 429.59482745 237 438 c 2
 237 447.734031002 l 1
 228.655609092 449.90583846 225.777883517 452.392046912 225.777883517 454.788501176 c 2
 225.777883517 464.788501176 l 2
 225.777883517 470.116039375 240 475 240 475 c 2
 251.759961423 479.038442289 l 1
 250 465 l 1
 250 465 249.575982331 461.617796559 249.046766803 457.233329752 c 1
 255.525319633 455.741756992 269.328623916 453.780059148 279.897966859 453.428158082 c 0
 354.273442925 455.85257214 435.770594393 511.530297323 455.770578281 582.179148623 c 1
 452.020245411 657.130026667 402.557281631 724.339687908 327 738 c 0
 309.291316697 741.201663957 294.902203849 756.328787244 277.335867909 759.055751694 c 0
 277.22405853 759.037807008 277.112103057 759.019224945 277 759 c 2
 267 759 l 2
EndSplineSet
EndChar
StartChar: C
Encoding: 67 67 29
Width: 511
Flags: HW
LayerCount: 2
Fore
SplineSet
202.5 23 m 2
 216.5 23 l 1
 244.575924595 11.0137566871 274.8765406 3.65914496613 307.251777846 2.97021447423 c 0
 346.686385054 3.80707154125 363.430699568 18.3727302644 386.681822383 38.7724040649 c 0
 390.414368789 42.0472020069 394.313303449 45.4679828375 398.5 49 c 1
 416.5 97 l 1
 418.5 157 l 1
 428.5 147 l 1
 426.5 87 l 1
 408.5 39 l 1
 404.313303449 35.4679828375 400.414368789 32.0472020069 396.681822383 28.7724040649 c 0
 373.733903424 8.63875009546 357.075234246 -5.976949107 318.5 -7 c 0
 316.407763295 -7.05544934903 312.248365342 -7.08291127102 312.248365342 -7.08291127102 c 1
 302.248365342 -7.08291127102 l 2
 267.989794633 -7.08291127102 236.015553108 0.399146957617 206.5 13 c 1
 192.5 13 l 2
 159.948313618 13 138.72321516 66.4882292632 123.428177497 105.0324312 c 0
 118.580322631 117.249249559 114.328208454 127.964773843 110.5 135 c 0
 101.693020115 151.184636668 97.0326727739 167.271290583 94.5 185 c 2
 86.5 241 l 1
 82.2781299525 390.876386688 l 1
 96.5 527 l 1
 117.478787109 554.19891526 129.564045852 591.342973812 141.807038023 628.971826262 c 0
 166.859608765 705.9709352 192.572649653 785 296.5 785 c 2
 306.5 785 l 2
 318.052654865 785 330.591629969 777.996956537 343.032658048 771.048616689 c 0
 351.691043682 766.212890451 360.301988454 761.403660031 368.5 759 c 0
 395.204101562 751.169921875 407.10546875 719.020507812 410.5 691 c 1
 400.5 681 l 1
 397.10546875 709.020507812 385.204101562 741.169921875 358.5 749 c 0
 340.40493381 754.30548013 318.608081307 773.096974159 299.286559681 774.869565347 c 0
 201.361915723 771.278807682 176.269612923 694.15758221 151.807038023 618.971826262 c 0
 139.564045852 581.342973812 127.478787109 544.19891526 106.5 517 c 1
 92.7218700475 385.123613312 l 1
 96.5 251 l 1
 104.5 195 l 1
 108.471579295 177.527253088 111.689069615 161.191896524 120.5 145 c 0
 124.328208454 137.964773843 128.580322631 127.249249559 133.428177497 115.0324312 c 0
 148.72321516 76.4882292632 169.948313618 23 202.5 23 c 2
EndSplineSet
EndChar
StartChar: D
Encoding: 68 68 30
Width: 463
Flags: HW
LayerCount: 2
Fore
SplineSet
149.333007812 84.1767578125 m 1
 176.643554688 83.3876953125 208.120117188 79 235 79 c 0
 312.297851562 79 342.989257812 160.107421875 371.431640625 237.283203125 c 0
 377.793945312 254.544921875 384.008789062 271.416992188 390.6484375 286.837890625 c 1
 403.176757812 425.865234375 l 1
 321.3828125 665.401367188 l 2
 300.141601562 727.610351562 236.55078125 757 169 757 c 0
 104.1015625 757 70.0986328125 726.620117188 59.8974609375 676.989257812 c 0
 59.4296875 674.713867188 57.4130859375 673 55 673 c 0
 52.240234375 673 50 675.240234375 50 678 c 0
 50 678.345703125 50.03515625 678.68359375 50.1025390625 679.010742188 c 0
 61.2353515625 733.176757812 100.287109375 767 169 767 c 0
 239.001953125 767 307.727539062 736.346679688 330.849609375 668.629882812 c 2
 412.985351562 428.090820312 l 2
 413.158203125 427.584960938 413.251953125 427.041015625 413.251953125 426.4765625 c 0
 413.251953125 426.323242188 413.245117188 426.171875 413.231445312 426.022460938 c 2
 400.536132812 285.135742188 l 2
 400.487304688 284.59765625 400.353515625 284.083984375 400.147460938 283.607421875 c 0
 393.544921875 268.349609375 387.28125 251.36328125 380.818359375 233.829101562 c 0
 353.038085938 158.452148438 320.869140625 69 235 69 c 0
 207.403320312 69 175.821289062 73.466796875 148.216796875 74.203125 c 1
 144.545898438 45.6201171875 136.935546875 18.99609375 123.330078125 -4.5 c 0
 122.46484375 -5.994140625 120.848632812 -7 119 -7 c 0
 118.422851562 -7 117.868164062 -6.90234375 117.352539062 -6.7216796875 c 0
 97.3623046875 0.2626953125 59.9462890625 0.94140625 59.9462890625 28.439453125 c 0
 59.9462890625 29.1044921875 59.958984375 29.802734375 60.021484375 30.470703125 c 0
 64.1376953125 74.47265625 100.090820312 84.1240234375 139.287109375 84.30859375 c 1
 140.502929688 96.576171875 141.0390625 109.255859375 141.0390625 122.264648438 c 0
 141.0390625 210.935546875 115.969726562 314.12890625 115.969726562 402.7578125 c 0
 115.969726562 404.53125 115.979492188 406.23828125 116 408 c 2
 116 676 l 2
 116 678.759765625 118.240234375 681 121 681 c 0
 123.759765625 681 126 678.759765625 126 676 c 2
 126 408 l 2
 125.979492188 406.279296875 125.969726562 404.4921875 125.969726562 402.7578125 c 0
 125.969726562 314.55859375 151.0390625 211.328125 151.0390625 122.264648438 c 0
 151.0390625 109.296875 150.524414062 96.5703125 149.333007812 84.1767578125 c 1
69.9462890625 28.439453125 m 0
 69.9462890625 16.609375 83.9453125 12.21875 103.608398438 7.4287109375 c 0
 108.005859375 6.357421875 112.431640625 5.28515625 116.645507812 4.0166015625 c 1
 128.017578125 24.8994140625 134.712890625 48.60546875 138.12890625 74.30078125 c 1
 100.220703125 73.9716796875 73.359375 65.326171875 69.984375 29.5966796875 c 0
 69.958984375 29.1962890625 69.9462890625 28.8115234375 69.9462890625 28.439453125 c 0
EndSplineSet
EndChar
StartChar: E
Encoding: 69 69 31
Width: 432
Flags: W
HStem: -3 10<222.764 266> 407 10<174.557 185 208.918 251.672> 427 10<105.716 133.635> 765 10<168.027 297>
VStem: 51 11<137.484 269.002 487.239 625.634>
LayerCount: 2
Fore
SplineSet
54 578 m 0
 54 582 53 586 53 590 c 2
 53 600 l 2
 53 642 71 685 97 719 c 1
 114 750 147 770 183 775 c 1
 193 775 l 2
 224 775 254 769 285 769 c 0
 307 769 327 747 347 745 c 1
 337 735 l 1
 317 737 297 759 275 759 c 0
 247 759 220 764 192 765 c 1
 156 760 123 740 107 709 c 1
 83 677 65 637 63 597 c 0
 63 592 64 588 64 583 c 2
 64 573 l 2
 64 556 61 538 61 521 c 0
 62 496 68 473 91 457 c 0
 98 452 105 439 114 437 c 1
 121 437 l 2
 131 437 140 432 149 431 c 0
 166 429 176 417 195 417 c 2
 263 417 l 1
 223 407 l 2
 187 398 137 367 111 329 c 1
 77 303 61 268 60 228 c 0
 60 223 62 219 62 214 c 0
 62 204 60 193 60 183 c 0
 60 161 64 140 75 121 c 1
 96 51 170 12 239 11 c 0
 246 9 254 7 261 7 c 0
 295 9 325 30 347 59 c 2
 367 85 l 1
 373 97 l 1
 383 87 l 1
 377 75 l 1
 357 49 l 2
 334 19 302 -3 266 -3 c 2
 256 -3 l 2
 247 -3 238 -2 229 1 c 0
 160 2 86 41 65 111 c 1
 53 131 50 155 50 178 c 2
 50 188 l 2
 50 196 51 202 51 210 c 0
 51 214 50 220 50 224 c 2
 50 234 l 2
 50 276 65 311 101 339 c 1
 121 368 154 393 185 407 c 1
 166 407 156 419 139 421 c 0
 131 422 123 426 115 427 c 1
 107 427 l 2
 97 427 88 442 81 447 c 0
 56 464 51 488 51 515 c 2
 51 525 l 2
 51 542 54 561 54 578 c 0
EndSplineSet
EndChar
StartChar: F
Encoding: 70 70 32
Width: 542
Flags: W
HStem: 399 10<176.489 274> 419 10<88 124.777> 665 10<176 196.757> 778 10<396.037 440.577>
VStem: 82 11<747.234 790> 161 10<72.0452 401.297> 170 10<417.406 663.17> 466 10<736.018 754.212>
LayerCount: 2
Fore
SplineSet
96 429 m 2xf9
 130 429 166 415 198 409 c 1
 284 405 l 1
 274 395 l 1
 188 399 l 1
 156 405 120 419 86 419 c 2
 78 419 l 1
 88 429 l 1
 96 429 l 2xf9
161 291 m 2xfd
 161 371 170 449 170 529 c 0
 170 534 170 540 170 545 c 0
 166 584 169 626 165 665 c 1
 137 668 120 693 104 716 c 0
 96 727 90 736 82 743 c 1
 84 818 l 1
 144 761 l 1
 164 737 172 707 175 675 c 0
 209 678 247 703 286 729 c 0
 324 754 363 780 400 787 c 0
 405 788 410 788 415 788 c 2
 425 788 l 2
 452 788 475 775 476 745 c 1
 482 738 483 728 485 718 c 0
 487 710 489 703 492 697 c 1
 482 687 l 1
 479 693 477 700 475 708 c 0
 473 718 472 728 466 735 c 1
 465 763 445 776 420 778 c 0
 417 778 413 778 410 777 c 0
 373 770 334 744 296 719 c 0
 255 692 215 665 180 665 c 2
 176 665 l 1
 179 629 177 590 180 555 c 0
 180 548 180 541 180 534 c 2
 180 524 l 2xfb
 180 444 171 366 171 286 c 0
 171 269 171 252 172 235 c 1
 170 225 169 212 169 198 c 0
 169 175 171 151 171 127 c 2
 171 117 l 2
 171 57 161 1 100 1 c 2
 90 1 l 2
 86 1 84 1 80 1 c 0
 69 1 58 2 50 7 c 1
 60 17 l 1
 70 11 82 12 95 11 c 0
 150 14 160 66 161 122 c 0
 161 146 159 171 159 194 c 2
 159 204 l 2
 159 218 160 230 162 241 c 0
 161 254 161 268 161 281 c 2
 161 291 l 2xfd
94 790 m 1
 93 753 l 1
 100 746 107 736 114 726 c 0
 127 707 142 685 164 678 c 1
 160 705 151 730 134 751 c 1
 94 790 l 1
EndSplineSet
EndChar
StartChar: G
Encoding: 71 71 33
Width: 584
Flags: HW
LayerCount: 2
Fore
SplineSet
314.343899051 341.849465851 m 0
 314.912177596 337.112196944 315.989257812 332.020285557 315.989257812 327 c 0
 315.989257812 310.428313196 325.929880634 295.693677661 336.13902779 280.561017952 c 0
 347.128027365 264.272410434 357.992457981 248.196663989 357.992457981 227.961255762 c 2
 357.992457981 217.961255762 l 2
 357.992457981 185.764209378 348.767545485 151.283611592 325.989257812 129 c 0
 301.461914062 101.666015625 263.291015625 88.3759765625 227.989257812 87 c 2
 218.865271653 86.6443692357 l 1
 217.989257812 87 l 2
 99.0997245627 135.264962967 89.6060624428 326.486061358 83.3452718066 452.590745424 c 0
 82.8897826625 461.765196056 82.451404942 470.594988835 81.9892578125 479 c 0
 80.6721242249 491.630658914 80.0103099754 504.358311358 80.0103099754 517.061187152 c 2
 80.0103099754 527.061187152 l 2
 80.0103099754 654.244869753 146.353263504 778.944840121 285.557874705 778.944840121 c 2
 295.557874705 778.944840121 l 2
 309.622326795 778.944840121 324.430546801 777.671909473 339.989257812 775 c 0
 385.7505416 773.130956912 424.474982804 738.711665411 455.989257812 713 c 1
 445.989257812 703 l 1
 414.469786917 728.715904598 375.755318003 763.130761828 329.989257812 765 c 0
 316.27072087 767.355894934 303.135647648 768.624164077 290.579429521 768.891212454 c 0
 156.572059558 765.991534503 91.7404423002 645.966457805 90.044492045 522.058837431 c 0
 90.1953089219 511.01924879 90.8449837475 499.973021685 91.9892578125 489 c 0
 92.451404942 480.594988835 92.8897826625 471.765196056 93.3452718066 462.590745424 c 0
 99.5817260193 336.976244361 109.025967599 146.750573225 226.607801563 97.5693016217 c 1
 259.380001364 100.619087301 293.44691359 113.878156761 315.989257812 139 c 0
 337.35926218 159.905909577 346.799978531 191.547250376 347.885652935 221.96666715 c 0
 346.736278755 240.030437383 336.304536447 255.493042056 326.13902779 270.561017952 c 0
 315.929880634 285.693677661 305.989257812 300.428313196 305.989257812 317 c 0
 305.989257812 323.628051607 303.989257812 330.520481228 303.989257812 337 c 2
 303.989257812 347 l 2
 303.989257812 373.237304688 333.735351562 385 357.989257812 385 c 2
 367.989257812 385 l 2
 427.95703125 385 477.989257812 312.83984375 477.989257812 259 c 2
 477.989257812 249 l 2
 477.989257812 195.986383375 437.392197317 151.042895224 434.194833815 99.5684503702 c 0
 436.062180501 84.3367686292 450.676185621 76.2749686049 457.989257812 65 c 1
 503.989257812 61 l 1
 493.989257812 51 l 1
 447.989257812 55 l 1
 440.279590399 66.886421433 423.989257812 75.3778675887 423.989257812 93 c 2
 423.989257812 103 l 2
 423.989257812 156.578423561 465.255627365 201.740156155 467.859039045 253.822082844 c 1
 465.102720997 305.521474528 418.941140536 371.12280432 362.961332607 374.834996113 c 0
 341.402244632 373.431454709 317.516198921 363.027342697 314.343899051 341.849465851 c 0
EndSplineSet
EndChar
StartChar: H
Encoding: 72 72 34
Width: 782
Flags: HW
LayerCount: 2
Fore
SplineSet
328.4765625 746.307617188 m 1
 332.268554688 750.1640625 335.083984375 755.015625 336.634765625 760.877929688 c 1
 333.71875 757.267578125 330.961914062 752.354492188 328.4765625 746.307617188 c 1
322.650390625 309.801757812 m 1
 398.331054688 371.9765625 484.391601562 433.125976562 538.421875 509.736328125 c 1
 535.216796875 540.733398438 531.271484375 572.911132812 531.271484375 605.020507812 c 0
 531.271484375 612.69921875 531.494140625 620.413085938 532 628.170898438 c 0
 532.048828125 640.58984375 537.272460938 687.040039062 548.043945312 726.931640625 c 0
 552.84765625 744.719726562 558.701171875 761.134765625 566.103515625 772.734375 c 0
 571.895507812 781.811523438 579.30859375 789 589 789 c 0
 596.452148438 789 597.955078125 781.078125 598.625 777.354492188 c 0
 599.73828125 771.163085938 599.71875 763.565429688 599.739257812 757.810546875 c 0
 599.751953125 754.321289062 599.853515625 751.272460938 599.923828125 750.872070312 c 0
 603.9453125 728.041015625 605.841796875 706.396484375 605.841796875 685.809570312 c 0
 605.841796875 615.043945312 583.458984375 557.249023438 548.75390625 507.016601562 c 0
 549.16015625 503.01953125 549.5546875 499.012695312 549.9296875 494.995117188 c 0
 564.000976562 449.98828125 564.680664062 390.931640625 565.501953125 330.418945312 c 0
 567.090820312 213.288085938 569.630859375 94.5224609375 658.862304688 58.640625 c 0
 668.07421875 54.9365234375 718.3203125 29.01171875 722.946289062 26.623046875 c 0
 726.57421875 25.4130859375 732 24.6875 732 20 c 0
 732 17.240234375 729.759765625 15 727 15 c 0
 724.317382812 15 721.713867188 16.490234375 719.419921875 17.2548828125 c 0
 718.926757812 17.419921875 664.051757812 45.7744140625 655.137695312 49.359375 c 0
 557.853515625 88.478515625 557.064453125 215.186523438 555.502929688 330.28125 c 0
 554.678710938 391.036132812 553.760742188 449.630859375 540.23046875 492.495117188 c 0
 540.01953125 493.163085938 539.984375 493.9375 539.91015625 494.724609375 c 1
 482.884765625 418.494140625 397.974609375 359.299804688 323.247070312 297.286132812 c 1
 325.157226562 256.286132812 326.853515625 219.833007812 326.853515625 177.03125 c 0
 326.853515625 108.688476562 319.060546875 -1 241 -1 c 0
 240.953125 -1 240.907226562 -0.9990234375 240.860351562 -0.998046875 c 0
 202.424804688 0.0546875 150.684570312 30.0888671875 150.684570312 74.458984375 c 0
 150.684570312 78.58984375 151.061523438 83.021484375 152.159179688 87.2568359375 c 0
 175.09765625 175.73828125 240.080078125 241.034179688 313.021484375 301.834960938 c 1
 309.440429688 377.252929688 304.28515625 454.650390625 304.28515625 531.569335938 c 0
 304.28515625 555.607421875 304.784179688 579.694335938 305.986328125 603.844726562 c 0
 304.779296875 614.739257812 304.091796875 628.416015625 304.091796875 643.322265625 c 0
 304.091796875 670.342773438 306.327148438 701.331054688 312.091796875 726.751953125 c 1
 307.2578125 725.583007812 302.173828125 725 297 725 c 0
 217.151367188 725 171.380859375 787 93 787 c 0
 80.126953125 787 70.5400390625 781.654296875 60 778.267578125 c 1
 60 716.499023438 l 1
 69.9033203125 666.984375 l 2
 69.966796875 666.666015625 70 666.336914062 70 666 c 0
 70 663.240234375 67.759765625 661 65 661 c 0
 62.5771484375 661 60.5546875 662.7265625 60.0966796875 665.015625 c 2
 50.0966796875 715.015625 l 2
 50.033203125 715.333984375 50 715.663085938 50 716 c 2
 50 782 l 2
 50 784.307617188 51.5673828125 786.252929688 53.6943359375 786.827148438 c 0
 66.4951171875 790.287109375 76.201171875 797 93 797 c 0
 134.176757812 797 166.426757812 780.891601562 197.663085938 765.383789062 c 0
 228.868164062 749.891601562 259.0625 735 297 735 c 0
 303.483398438 735 309.5625 735.95703125 314.951171875 737.885742188 c 1
 320.3125 756.415039062 328.159179688 771.831054688 341.263671875 776.689453125 c 0
 341.8046875 776.890625 342.389648438 777 343 777 c 0
 345.759765625 777 348 774.759765625 348 772 c 0
 348 751.622070312 337.810546875 737.924804688 323.374023438 730.802734375 c 1
 316.76171875 705.650390625 314.091796875 672.098632812 314.091796875 643.322265625 c 0
 314.091796875 628.553710938 314.790039062 615.0234375 315.96875 604.564453125 c 0
 315.989257812 604.379882812 316 604.19140625 316 604 c 0
 316 603.915039062 315.998046875 603.830078125 315.994140625 603.74609375 c 0
 314.787109375 579.654296875 314.28515625 555.600585938 314.28515625 531.569335938 c 0
 314.28515625 457.641601562 319.106445312 382.643554688 322.650390625 309.801757812 c 1
587.959960938 778.930664062 m 0
 584.001953125 778.412109375 579.36328125 774.92578125 574.5390625 767.365234375 c 0
 568.133789062 757.328125 562.368164062 741.608398438 557.700195312 724.322265625 c 0
 547.211914062 685.483398438 542 638.390625 542 628 c 0
 542 620.322265625 541.271484375 612.6640625 541.271484375 605.020507812 c 0
 541.271484375 577.602539062 544.19921875 550.209960938 547.122070312 522.634765625 c 1
 577.084960938 569.159179688 595.841796875 622.0859375 595.841796875 685.809570312 c 0
 595.841796875 705.76953125 594.00390625 726.829101562 590.076171875 749.127929688 c 0
 589.760742188 750.916015625 589.741210938 752.978515625 589.741210938 755.525390625 c 0
 589.741210938 755.891601562 589.741210938 756.266601562 589.741210938 756.653320312 c 0
 589.741210938 763.50390625 589.883789062 774.041992188 587.959960938 778.930664062 c 0
313.606445312 289.220703125 m 1
 243.670898438 230.211914062 183.354492188 167.626953125 161.859375 84.8173828125 c 0
 161.05859375 81.2626953125 160.684570312 77.8095703125 160.684570312 74.458984375 c 0
 160.684570312 38.4365234375 205.629882812 10.005859375 241.0703125 9 c 0
 306.758789062 9.068359375 316.853515625 105.4375 316.853515625 177.03125 c 0
 316.853515625 217.15625 315.336914062 250.833007812 313.606445312 289.220703125 c 1
EndSplineSet
EndChar
StartChar: I
Encoding: 73 73 35
Width: 331
Flags: W
HStem: -10 21G<165.5 210> 607 10<84.6626 178> 810 20G<178 188>
VStem: 50 10<652.83 702.819> 178 10<738.402 817> 272 10<108.245 231.209>
LayerCount: 2
Fore
SplineSet
50 672 m 2
 50 682 l 2
 50 748 120 821 178 829 c 2
 188 830 l 1
 188 823 l 2
 189 712 211 603 234 493 c 0
 258 380 282 267 282 149 c 2
 282 139 l 2
 282 66 234 -10 186 -10 c 2
 176 -10 l 2
 155 -10 135 5 118 41 c 1
 106 91 l 1
 116 101 l 1
 128 51 l 1
 143 18 162 2 181 0 c 1
 226 5 271 76 272 146 c 0
 271 261 247 372 224 483 c 0
 201 594 178 705 178 817 c 1
 124 803 63 738 60 677 c 0
 61 655 70 634 90 617 c 1
 188 617 l 1
 178 607 l 1
 80 607 l 1
 59 625 50 648 50 672 c 2
EndSplineSet
EndChar
StartChar: J
Encoding: 74 74 36
Width: 1024
Flags: HW
LayerCount: 2
Fore
SplineSet
328.149572447 771.043665313 m 1
 331.106559586 750.016953144 337.200697729 729.052920871 337.200697729 706.115964098 c 2
 337.200697729 696.115964098 l 2
 337.200697729 693.769540699 337.137059949 691.398789278 337 689 c 1
 327.200697729 698.799302271 l 2
 327.199845432 698.841280226 327.032396074 698.967603926 327 699 c 0
 327.041479664 699.725967967 327.076234617 700.449367933 327.104536005 701.170302729 c 0
 326.189577914 725.516062369 319.061539092 747.435035181 317 771 c 2
 316.128177678 780.965594359 l 1
 322.167802594 781.20394243 328.337583505 781.330466358 334.62776653 781.330466358 c 2
 344.62776653 781.330466358 l 2
 403.091727957 781.330466358 470.394144767 771.775939202 529.181949333 771.258060904 c 0
 554.460932624 771.492522746 578.185404448 773.582975982 599 779 c 2
 616.216766988 783.480684722 l 1
 609 769 l 2
 576.538688127 703.865290306 568.64764659 631.802926672 568.31860109 557.864967493 c 0
 568.578334622 497.258636707 573.431025059 435.227615528 573.431025059 374.637878138 c 2
 573.431025059 364.637878138 l 2
 573.431025059 353.882631867 573.276783767 343.181158941 572.914776486 332.549358083 c 1
 612.147676872 371.337800102 666.802211016 422.071280955 697 457 c 1
 697 471 l 1
 707 461 l 1
 707 447 l 1
 673.346304847 408.073955997 614.042553618 353.757064759 571.912066571 311.6093631 c 1
 571.357310045 302.747070717 570.697093583 294.07308374 570.605122252 284.499940417 c 0
 570.88870658 251.935592696 573.476955991 217.185495669 573.476955991 183.878087583 c 2
 573.476955991 173.878087583 l 2
 573.476955991 95.2406144822 559.801268895 21.0520153289 473 9 c 0
 472.476047615 8.98179068262 471.956299717 8.97276951655 471.440744801 8.97276951655 c 2
 461.440744801 8.97276951655 l 2
 426.495975797 8.97276951655 410.814809976 50.4182483618 410.814809976 81.3096322786 c 2
 410.814809976 91.3096322786 l 2
 410.814809976 93.2524804378 410.876837056 95.1535817206 411 97 c 0
 415.554534336 165.278706959 487.678309912 247.345274292 561.912066532 321.609362998 c 1
 562.904989708 337.471414704 563.346673287 353.515252179 563.419917915 369.686577171 c 0
 563.156327831 430.195908066 558.307680854 492.195658995 558.307680854 552.912088819 c 2
 558.307680854 562.912088819 l 2
 558.307680854 633.506864963 564.840914809 702.49812839 592.662597794 765.503058893 c 1
 574.640434608 762.395750492 554.92664534 761.235461528 534.246322978 761.235461528 c 2
 524.246322978 761.235461528 l 2
 465.359211822 761.235461528 398.213802352 770.760879251 339.698923777 771.306481484 c 0
 335.799910378 771.26799615 331.948302032 771.182370433 328.149572447 771.043665313 c 1
560.582244546 279.622593669 m 2
 560.582244546 289.622593669 l 2
 560.582244546 293.245979853 560.618347968 296.811044388 560.698618824 300.309962321 c 1
 490.515153287 229.040829682 424.684915302 151.674312977 420.952215445 86.2274066432 c 0
 422.46392741 57.9115353756 436.500093133 23.4814817995 465.571279201 19.3784541015 c 1
 548.290979581 32.2526897577 562.880219971 102.951959283 563.458545746 178.960899083 c 0
 563.223314109 211.996909192 560.582244546 247.292143855 560.582244546 279.622593669 c 2
EndSplineSet
EndChar
StartChar: K
Encoding: 75 75 37
Width: 852
Flags: HW
LayerCount: 2
Fore
SplineSet
55 737 m 2
 52.240234375 737 50 739.240234375 50 742 c 0
 50 744.759765625 52.240234375 747 55 747 c 2
 103 747 l 2
 163.56640625 747 226.658203125 780.41796875 226.658203125 780.41796875 c 2
 227.356445312 780.7890625 228.154296875 781 229 781 c 0
 231.540039062 781 233.640625 779.1015625 233.958984375 776.646484375 c 0
 243.19140625 705.266601562 248.25 615.91015625 248.25 523.125 c 0
 248.25 406.409179688 240.2578125 284.326171875 222.356445312 185.852539062 c 1
 287.779296875 319.637695312 362.873046875 449.54296875 486.043945312 540.032226562 c 0
 495.833984375 547.223632812 517.928710938 570.861328125 543.043945312 597.936523438 c 0
 568.654296875 625.543945312 597.758789062 656.93359375 622.361328125 679.5546875 c 0
 641.782226562 697.412109375 658.450195312 711 671 711 c 0
 673.057617188 711 674.826171875 709.754882812 675.59375 707.9765625 c 0
 689.405273438 675.961914062 695.678710938 645.888671875 695.678710938 617.999023438 c 0
 695.678710938 480.262695312 544.233398438 401.202148438 412.590820312 401.202148438 c 0
 402.216796875 401.202148438 391.943359375 401.689453125 381.84765625 402.677734375 c 1
 376.581054688 392.033203125 374.028320312 379.634765625 374.028320312 365.833007812 c 0
 374.028320312 246.40625 565.72265625 35 747 35 c 0
 765.774414062 35 771.90625 49.1435546875 779.123046875 66.44921875 c 0
 782.872070312 75.44140625 786.607421875 84.89453125 793.522460938 91.591796875 c 0
 794.422851562 92.462890625 795.649414062 93 797 93 c 0
 799.759765625 93 802 90.759765625 802 88 c 0
 802 86.5908203125 801.416015625 85.3173828125 800.477539062 84.408203125 c 0
 795.743164062 79.82421875 792.149414062 71.7021484375 788.356445312 62.607421875 c 0
 781.544921875 46.271484375 772.909179688 25 747 25 c 0
 559.8515625 25 364.028320312 239.478515625 364.028320312 365.833007812 c 0
 364.028320312 382.256835938 367.34765625 397.396484375 374.631835938 410.43359375 c 0
 375.487304688 411.963867188 377.124023438 413 379 413 c 0
 379.185546875 413 379.369140625 412.990234375 379.549804688 412.969726562 c 0
 390.354492188 411.787109375 401.405273438 411.202148438 412.590820312 411.202148438 c 0
 541.904296875 411.202148438 685.678710938 488.854492188 685.678710938 617.999023438 c 0
 685.678710938 643.321289062 680.211914062 670.830078125 667.943359375 700.392578125 c 1
 660.42578125 697.880859375 645.991210938 687.700195312 629.125976562 672.193359375 c 0
 605.001953125 650.010742188 575.970703125 618.729492188 550.375976562 591.138671875 c 0
 525.130859375 563.924804688 503.569335938 540.5 491.956054688 531.967773438 c 0
 360.27734375 435.227539062 283.881835938 291.887695312 214.282226562 146.083984375 c 1
 197.313476562 71.0390625 173.596679688 13.802734375 139.717773438 -8.1962890625 c 0
 138.935546875 -8.705078125 138.001953125 -9 137 -9 c 0
 134.240234375 -9 132 -6.759765625 132 -4 c 0
 132 -3.19921875 132.188476562 -2.4423828125 132.5234375 -1.771484375 c 0
 157.143554688 47.5478515625 180.749023438 99.0087890625 204.765625 149.379882812 c 1
 228.379882812 253.907226562 238.25 390.995117188 238.25 523.125 c 0
 238.25 612.51953125 233.5234375 698.744140625 224.923828125 768.369140625 c 1
 207.090820312 759.791015625 154.833984375 737 103 737 c 2
 55 737 l 2
154.028320312 19.2509765625 m 1
 167.591796875 36.9189453125 179.646484375 62.76171875 190.013671875 94.7890625 c 1
 178.071289062 69.4404296875 166.163085938 44.181640625 154.028320312 19.2509765625 c 1
EndSplineSet
EndChar
StartChar: L
Encoding: 76 76 38
Width: 618
Flags: W
HStem: 3 10<332.357 411.807> 149 12<69.9579 142.466> 621 10<115.376 167.113> 775 10<251.006 289.453>
VStem: 50 10<745.693 784.168> 58 10<117.088 146.333> 172 10<640 696.016> 218 10<180.783 312.475> 293 10<724.743 774.578> 558 10<117.083 153>
LayerCount: 2
Fore
SplineSet
353 3 m 2xfbc0
 289 3 250 56 211 95 c 1
 200 50 181 13 152 13 c 2
 142 13 l 1
 95 21 66 79 60 121 c 0xfbc0
 58 126 58 130 58 134 c 2
 58 144 l 2xf7c0
 58 157 67 161 81 161 c 2
 91 161 l 2
 97 161 104 160 112 159 c 1
 115 159 l 2
 152 159 179 143 204 121 c 1
 215 174 218 233 218 253 c 0
 217 317 200 379 194 441 c 0
 193 465 188 494 184 524 c 0
 179 557 174 592 172 625 c 1
 157 622 143 621 129 621 c 2
 119 621 l 2
 117 621 114 621 112 621 c 0
 63 649 55 725 50 777 c 1
 60 787 l 1
 65 735 73 659 122 631 c 0
 123 631 123 631 124 631 c 0
 139 631 156 633 172 637 c 0
 172 640 172 643 172 646 c 2
 172 656 l 2
 172 728 194 785 279 785 c 2
 289 785 l 2
 292 785 295 785 298 785 c 0
 301 774 303 764 303 754 c 2
 303 744 l 2
 303 683 244 643 183 628 c 1
 185 597 189 565 194 534 c 0
 198 504 203 475 204 451 c 0
 210 388 228 324 228 258 c 2
 228 248 l 2
 228 246 228 245 228 243 c 0
 228 223 225 164 214 111 c 1
 254 72 294 16 358 13 c 0
 359 13 359 13 360 13 c 0
 451 18 555 35 558 152 c 0
 558 153 l 2
 530 181 l 1
 540 191 l 1
 568 163 l 1
 568 161 568 159 568 157 c 2
 568 147 l 2
 568 25 463 8 370 3 c 0
 368 3 363 3 363 3 c 1
 353 3 l 2xfbc0
293 749 m 0
 293 757 291 766 288 775 c 0
 287 775 285 775 284 775 c 0
 205 773 183 719 182 651 c 0
 182 647 182 644 182 640 c 1
 238 656 290 694 293 749 c 0
110 149 m 1
 103 149 l 1
 97 150 91 151 86 151 c 0
 77 150 70 147 68 139 c 0xf7c0
 68 137 69 134 70 131 c 0
 76 90 104 34 149 24 c 1
 174 29 191 64 201 105 c 1
 176 129 147 148 110 149 c 1
EndSplineSet
EndChar
StartChar: M
Encoding: 77 77 39
Width: 750
Flags: HW
LayerCount: 2
Fore
SplineSet
397.826171875 376.890625 m 0
 397.826171875 375.076171875 398 373.53125 398 372 c 0
 398 369.240234375 395.759765625 367 393 367 c 0
 391.077148438 367 389.40625 368.087890625 388.569335938 369.681640625 c 0
 328.095703125 484.91796875 254.823242188 612.6953125 240.458984375 756.168945312 c 1
 232.923828125 686.018554688 232.029296875 613.559570312 231.1484375 541.174804688 c 0
 228.747070312 343.823242188 226.637695312 146.09375 86.626953125 -1.4404296875 c 0
 85.7158203125 -2.400390625 84.4267578125 -3 83 -3 c 0
 81.8251953125 -3 80.744140625 -2.59375 79.890625 -1.9150390625 c 0
 60.8798828125 13.2099609375 51.8447265625 53.0732421875 50.01953125 73.55078125 c 0
 50.01953125 73.69921875 50 73.8486328125 50 74 c 0
 50 76.759765625 52.240234375 79 55 79 c 0
 57.6083984375 79 59.7529296875 76.998046875 59.98046875 74.44921875 c 0
 61.578125 56.517578125 70.248046875 23.150390625 82.794921875 9.0869140625 c 1
 216.131835938 152.764648438 218.762695312 345.14453125 221.149414062 541.297851562 c 0
 222.26171875 632.779296875 223.361328125 724.885742188 238.068359375 812.829101562 c 0
 238.463867188 815.1953125 240.522460938 817 243 817 c 0
 248.612304688 817 247.958007812 811.255859375 247.958007812 805.66796875 c 0
 247.958007812 652.362304688 323.470703125 514.361328125 388.670898438 390.9453125 c 1
 397.149414062 471.034179688 467.75 677.3515625 514.048828125 758.697265625 c 0
 520.969726562 770.856445312 527.411132812 780.453125 533.478515625 786.911132812 c 0
 538.185546875 791.919921875 543.086914062 795.819335938 548.959960938 795.819335938 c 0
 553.646484375 795.819335938 557.40234375 792.8671875 559.734375 788.93359375 c 0
 564.280273438 781.265625 566 768.2734375 566 748 c 0
 566 662.072265625 562.681640625 574.28125 562.681640625 488.775390625 c 0
 562.681640625 314.797851562 576.875 154.372070312 660.892578125 43.1416015625 c 1
 698.78515625 -0.734375 l 2
 699.541992188 -1.611328125 700 -2.751953125 700 -4 c 0
 700 -6.759765625 697.759765625 -9 695 -9 c 0
 693.48828125 -9 692.131835938 -8.3271484375 691.21484375 -7.265625 c 2
 653.21484375 36.734375 l 2
 653.143554688 36.8173828125 653.075195312 36.9013671875 653.009765625 36.98828125 c 0
 566.434570312 151.491210938 552.681640625 314.485351562 552.681640625 488.775390625 c 0
 552.681640625 574.329101562 556 662.138671875 556 748 c 0
 556 764.3984375 554.52734375 775.360351562 552.392578125 781.106445312 c 0
 550.642578125 785.819335938 549.2265625 785.819335938 548.959960938 785.819335938 c 0
 548.072265625 785.819335938 544.994140625 784.565429688 540.766601562 780.06640625 c 0
 535.666992188 774.638671875 529.451171875 765.54296875 522.74609375 753.760742188 c 0
 507.638671875 727.21875 489.891601562 687.126953125 472.670898438 642.625976562 c 0
 433.944335938 542.556640625 397.826171875 419.348632812 397.826171875 376.890625 c 0
EndSplineSet
EndChar
StartChar: N
Encoding: 78 78 40
Width: 616
Flags: HW
LayerCount: 2
Fore
SplineSet
166 172 m 0
 166 156.341796875 166.787109375 139.943359375 166.787109375 123.0234375 c 0
 166.787109375 65.4052734375 159.465820312 -13 89 -13 c 0
 88.693359375 -13 88.3935546875 -12.97265625 88.1025390625 -12.919921875 c 0
 64.06640625 -8.5576171875 59.6416015625 17.39453125 55.80859375 36.6767578125 c 0
 54.1865234375 44.833984375 52.6171875 52.498046875 50.3564453125 58.1435546875 c 0
 50.126953125 58.7177734375 50 59.3447265625 50 60 c 0
 50 62.759765625 52.240234375 65 55 65 c 0
 57.103515625 65 58.90625 63.6982421875 59.6435546875 61.8564453125 c 0
 68.666015625 39.328125 66.7861328125 1.5634765625 89.4697265625 -2.9990234375 c 1
 148.508789062 -2.650390625 156.787109375 63.423828125 156.787109375 123.0234375 c 0
 156.787109375 139.865234375 156 156.118164062 156 171.852539062 c 0
 151.177734375 255.15625 142.400390625 347.133789062 142.400390625 429.243164062 c 0
 142.400390625 554.044921875 162.309570312 666.7890625 245.313476562 757.375976562 c 0
 255.189453125 768.154296875 262.629882812 774.185546875 270.137695312 774.185546875 c 0
 282.481445312 774.185546875 283.5234375 759.080078125 283.5234375 747.942382812 c 0
 283.5234375 726.27734375 276.885742188 691.377929688 276.885742188 670.416015625 c 0
 276.885742188 666.01171875 277.400390625 663.098632812 277.86328125 661.166015625 c 0
 287.314453125 621.647460938 290.286132812 580.3203125 290.286132812 538.340820312 c 0
 290.286132812 465.940429688 281.2890625 390.760742188 281.2890625 318.801757812 c 0
 281.2890625 267.546875 285.947265625 218.4375 301.717773438 173.659179688 c 0
 301.762695312 173.53125 301.802734375 173.400390625 301.837890625 173.267578125 c 0
 304.599609375 162.71875 315.206054688 137.291015625 326.514648438 110.365234375 c 0
 336.051757812 87.65625 346.20703125 64.0615234375 352.80078125 45.7451171875 c 1
 381.602539062 308.091796875 465.450195312 526.579101562 538.24609375 749.55078125 c 0
 538.416992188 750.076171875 538.672851562 750.563476562 538.998046875 750.99609375 c 2
 556.998046875 774.99609375 l 2
 557.91015625 776.211914062 559.36328125 777 561 777 c 0
 563.759765625 777 566 774.759765625 566 772 c 0
 566 770.876953125 565.62890625 769.83984375 565.001953125 769.00390625 c 2
 547.499023438 745.666015625 l 1
 472.415039062 515.775390625 385.59375 290.158203125 359.977539062 17.52734375 c 0
 359.739257812 14.9892578125 357.600585938 13 355 13 c 0
 352.240234375 13 350 15.240234375 350 18 c 0
 350 35.3544921875 299.107421875 144.560546875 292.215820312 170.530273438 c 0
 275.947265625 216.825195312 271.2890625 267.0234375 271.2890625 318.801757812 c 0
 271.2890625 390.94140625 280.286132812 466.130859375 280.286132812 538.340820312 c 0
 280.286132812 579.786132812 277.341796875 620.272460938 268.174804688 658.67578125 c 0
 267.15234375 662.022460938 266.885742188 665.909179688 266.885742188 670.416015625 c 0
 266.885742188 691.67578125 273.5234375 726.708984375 273.5234375 747.942382812 c 0
 273.5234375 761.921875 270.484375 764.185546875 270.137695312 764.185546875 c 0
 268.541992188 764.185546875 262.448242188 761.276367188 252.686523438 750.624023438 c 0
 172.15234375 662.731445312 152.400390625 553.125976562 152.400390625 429.243164062 c 0
 152.400390625 347.7421875 161.188476562 255.315429688 165.991210938 172.29296875 c 0
 165.997070312 172.196289062 166 172.098632812 166 172 c 0
EndSplineSet
EndChar
StartChar: O
Encoding: 79 79 41
Width: 518
Flags: HW
LayerCount: 2
Fore
SplineSet
303.48046875 -3 m 0
 263.75 -3 221.551757812 9 183.48046875 9 c 2
 171.48046875 9 l 2
 170.474609375 9 169.5390625 9.296875 168.754882812 9.80859375 c 0
 71.2578125 73.3759765625 50 175.19140625 50 289.326171875 c 0
 50 368.231445312 59.7373046875 452.966796875 62.48046875 532.087890625 c 1
 62.48046875 578 l 2
 62.48046875 662.805664062 104.217773438 754.58203125 190.546875 770.913085938 c 0
 200.208007812 772.78125 209.53515625 773.672851562 218.545898438 773.672851562 c 0
 310.477539062 773.672851562 363.02734375 681.440429688 363.02734375 592.372070312 c 0
 363.02734375 537.102539062 342.99609375 481.6484375 298.491210938 448.008789062 c 0
 297.653320312 447.375976562 296.610351562 447 295.48046875 447 c 0
 292.720703125 447 290.48046875 449.240234375 290.48046875 452 c 0
 290.48046875 453.629882812 291.26171875 455.078125 292.469726562 455.991210938 c 0
 333.751953125 487.194335938 353.02734375 539.354492188 353.02734375 592.372070312 c 0
 353.02734375 678.721679688 302.427734375 763.672851562 218.545898438 763.672851562 c 0
 210.2109375 763.672851562 201.484375 762.840820312 192.4140625 761.086914062 c 0
 113.08984375 746.08203125 72.48046875 660.528320312 72.48046875 578 c 2
 72.48046875 532 l 2
 72.48046875 531.94140625 72.4794921875 531.8828125 72.4775390625 531.82421875 c 0
 69.7412109375 452.764648438 60 367.830078125 60 289.326171875 c 0
 60 176.594726562 80.75 79.8623046875 172.97265625 19 c 1
 183.48046875 19 l 2
 221.983398438 19 264.252929688 7 303.48046875 7 c 0
 342.0234375 7 378.131835938 64.8916015625 405.462890625 139.44140625 c 0
 439.060546875 231.087890625 458.4140625 342.668945312 458.479492188 375.830078125 c 0
 450.502929688 492.623046875 404.948242188 605.108398438 345.204101562 703.408203125 c 0
 344.745117188 704.1640625 344.48046875 705.051757812 344.48046875 706 c 0
 344.48046875 708.759765625 346.720703125 711 349.48046875 711 c 0
 351.291015625 711 352.87890625 710.03515625 353.755859375 708.591796875 c 0
 414.09765625 609.307617188 460.37890625 495.353515625 468.46875 376.34375 c 0
 468.4765625 376.229492188 468.48046875 376.115234375 468.48046875 376 c 0
 468.48046875 340.641601562 449.01171875 229.173828125 414.854492188 136.00390625 c 0
 387.935546875 62.5751953125 351.244140625 -3 303.48046875 -3 c 0
EndSplineSet
EndChar
StartChar: P
Encoding: 80 80 42
Width: 628
Flags: HW
LayerCount: 2
Fore
SplineSet
237 565 m 0
 237 566.403071337 236.979786696 567.837849864 236.979786696 569.304788358 c 2
 236.979786696 579.304788358 l 2
 236.979786696 589.049829594 237.759303904 603 249 603 c 1
 259 593 l 1
 248.948995646 592.999999945 247.261971639 581.846486753 247.017456943 572.518772553 c 0
 247.88037203 510.937767695 280.745209572 427.105156149 350.807800029 427.092284139 c 0
 448.231049819 427.074385384 574.899510971 509.617668195 574.94533845 615.119995747 c 0
 575.014492055 774.322868537 457.377394186 850.058928161 303.875976637 850.991278273 c 0
 169.623573968 850.648405562 93.2112704224 839.550973725 87 705 c 0
 86.7858819227 700.362163104 86.6496252579 695.719143186 86.5925616634 691.074805004 c 0
 87.1792855587 643.513621303 96.1716898484 596.105071962 115 553 c 1
 105 543 l 1
 85.5126107885 587.613951414 76.5617852158 636.837937115 76.5617852158 686.069780761 c 2
 76.5617852158 696.069780761 l 2
 76.5617852158 702.38295943 76.7089714031 708.696267313 77 715 c 0
 83.3203125 851.913085938 162.328125 861 301 861 c 2
 311 861 l 2
 467.90234375 861 585 783.404296875 585 619 c 2
 585 609 l 2
 585 499.466796875 454.436523438 417 355 417 c 2
 345 417 l 2
 271.111328125 417 237 501.924804688 237 565 c 0
213 190 m 0
 213 185.726555478 213.023885198 181.444829716 213.023885198 176.912760395 c 2
 213.023885198 166.912760395 l 2
 213.023885198 111.802470254 210.029872745 -8 137 -8 c 2
 127 -8 l 2
 83.2605675574 -8 74.8124274187 41.1395262591 51 64 c 1
 43 138 l 1
 53 148 l 1
 61 74 l 1
 84.1040188819 51.8196146209 92.6057983518 5.67896586711 132.173262995 2.20732842758 c 1
 198.297764091 7.60015408657 202.817113688 116.854659749 203.016075413 172.327034357 c 0
 203.016075413 173.008594751 203.010738346 173.677210619 203.010738346 174.332427735 c 0
 203.005194316 176.353553836 203 178.247188597 203 180 c 0
 203 250.900927813 195.503050821 320.578986663 195 390 c 2
 193 666 l 1
 203 676 l 1
 205 400 l 1
 207.65576204 330.621708576 213 260.904859782 213 190 c 0
EndSplineSet
EndChar
StartChar: Q
Encoding: 81 81 43
Width: 482
Flags: HW
LayerCount: 2
Fore
SplineSet
386.372070312 -61 m 0
 386.372070312 -60.3984375 386.41015625 -59.794921875 386.41015625 -59.19921875 c 0
 386.41015625 -29.4658203125 348.224609375 -4.568359375 333.287109375 18.3603515625 c 1
 321.037109375 4.6171875 297.379882812 -2.1435546875 279.653320312 -2.1435546875 c 0
 278.122070312 -2.1435546875 276.612304688 -2.0947265625 275.12890625 -1.9951171875 c 0
 97.4892578125 3.0078125 50 251.985351562 50 396.454101562 c 0
 50 410.473632812 50.44921875 422.546875 50.625 436.513671875 c 0
 52.1357421875 556.663085938 53.5400390625 753.637695312 209.912109375 753.637695312 c 0
 214.861328125 753.637695312 219.956054688 753.4375 225.200195312 753.029296875 c 0
 235.1015625 754.4765625 244.608398438 755.17578125 253.733398438 755.17578125 c 0
 387.765625 755.17578125 432.223632812 606.118164062 432.223632812 487.368164062 c 0
 432.223632812 473.102539062 431.58984375 459.200195312 430.38671875 445.9375 c 0
 431.459960938 429.712890625 432.043945312 412.66796875 432.043945312 395.081054688 c 0
 432.043945312 265.72265625 400.684570312 105.63671875 296.276367188 30.9306640625 c 0
 295.458007812 30.3447265625 294.455078125 30 293.372070312 30 c 0
 290.612304688 30 288.372070312 32.240234375 288.372070312 35 c 0
 288.372070312 36.6767578125 289.19921875 38.162109375 290.466796875 39.0693359375 c 0
 390.1640625 110.404296875 422.043945312 266.63671875 422.043945312 395.081054688 c 0
 422.043945312 412.583984375 421.45703125 429.543945312 420.3828125 445.663085938 c 0
 420.375 445.774414062 420.372070312 445.88671875 420.372070312 446 c 0
 420.372070312 446.155273438 420.37890625 446.309570312 420.392578125 446.4609375 c 0
 421.58984375 459.528320312 422.223632812 473.265625 422.223632812 487.368164062 c 0
 422.223632812 605.919921875 377.915039062 745.17578125 253.733398438 745.17578125 c 0
 244.96484375 745.17578125 235.762695312 744.490234375 226.112304688 743.0546875 c 0
 225.87109375 743.018554688 225.623046875 743 225.372070312 743 c 0
 220.063476562 743 214.877929688 743.637695312 209.912109375 743.637695312 c 0
 65.55859375 743.637695312 62.1826171875 560.330078125 60.6240234375 436.385742188 c 0
 60.44921875 422.470703125 60 410.422851562 60 396.454101562 c 0
 60 250.713867188 108.928710938 12.599609375 275.51171875 7.998046875 c 0
 276.860351562 7.9609375 278.231445312 7.8564453125 279.653320312 7.8564453125 c 0
 298.80078125 7.8564453125 320.025390625 16.4404296875 328.0703125 28.529296875 c 0
 326.700195312 32.2744140625 325.918945312 36.1494140625 325.918945312 40.1904296875 c 0
 325.918945312 45.0654296875 327.30859375 56 333.372070312 56 c 0
 335.352539062 56 337.06640625 54.845703125 337.875 53.1728515625 c 0
 340.244140625 48.27734375 341.405273438 43.44140625 341.405273438 38.76953125 c 0
 341.405273438 34.939453125 340.69140625 31.3828125 339.395507812 28.09765625 c 0
 353.482421875 1.5615234375 396.41015625 -21.48828125 396.41015625 -59.19921875 c 0
 396.41015625 -99.8671875 363.450195312 -116.924804688 347.676757812 -143.543945312 c 0
 346.805664062 -145.013671875 345.203125 -146 343.372070312 -146 c 2
 271.372070312 -146 l 2
 268.612304688 -146 266.372070312 -143.759765625 266.372070312 -141 c 0
 266.372070312 -138.240234375 268.612304688 -136 271.372070312 -136 c 2
 340.578125 -136 l 1
 346.087890625 -127.362304688 352.903320312 -119.879882812 359.48046875 -112.6171875 c 0
 373.732421875 -96.8828125 386.372070312 -82.6689453125 386.372070312 -61 c 0
EndSplineSet
EndChar
StartChar: R
Encoding: 82 82 44
Width: 658
Flags: HW
LayerCount: 2
Fore
SplineSet
261.743972603 503.96891347 m 2
 261.743972603 513.853180874 263.266957306 522.959765302 269.637025615 522.959765302 c 2
 279.637025615 522.959765302 l 2
 296.093209059 522.959765302 333.134667934 468.577563538 337.94921875 449 c 0
 346.052045072 429.568346136 351.677613189 409.619887267 355.713665509 389.339447096 c 1
 429.156828469 407.328236363 509.405110411 478.436049173 511.890009369 549.617432263 c 0
 509.558791277 679.247363221 438.226653407 779 269.94921875 779 c 0
 262.250582119 780.114351068 254.902914697 780.761548729 247.889510202 780.971752922 c 0
 126.580114517 777.204480048 112.436756743 634.665171758 105.94921875 533 c 1
 95.94921875 543 l 1
 102.524055637 646.033218792 116.9621381 791.048012701 242.845130429 791.048012701 c 2
 252.845130429 791.048012701 l 2
 261.359327509 791.048012701 270.383340658 790.384627786 279.94921875 789 c 0
 451.079101562 789 521.94921875 685.836914062 521.94921875 553 c 2
 521.94921875 543 l 2
 521.94921875 468.158846647 434.475989049 392.469848663 357.86988927 377.616832093 c 1
 369.416964871 309.495324316 365.21833701 238.391704917 377.94921875 171 c 0
 388.00942983 117.744587961 420.372551491 12.7135396709 486.513735678 7.22397575759 c 1
 523.74457009 10.8901974907 547.713106777 58.2409675575 573.94921875 79 c 1
 585.94921875 107 l 1
 595.94921875 97 l 1
 583.94921875 69 l 1
 557.247654111 47.872683301 531.80133901 -3 491.94921875 -3 c 2
 481.94921875 -3 l 2
 412.137695312 -3 378.28125 106.305664062 367.94921875 161 c 0
 354.658075887 231.357481604 359.739969424 305.52606571 346.393156525 375.843771152 c 1
 341.502727246 375.286898061 336.679088056 375 331.94921875 375 c 2
 321.94921875 375 l 1
 286.458747159 399.483739115 261.743972603 448.945579232 261.743972603 493.96891347 c 2
 261.743972603 503.96891347 l 2
275.411287607 511.27936029 m 0
 273.315456157 509.227152783 272.081603715 504.651407616 271.845623475 498.933259858 c 0
 273.586409285 455.530959699 297.526884946 409.059311768 331.417606966 385.369169982 c 0
 335.601462785 385.689666199 339.842056063 386.216059494 344.121978608 386.937429541 c 1
 340.230801477 404.604663924 335.03802284 422.000106147 327.94921875 439 c 0
 323.637878103 456.531343768 293.484201542 501.972071544 275.411287607 511.27936029 c 0
243.536478771 181.465656269 m 0
 243.40994265 208.218409512 241.94921875 230.22481284 241.94921875 253 c 0
 241.94921875 386.091697316 203.458742249 515.87241437 185.224769431 639.928854765 c 1
 186.132919204 646.285903176 187.041068977 652.642951588 187.94921875 659 c 1
 197.94921875 649 l 1
 196.678167979 640.1026446 l 1
 214.85146541 519.4998124 251.94921875 392.645365716 251.94921875 263 c 0
 251.94921875 238.451689073 253.548536487 215.557726792 253.548536487 186.417620445 c 2
 253.548536487 176.417620445 l 2
 253.548536487 92.6788552265 243.397664633 -21 171.94921875 -21 c 2
 161.94921875 -21 l 2
 131.256598714 -21 84.7431629039 10.5157581449 77.0457044556 43.712621209 c 1
 73.7773289261 40.3653176445 72.2723270799 38.9449100567 72.0732583915 38.9449100567 c 2
 62.0502930581 38.9701138127 l 1
 62.0502930581 48.9701138127 l 2
 62.0502930581 50.1675082982 100.928333228 93.6297241016 101.259102783 93.6297241016 c 2
 111.261225428 93.6297241016 l 1
 111.261225428 83.6273377391 l 2
 111.261225428 83.4790456643 105.113428952 76.4001470827 87.94921875 57 c 1
 87.6221744413 57.3270443087 l 1
 87.2651251052 56.9220044743 86.9099413268 56.5187584466 86.5571249339 56.1178618605 c 0
 92.2061871324 23.6820271352 136.023626494 -7.83958064001 167.337248684 -10.7771927718 c 1
 232.574833418 -5.28928634605 243.13826616 100.451734675 243.536478771 181.465656269 c 0
EndSplineSet
EndChar
StartChar: S
Encoding: 83 83 45
Width: 502
Flags: HW
LayerCount: 2
Fore
SplineSet
340 711 m 2
 340 601.451613551 299.294541146 524.66649283 257.805496678 443.958138558 c 1
 271.542224544 433.3741917 285.605092721 423.092307353 299.637121595 412.832970765 c 0
 386.40819621 349.39142082 472 286.812079499 472 159 c 2
 472 149 l 2
 472 65.529296875 402.63671875 -29 312 -29 c 2
 302 -29 l 2
 234.731445312 -29 200 109.380859375 200 157 c 2
 200 167 l 2
 200 214.110043719 222.350873917 231.599867051 248.886710919 231.599867051 c 2
 258.886710919 231.599867051 l 2
 297.64890963 231.599867051 345.34093147 194.28029559 345.34093147 157.450732808 c 2
 345.34093147 147.450732808 l 2
 345.34093147 131.522693196 336.420676628 115.686304182 314 103 c 1
 304 103 l 2
 277.323242188 103 258 121 258 121 c 1
 268 131 l 1
 268.000000188 130.999999678 283.149811082 116.887637299 305.139929821 113.65447005 c 1
 324.444777592 124.901114339 333.376767497 138.541750189 335.047641322 152.498493413 c 0
 331.185187398 186.017882114 289.891950417 218.5102869 253.972615655 221.392623 c 0
 230.652232422 219.388128719 211.629438227 202.639412775 210.09930503 162.335387745 c 0
 212.135486718 111.97210602 245.464621467 -13.9389240624 308.204529045 -18.851986483 c 1
 394.273176888 -14.7401975991 459.710318014 74.2942980673 461.941182689 154.772705882 c 0
 459.402518051 278.711194862 375.091698979 340.353960758 289.637121595 402.832970765 c 0
 276.793870768 412.223147645 263.92478464 421.632213673 251.303583442 431.274491572 c 1
 225.547170963 380.826070417 200.059798341 327.725919518 184 263 c 0
 181.86535884 254.396546549 179.768207708 245.677622951 177.655465279 236.893878404 c 0
 155.094267424 143.095507175 130.755144539 41.9053975705 40 -5 c 1
 40 -11 l 1
 30 -1 l 1
 30 5 l 1
 120.755144539 51.9053975705 145.094267424 153.095507175 167.655465279 246.893878404 c 0
 169.768207708 255.677622951 171.86535884 264.396546549 174 273 c 0
 189.888463349 337.035386881 215.004416644 389.69174244 240.479334597 439.658938549 c 1
 170.012890134 495.067232687 110 559.912612875 110 673 c 2
 110 683 l 2
 110 784.380859375 137.267578125 789 242 789 c 2
 252 789 l 2
 300.170898438 789 340 775.840820312 340 721 c 2
 340 711 l 2
329.949764292 714.330077642 m 0
 328.384477274 765.531486114 290.442565451 778.579759458 244.29125979 778.989904853 c 0
 147.832983874 778.714112457 121.03472594 772.111095453 120.029702436 678.658569286 c 0
 121.520813294 570.087383035 178.954713294 506.498942863 247.006805998 452.404125897 c 1
 287.847655553 531.886313053 328.338460335 607.660356607 329.949764292 714.330077642 c 0
EndSplineSet
EndChar
StartChar: T
Encoding: 84 84 46
Width: 482
Flags: W
HStem: 779 10<71.7126 125.654>
VStem: 50 10<733.256 768.624> 273 10<42.0052 69> 375 10<26.7287 692>
LayerCount: 2
Fore
SplineSet
348 4 m 0
 360 7 368 23 375 35 c 1
 375 691 l 1
 375 692 l 1
 368 690 360 689 352 689 c 2
 342 689 l 2
 303 689 256 713 211 736 c 0
 170 757 131 778 99 779 c 0
 76 778 62 774 60 757 c 0
 60 755 61 753 61 751 c 0
 68 713 80 675 105 655 c 1
 95 645 l 1
 70 665 58 703 51 741 c 0
 50 745 50 749 50 752 c 2
 50 762 l 2
 50 784 66 789 95 789 c 2
 105 789 l 2
 137 789 179 768 221 746 c 0
 264 724 309 701 347 699 c 0
 358 700 368 702 378 707 c 1
 387 763 l 2
 389 777 396 784 403 784 c 2
 413 784 l 2
 420 784 427 778 431 765 c 2
 433 760 l 1
 431 755 l 2
 420 725 406 706 388 697 c 1
 385 681 l 1
 385 25 l 1
 377 11 368 -7 353 -7 c 2
 343 -7 l 2
 338 -7 333 -5 327 -1 c 0
 308 12 293 22 273 35 c 1
 273 50 273 64 273 79 c 1
 283 69 l 1
 283 45 l 1
 303 32 318 22 337 9 c 0
 341 6 345 5 348 4 c 0
419 760 m 1
 416 767 412 771 408 773 c 0
 403 770 399 764 397 753 c 2
 391 717 l 1
 402 727 411 740 419 760 c 1
EndSplineSet
EndChar
StartChar: U
Encoding: 85 85 47
Width: 783
Flags: HW
LayerCount: 2
Fore
SplineSet
283.504882812 385.3125 m 0
 283.504882812 482.174804688 305 576.456054688 305 673 c 0
 305 722.547851562 277.895507812 753.204101562 254.317382812 753.204101562 c 0
 240.39453125 753.204101562 225.100585938 743.006835938 214.682617188 715.245117188 c 0
 205.524414062 690.837890625 184.184570312 680.501953125 160.831054688 680.501953125 c 0
 114.682617188 680.501953125 56.244140625 719.353515625 50.037109375 770.391601562 c 0
 50.037109375 770.590820312 50 770.793945312 50 771 c 0
 50 773.759765625 52.240234375 776 55 776 c 0
 57.5537109375 776 59.662109375 774.08203125 59.962890625 771.608398438 c 0
 65.3681640625 727.168945312 118.932617188 690.501953125 160.831054688 690.501953125 c 0
 181.305664062 690.501953125 197.859375 698.879882812 205.317382812 718.754882812 c 0
 216.499023438 748.552734375 234.751953125 763.204101562 254.317382812 763.204101562 c 0
 286.50390625 763.204101562 315 724.959960938 315 673 c 0
 315 576.104492188 293.504882812 481.82421875 293.504882812 385.3125 c 0
 293.504882812 364.864257812 294.862304688 346.083984375 296.139648438 325.94140625 c 0
 301.0859375 247.916992188 315.875 4 408 4 c 0
 481.793945312 4 531.520507812 61.427734375 562.557617188 146.705078125 c 1
 537.2890625 231.622070312 528.130859375 330.848632812 528.130859375 430.888671875 c 0
 528.130859375 554.990234375 542.32421875 680.500976562 558.059570312 781.772460938 c 0
 558.431640625 784.166015625 560.502929688 786 563 786 c 0
 565.123046875 786 566.938476562 784.673828125 567.6640625 782.805664062 c 0
 595.577148438 710.83203125 615.037109375 579.6875 615.037109375 444.537109375 c 0
 615.037109375 339.533203125 603.275390625 230.487304688 573.286132812 145.98046875 c 1
 585.22265625 106.71875 600.651367188 70.80078125 620.236328125 39.65625 c 0
 632.96484375 19.4130859375 652.059570312 10.2421875 675.9609375 10.2421875 c 0
 686.059570312 10.2421875 697.047851562 11.9296875 708.662109375 15.236328125 c 1
 723.655273438 41.4755859375 l 2
 724.517578125 42.9833984375 726.140625 44 728 44 c 0
 730.759765625 44 733 41.759765625 733 39 c 0
 733 38.099609375 732.76171875 37.2548828125 732.344726562 36.5244140625 c 2
 716.344726562 8.5244140625 l 2
 715.712890625 7.419921875 714.671875 6.578125 713.428710938 6.2080078125 c 0
 700.362304688 2.3115234375 687.801757812 0.2421875 675.9609375 0.2421875 c 0
 649.279296875 0.2421875 626.426757812 11.025390625 611.763671875 34.34375 c 0
 593.706054688 63.0615234375 579.1484375 95.5302734375 567.5625 130.720703125 c 1
 535.24609375 49.16015625 484.227539062 -6 408 -6 c 0
 360.983398438 -6 333.64453125 45.33984375 316.696289062 105.428710938 c 0
 295.21875 181.580078125 289.203125 277.296875 286.159179688 325.299804688 c 0
 284.86328125 345.735351562 283.504882812 364.629882812 283.504882812 385.3125 c 0
605.037109375 444.537109375 m 0
 605.037109375 567.518554688 588.580078125 687.506835938 564.944335938 760.506835938 c 1
 550.50390625 663.251953125 538.130859375 546.307617188 538.130859375 430.888671875 c 0
 538.130859375 336.80078125 546.411132812 243.818359375 568.279296875 163.3828125 c 1
 594.09375 243.25390625 605.037109375 344.16796875 605.037109375 444.537109375 c 0
EndSplineSet
EndChar
StartChar: V
Encoding: 86 86 48
Width: 793
Flags: HW
LayerCount: 2
Fore
SplineSet
730.509345856 663.271298211 m 0
 728.098342611 703.443844355 696.728952646 737.858143663 673.483291318 767.816317397 c 1
 441.206395837 759.075759104 421.164498265 440.306909834 407.451818405 222.205047798 c 0
 403.516147086 159.607710744 400.101842125 105.302769836 392.340820312 69 c 0
 387.330397714 45.5638977736 381.286684988 35.1687436938 374.506189178 35.1687436938 c 2
 364.506189178 35.1687436938 l 2
 315.913288787 35.1687436938 229.479407491 569.061060167 214.340820312 663 c 0
 208.391309765 706.737337784 187.473842944 759.136439264 157.469435504 788.87272806 c 1
 100.833373767 784.634209617 66.1348716396 720.515366686 62.3408203125 678 c 1
 52.3408203125 688 l 1
 56.2660626393 731.985466317 93.2699394398 799.094252271 153.422851618 799.094252271 c 2
 163.422851618 799.094252271 l 2
 164.718140447 799.094252271 166.024163059 799.063135157 167.340820312 799 c 0
 197.4140625 769.286132812 218.3828125 716.799804688 224.340820312 673 c 0
 238.954588078 582.317703516 320.006053762 81.6575831529 369.32049255 47.0531384226 c 1
 374.166589796 50.999450924 378.5495199 61.2663054274 382.340820312 79 c 0
 390.101842125 115.302769836 393.516147086 169.607710744 397.451818405 232.205047798 c 0
 411.356025706 453.353177381 431.767488059 778 673.340820312 778 c 2
 683.340820312 778 l 1
 707.418345998 746.945111298 740.659885261 710.735669366 740.659885261 668.263503819 c 2
 740.659885261 658.263503819 l 2
 740.659885261 655.865196574 740.555957905 653.444247049 740.340820312 651 c 0
 735.817427509 599.614219346 747.561858945 549 683.340820312 549 c 2
 673.340820312 549 l 2
 623.086604234 549 619.044466725 568.219344201 614.376896771 590.412461908 c 0
 611.81177335 602.608976702 609.05775719 615.703628827 598.340820312 627 c 1
 608.340820312 637 l 1
 619.05775719 625.703628827 621.81177335 612.608976702 624.376896771 600.412461908 c 0
 628.865974332 579.068033752 632.776539231 560.474284119 677.775633603 559.083412813 c 0
 737.036520982 561.36901223 725.945653256 611.070864916 730.340820312 661 c 0
 730.407655726 661.759341349 730.463758202 662.516434209 730.509345856 663.271298211 c 0
EndSplineSet
EndChar
StartChar: W
Encoding: 87 87 49
Width: 875
Flags: HW
LayerCount: 2
Fore
SplineSet
256 709 m 0
 258.450195312 709 261.030273438 707.796875 263.25390625 707.796875 c 0
 270.959960938 707.796875 278.5234375 713.522460938 285.53515625 723.162109375 c 0
 294.158203125 735.016601562 300.986328125 751.431640625 305.78515625 763.083984375 c 0
 308.356445312 769.328125 309.469726562 773.712890625 312.750976562 777.668945312 c 0
 313.287109375 778.314453125 314.549804688 780.125 317.53515625 780.125 c 0
 323.081054688 780.125 323.399414062 774.625 323.490234375 774.145507812 c 0
 323.920898438 771.858398438 324.036132812 768.98046875 324.036132812 764.771484375 c 0
 324.036132812 763.5859375 324.0234375 762.30078125 323.999023438 760.91015625 c 0
 320.002929688 535.676757812 243 324.298828125 243 98 c 0
 243 50.294921875 250.706054688 26.7373046875 270.865234375 14.435546875 c 0
 287.403320312 4.3447265625 314.161132812 1 355 1 c 0
 407.36328125 1 420.3046875 18.796875 437.864257812 41.4619140625 c 0
 447.412109375 53.78515625 458.204101562 67.732421875 476.475585938 80.0048828125 c 1
 494.0859375 173.92578125 l 2
 494.520507812 176.243164062 496.556640625 178 499 178 c 0
 501.721679688 178 503.938476562 175.8203125 503.999023438 173.11328125 c 2
 506.984375 38.7548828125 l 1
 514.137695312 13.5146484375 520.30859375 -11.9736328125 542.752929688 -11.9736328125 c 0
 547.500976562 -11.9736328125 553.290039062 -10.904296875 560.258789062 -8.3115234375 c 0
 560.712890625 -8.142578125 561.198242188 -8.0380859375 561.703125 -8.0087890625 c 0
 726.146484375 1.6279296875 756.1796875 173.446289062 756.1796875 336.90625 c 0
 756.1796875 400.799804688 751.935546875 455.534179688 749.006835938 511.736328125 c 0
 748.854492188 514.66796875 748.262695312 520.379882812 747.249023438 528.208007812 c 1
 737.756835938 528.565429688 727.290039062 529.29296875 717.90234375 529.29296875 c 0
 711.671875 529.29296875 705.84765625 528.967773438 700.88671875 528.078125 c 0
 692.127929688 526.508789062 683.33203125 525.743164062 674.61328125 525.743164062 c 0
 607.918945312 525.743164062 545.254882812 570.907226562 542.004882812 643.7734375 c 0
 542.001953125 643.848632812 542 643.923828125 542 644 c 0
 542 695.528320312 582.139648438 793 655 793 c 0
 669.911132812 793 682.133789062 781.345703125 692.416015625 765.231445312 c 0
 705.461914062 744.787109375 716.461914062 715.274414062 725.70703125 683.413085938 c 0
 740.974609375 630.798828125 751.297851562 571.990234375 756.049804688 538.002929688 c 0
 756.141601562 538.002929688 756.233398438 538.000976562 756.325195312 538.000976562 c 0
 760.477539062 539.841796875 776.662109375 550.42578125 783.974609375 555.005859375 c 1
 816.638671875 584.700195312 l 2
 817.526367188 585.5078125 818.706054688 586 820 586 c 0
 822.759765625 586 825 583.759765625 825 581 c 0
 825 579.534179688 824.368164062 578.21484375 823.361328125 577.299804688 c 2
 790.361328125 547.299804688 l 2
 788.8125 545.891601562 786.764648438 544.932617188 783.837890625 543.05078125 c 0
 777.123046875 538.73046875 768.873046875 533.108398438 761.639648438 529.458984375 c 0
 760.3828125 528.82421875 759.646484375 528.080078125 757.379882812 528.005859375 c 1
 759.701171875 509.510742188 759.7578125 498.001953125 760.87890625 478.685546875 c 0
 763.33203125 436.423828125 766.1796875 387.3828125 766.1796875 336.90625 c 0
 766.1796875 174.764648438 736.6796875 -7.2607421875 563.036132812 -17.947265625 c 0
 555.5234375 -20.6708984375 548.827148438 -21.9736328125 542.752929688 -21.9736328125 c 0
 510.776367188 -21.9736328125 504.025390625 12.630859375 497.190429688 36.6298828125 c 0
 497.076171875 37.0302734375 497.010742188 37.4521484375 497.000976562 37.88671875 c 2
 495.067382812 124.892578125 l 1
 485.9140625 76.07421875 l 2
 485.657226562 74.705078125 484.841796875 73.5322265625 483.713867188 72.80078125 c 0
 465.827148438 61.2109375 455.6484375 48.08984375 445.7734375 35.3447265625 c 0
 427.84375 12.2021484375 410.5703125 -9 355 -9 c 0
 313.880859375 -9 285.310546875 -6.0927734375 265.66796875 5.892578125 c 0
 240.6015625 21.1884765625 233 49.9541015625 233 98 c 0
 233 323.600585938 308.994140625 533.6484375 313.91015625 756.55078125 c 1
 309.15625 745.037109375 302.546875 729.551757812 293.626953125 717.288085938 c 0
 286.0234375 706.833984375 276.092773438 697.796875 263.262695312 697.791992188 c 0
 262.997070312 697.791992188 257.765625 698.241210938 255.216796875 699.004882812 c 0
 221.057617188 699.412109375 203.524414062 726.467773438 189.1875 748.118164062 c 0
 176.947265625 766.6015625 167.221679688 780 154 780 c 0
 118.80078125 780 115.634765625 774.565429688 104.465820312 761.69140625 c 0
 99.87890625 756.404296875 94.140625 749.791992188 85.244140625 742.196289062 c 0
 73.685546875 732.328125 68.6884765625 720.4921875 58.6796875 709.616210938 c 0
 57.765625 708.623046875 56.455078125 708 55 708 c 0
 52.240234375 708 50 710.240234375 50 713 c 0
 50 714.3046875 50.5009765625 715.493164062 51.3203125 716.383789062 c 0
 61.482421875 727.427734375 66.0576171875 738.962890625 78.755859375 749.803710938 c 0
 87.0986328125 756.926757812 92.3310546875 762.9609375 96.91015625 768.239257812 c 0
 108.873046875 782.029296875 117.336914062 790 154 790 c 0
 174.298828125 790 186.041992188 770.978515625 197.53125 753.62890625 c 0
 212.400390625 731.17578125 227.474609375 709 256 709 c 0
717.90234375 539.29296875 m 0
 727.12890625 539.29296875 736.76171875 538.6484375 745.875 538.271484375 c 1
 741.059570312 571.98046875 730.875 629.712890625 716.1015625 680.625 c 0
 706.9921875 712.01953125 696.081054688 740.899414062 683.979492188 759.86328125 c 0
 674.145507812 775.276367188 664.180664062 783 655 783 c 0
 591.8203125 783 552.060546875 693.74609375 552 644.11328125 c 0
 555.028320312 577.612304688 612.125 535.743164062 674.61328125 535.743164062 c 0
 689.198242188 535.743164062 702.717773438 539.29296875 717.90234375 539.29296875 c 0
EndSplineSet
EndChar
StartChar: X
Encoding: 88 88 50
Width: 896
Flags: HW
LayerCount: 2
Fore
SplineSet
110.4375 528.05078125 m 0
 110.4375 526.252929688 111 525.5078125 111 524 c 0
 111 521.240234375 108.759765625 519 106 519 c 0
 101.59375 519 100.4375 523.58984375 100.4375 528.05078125 c 0
 100.4375 529.583007812 100.587890625 531.151367188 100.866210938 532.771484375 c 0
 88.87109375 575.337890625 85.97265625 616.470703125 85.97265625 663.622070312 c 0
 85.97265625 673.073242188 86 682.381835938 86 692 c 0
 86 692.440429688 86.056640625 692.8671875 86.1640625 693.2734375 c 0
 95.7958984375 729.901367188 136.567382812 756.549804688 170.306640625 768.706054688 c 0
 196.578125 778.169921875 223.975585938 781 253 781 c 0
 283.725585938 781 303.669921875 776.134765625 317.700195312 767.438476562 c 0
 335.322265625 756.517578125 342.48046875 740.158203125 349.858398438 723.61328125 c 0
 357.537109375 706.39453125 365.580078125 688.395507812 385.221679688 671.823242188 c 0
 386.137695312 671.049804688 386.772460938 669.954101562 386.94921875 668.711914062 c 2
 398.94921875 584.711914062 l 2
 398.982421875 584.479492188 399 584.2421875 399 584 c 0
 399 583.920898438 398.998046875 583.842773438 398.994140625 583.764648438 c 2
 392.994140625 454.764648438 l 2
 392.970703125 454.251953125 392.870117188 453.759765625 392.703125 453.299804688 c 2
 343.896484375 318.500976562 l 1
 374.990234375 336.208007812 406.018554688 354.00390625 436.206054688 372.48828125 c 0
 436.12890625 375.8203125 436.08984375 379.146484375 436.08984375 382.463867188 c 0
 436.08984375 391.765625 436.392578125 401.01171875 437 410.168945312 c 0
 437.02734375 557.045898438 473.111328125 802 682 802 c 0
 689.90625 802 699.883789062 803.805664062 709.03515625 803.805664062 c 0
 719.2578125 803.805664062 735 802.149414062 735 788 c 0
 735 776.825195312 735.95703125 764.602539062 735.95703125 753.249023438 c 0
 735.95703125 747.40625 735.716796875 741.689453125 734.950195312 736.291992188 c 0
 709.404296875 556.400390625 586.193359375 453.16015625 446.373046875 366.96484375 c 1
 452.16015625 208.001953125 546.48828125 39.4658203125 712.258789062 30.9931640625 c 0
 720.978515625 30.5478515625 729.475585938 30.2607421875 737.657226562 30.2607421875 c 0
 763.422851562 30.2607421875 785.885742188 33.2001953125 802.491210938 42.3935546875 c 0
 822.640625 53.5478515625 835.66796875 74.232421875 835.994140625 114.448242188 c 1
 830.251953125 119.5546875 805.6328125 134.057617188 794.1796875 141.233398438 c 1
 759.172851562 147.068359375 l 2
 756.806640625 147.462890625 755 149.522460938 755 152 c 0
 755 154.759765625 757.240234375 157 760 157 c 0
 760.28125 157 760.557617188 156.9765625 760.827148438 156.931640625 c 2
 796.827148438 150.931640625 l 2
 797.508789062 150.818359375 798.14453125 150.56640625 798.703125 150.206054688 c 0
 808.69921875 143.763671875 822.36328125 136.075195312 833.080078125 128.948242188 c 0
 837.885742188 125.751953125 841.421875 123.774414062 844.377929688 120.135742188 c 0
 844.90234375 119.490234375 846 118.455078125 846 116 c 0
 846 72.580078125 831.543945312 47.0458984375 807.32421875 33.638671875 c 0
 788.229492188 23.0673828125 764.067382812 20.2607421875 737.657226562 20.2607421875 c 0
 729.23828125 20.2607421875 720.573242188 20.5546875 711.741210938 21.0068359375 c 0
 540.37890625 29.765625 444.538085938 200.895507812 436.623046875 360.997070312 c 1
 404.413085938 341.416992188 371.430664062 322.66015625 338.649414062 304.0078125 c 1
 329.703125 279.299804688 l 2
 329.63671875 279.1171875 329.560546875 278.940429688 329.474609375 278.768554688 c 2
 281.474609375 182.768554688 l 2
 281.299804688 182.416992188 281.083984375 182.08984375 280.833984375 181.791015625 c 0
 269.723632812 168.53515625 256.8046875 144.959960938 242.365234375 118.423828125 c 0
 207.772460938 54.8525390625 162.9921875 -30 100 -30 c 0
 84.658203125 -30 74.23046875 -10.7275390625 66.564453125 7.923828125 c 0
 56.4619140625 32.5068359375 50 61.74609375 50 74 c 0
 50 74.3974609375 50.046875 74.7841796875 50.134765625 75.1552734375 c 0
 57.251953125 105.202148438 74.21875 135.466796875 99.69921875 158.754882812 c 0
 165.9453125 217.04296875 247.915039062 263.885742188 330.499023438 310.875976562 c 1
 383.041015625 455.9921875 l 1
 388.983398438 583.7578125 l 1
 377.315429688 665.431640625 l 1
 356.915039062 683.201171875 348.208007812 702.7578125 340.720703125 719.548828125 c 0
 333.229492188 736.345703125 327.05859375 749.874023438 312.443359375 758.932617188 c 0
 300.68359375 766.220703125 282.736328125 771 253 771 c 0
 224.620117188 771 198.46875 768.220703125 173.693359375 759.293945312 c 0
 141.450195312 747.677734375 104.524414062 722.258789062 96 691.334960938 c 0
 95.9990234375 681.953125 95.97265625 672.841796875 95.97265625 663.622070312 c 0
 95.97265625 616.780273438 98.8828125 576.133789062 110.80859375 534.374023438 c 0
 110.93359375 533.9375 111 533.4765625 111 533 c 0
 111 531.330078125 110.4375 529.323242188 110.4375 528.05078125 c 0
725 788 m 0
 725 791.26953125 720.98046875 793.805664062 709.03515625 793.805664062 c 0
 700.189453125 793.805664062 690.224609375 792 682 792 c 0
 483.818359375 792 447 558.154296875 447 410 c 0
 447 409.88671875 446.99609375 409.774414062 446.98828125 409.662109375 c 0
 446.388671875 400.678710938 446.08984375 391.600585938 446.08984375 382.463867188 c 0
 446.08984375 381.17578125 446.095703125 379.88671875 446.107421875 378.596679688 c 1
 582.91015625 463.627929688 700.432617188 564.354492188 725.049804688 737.708007812 c 0
 725.71875 742.416992188 725.95703125 747.69140625 725.95703125 753.249023438 c 0
 725.95703125 764.485351562 725 776.697265625 725 788 c 0
100 -20 m 0
 154.265625 -20 198.020507812 57.8525390625 233.575195312 123.192382812 c 0
 247.885742188 149.4921875 260.62890625 173.07421875 272.784179688 187.75 c 1
 320.395507812 282.97265625 l 1
 325.25 296.380859375 l 1
 246.188476562 251.336914062 168.788085938 206.227539062 106.30078125 151.245117188 c 0
 82.5517578125 129.540039062 66.74609375 101.34765625 60.0068359375 73.4345703125 c 0
 60.23828125 63.3291015625 66.43359375 34.5537109375 75.818359375 11.7197265625 c 0
 83.888671875 -7.916015625 93.6484375 -20 100 -20 c 0
EndSplineSet
EndChar
StartChar: Y
Encoding: 89 89 51
Width: 699
Flags: HW
LayerCount: 2
Fore
SplineSet
256.923828125 630.810546875 m 0
 256.923828125 662.6484375 258.388671875 688.26171875 258.388671875 716.452148438 c 0
 258.388671875 744.927734375 254.739257812 752.015625 250.806640625 752.015625 c 0
 247.50390625 752.015625 240.09765625 748.721679688 228.912109375 740.0390625 c 0
 215.098632812 729.31640625 195.802734375 711.26953125 169.502929688 685.43359375 c 0
 168.600585938 684.546875 167.36328125 684 166 684 c 0
 110.4609375 684 50 702.625 50 773 c 2
 50 779 l 2
 50 781.759765625 52.240234375 784 55 784 c 0
 57.759765625 784 60 781.759765625 60 779 c 2
 60 773 l 2
 60 711.926757812 110.170898438 694.43359375 163.965820312 694.0078125 c 1
 189.614257812 719.172851562 208.5546875 736.893554688 222.788085938 747.942382812 c 0
 234.256835938 756.844726562 242.868164062 762.015625 250.806640625 762.015625 c 0
 267.461914062 762.015625 268.388671875 740.716796875 268.388671875 716.452148438 c 0
 268.388671875 688.266601562 266.923828125 662.506835938 266.923828125 630.810546875 c 0
 266.923828125 626.331054688 266.947265625 621.74609375 267 617 c 0
 267 616.932617188 266.999023438 616.866210938 266.99609375 616.798828125 c 0
 266.150390625 595.424804688 265.401367188 574.0625 265.401367188 552.98828125 c 0
 265.401367188 476.170898438 275.387695312 403.678710938 325.729492188 347.329101562 c 0
 329.4140625 343.204101562 332.749023438 339.314453125 335.858398438 335.688476562 c 0
 355.482421875 312.803710938 365.04296875 301 400 301 c 0
 400.336914062 301 400.666015625 300.966796875 400.985351562 300.903320312 c 0
 410.359375 299.02734375 419.721679688 298.1328125 428.9921875 298.1328125 c 0
 481.895507812 298.1328125 532.202148438 327.389648438 564.049804688 370.0859375 c 1
 563.091796875 376.024414062 l 1
 539.342773438 476.95703125 l 1
 530.240234375 490.82421875 528.1953125 518.573242188 527.017578125 532.576171875 c 0
 525.233398438 553.791015625 522.735351562 575.791992188 522.735351562 598.125976562 c 0
 522.735351562 619.702148438 525.087890625 641.491210938 532.874023438 662.5703125 c 0
 532.368164062 666.459960938 532.114257812 670.52734375 532.114257812 674.693359375 c 0
 532.114257812 705.790039062 546.872070312 746.872070312 584.484375 746.877929688 c 0
 584.893554688 746.877929688 593.942382812 746.200195312 598.633789062 745.002929688 c 0
 607.256835938 745.075195312 616.561523438 746.70703125 625.141601562 746.70703125 c 0
 630.154296875 746.70703125 635.14453125 746.172851562 639.478515625 743.541992188 c 0
 645.201171875 740.067382812 648 733.586914062 648 725 c 0
 648 705.858398438 649.967773438 685.34765625 649.967773438 665.98828125 c 0
 649.967773438 656.110351562 649.47265625 646.409179688 647.931640625 637.172851562 c 0
 634.080078125 554.122070312 637.014648438 475.225585938 596.502929688 407.78515625 c 0
 590.904296875 393.578125 583.491210938 380.048828125 574.590820312 367.541992188 c 1
 585.954101562 299.848632812 595.915039062 230.752929688 605.947265625 161.729492188 c 0
 605.963867188 161.612304688 605.977539062 161.493164062 605.986328125 161.374023438 c 2
 611.986328125 80.3740234375 l 2
 611.995117188 80.25 612 80.1259765625 612 80 c 2
 612 47 l 2
 612 46.1923828125 611.80859375 45.4296875 611.467773438 44.75390625 c 0
 589.7734375 1.7216796875 524.4765625 3.9443359375 481.110351562 3.0009765625 c 0
 479.594726562 2.96875 478.0859375 2.9521484375 476.584960938 2.9521484375 c 0
 395.016601562 2.9521484375 335 52.12890625 335 137 c 0
 335 156.140625 353.922851562 190 376 190 c 0
 387.78125 190 396.672851562 178.9921875 403.1015625 167.831054688 c 0
 411.452148438 153.3359375 417 135.598632812 417 125 c 0
 417 114.609375 412.872070312 109.50390625 410.790039062 102.5625 c 0
 410.391601562 101.233398438 409.453125 100.135742188 408.231445312 99.525390625 c 2
 396.231445312 93.525390625 l 2
 395.559570312 93.189453125 394.801757812 93 394 93 c 0
 391.240234375 93 389 95.240234375 389 98 c 0
 389 99.9580078125 390.127929688 101.654296875 391.768554688 102.474609375 c 2
 401.921875 107.551757812 l 1
 403.96875 113.076171875 407 117.98828125 407 125 c 0
 407 132.49609375 401.95703125 149.78515625 394.430664062 162.850585938 c 0
 388.158203125 173.73828125 380.966796875 180 376 180 c 0
 370.053710938 180 363.078125 175.06640625 357.100585938 166.979492188 c 0
 349.759765625 157.046875 345 143.650390625 345 137 c 0
 345 58.0078125 399.370117188 12.9521484375 476.584960938 12.9521484375 c 0
 480.631835938 12.9521484375 484.409179688 13.0712890625 488.509765625 13.1435546875 c 0
 529.6953125 13.8759765625 584.5859375 15.87890625 602 48.224609375 c 1
 602 79.8125 l 1
 596.02734375 160.447265625 l 1
 586.413085938 226.157226562 577.067382812 292.134765625 566.22265625 356.614257812 c 1
 532.544921875 315.674804688 482.321289062 288.1328125 429.000976562 288.126953125 c 0
 428.250976562 288.126953125 408.95703125 289.140625 399.5 291.000976562 c 0
 361.448242188 291.133789062 347.78125 306.423828125 328.264648438 329.184570312 c 0
 325.155273438 332.810546875 321.87109375 336.640625 318.270507812 340.670898438 c 0
 265.340820312 399.91796875 255.401367188 475.513671875 255.401367188 552.98828125 c 0
 255.401367188 574.260742188 256.154296875 595.709960938 256.999023438 617.072265625 c 0
 256.947265625 621.756835938 256.923828125 626.336914062 256.923828125 630.810546875 c 0
638 725 m 0
 638 731.682617188 636.225585938 733.818359375 634.299804688 734.987304688 c 0
 632.515625 736.0703125 629.41796875 736.70703125 625.141601562 736.70703125 c 0
 616.65625 736.70703125 607.123046875 735 598 735 c 0
 597.555664062 735 597.125 735.057617188 596.71484375 735.166992188 c 0
 592.278320312 736.345703125 588.2109375 736.872070312 584.494140625 736.872070312 c 0
 556.205078125 736.872070312 542.114257812 704.67578125 542.114257812 674.693359375 c 0
 542.114257812 670.240234375 543 666.053710938 543 662 c 0
 543 661.375976562 542.885742188 660.778320312 542.67578125 660.227539062 c 0
 535.109375 640.299804688 532.735351562 619.37109375 532.735351562 598.125976562 c 0
 532.735351562 576.567382812 535.219726562 554.376953125 536.982421875 533.423828125 c 0
 538.181640625 519.163085938 541.377929688 491.364257812 548.084960938 481.8828125 c 0
 548.44921875 481.368164062 548.71875 480.78125 548.8671875 480.147460938 c 2
 572.03515625 381.685546875 l 1
 578.084960938 391.237304688 583.23828125 401.33203125 587.341796875 411.819335938 c 0
 587.4453125 412.083984375 587.571289062 412.337890625 587.715820312 412.578125 c 0
 626.551757812 476.924804688 624.420898438 557.000976562 638.068359375 638.827148438 c 0
 639.478515625 647.286132812 639.967773438 656.453125 639.967773438 665.98828125 c 0
 639.967773438 685.205078125 638 705.704101562 638 725 c 0
EndSplineSet
EndChar
StartChar: Z
Encoding: 90 90 52
Width: 730
Flags: HW
LayerCount: 2
Fore
SplineSet
205.249043936 780.776411291 m 0
 206.694371364 780.853828145 209.300542 781 210 781 c 2
 220 781 l 2
 269.24655413 781 317.664552862 757 367 757 c 0
 368.281076792 756.688113765 369.625643501 756.457248696 371.028511959 756.301646162 c 0
 390.538464105 758.050367563 416.746016078 768.738533338 440.808814671 778.552009263 c 0
 462.821580844 787.529425171 483.039471516 795.774841124 494.693037809 795.774841124 c 2
 504.693037809 795.774841124 l 2
 511.190069889 795.774841124 515.025118046 793.211981085 515.025118046 786.784276204 c 2
 515.025118046 776.784276204 l 2
 515.025118046 770.27313427 511.089859328 759.796158339 502 744 c 0
 492.8046875 719.763671875 485.2421875 698.252929688 478 675 c 0
 467.746879659 642.079864923 432.657477783 598.348689776 398.042755347 555.209097518 c 0
 362.092022413 510.404463802 326.653318063 466.237960412 320.08292651 435.484132653 c 1
 361.858997742 415.394105364 392.052097294 378.885361671 414.015199938 336.949208824 c 1
 483 409 l 1
 525 448 l 1
 535 438 l 1
 493 399 l 1
 420.703860115 323.490698342 l 1
 435.629565605 291.844366161 446.28151123 257.882928183 454.012513465 225.948310362 c 0
 454.012513465 224.981397971 454.008864777 224.01448558 454.008864777 223.04757319 c 0
 454.252581589 188.674948893 458.290178895 149.737341556 458.290178895 113.721355111 c 2
 458.290178895 103.721355111 l 2
 458.290178895 35.7558378154 445.642464725 -27.5883757057 376.916323034 -27.5883757057 c 2
 366.92502515 -27.5883757057 l 2
 366.368087894 -27.5883757057 350.493638056 -26.7320920623 341.701252089 -25.1309029026 c 0
 337.077253001 -26.2044070531 332.836928197 -26.7094972211 328.948458065 -26.7094972211 c 2
 318.948458065 -26.7094972211 l 2
 276.986746355 -26.7094972211 275.999394607 32.1095210054 275.999394607 70.1703404093 c 2
 275.999394607 80.1703404093 l 2
 275.999394607 138.008703923 298.373242232 178.101873793 324.182211233 223.976895852 c 0
 332.067969977 237.993703588 340.207820803 252.462155861 348 268 c 1
 404.165551514 326.661798248 l 1
 382.000948656 369.080223356 351.433717144 405.977886474 309 426 c 1
 309 436 l 2
 309 466.699792903 348.20704182 515.562695123 388.042755347 565.209097518 c 0
 422.657477783 608.348689776 457.746879659 652.079864923 468 685 c 0
 475.2421875 708.252929688 482.8046875 729.763671875 492 754 c 0
 498.794833021 765.807911917 502.709362399 774.643554666 504.252907717 781.072222405 c 0
 503.312156075 783.255828381 501.536325674 784.605317181 499.0605638 785.270688435 c 0
 487.096020905 783.350937302 469.60687486 776.218379008 450.808814671 768.552009263 c 0
 425.988467335 758.429583972 376.313892045 745.906987877 375.378424507 745.919986806 c 2
 365.763077313 746.053598299 l 2
 362.598887564 746.053598299 359.662339367 746.351837182 357 747 c 0
 309.511844027 747 263.181600173 768.880406752 216.703458057 770.855399996 c 0
 214.110787582 770.71411446 210.811420742 770.527777778 208.340494792 770.527777778 c 2
 206.70785161 770.527777778 l 1
 209.942305467 752.239756332 214.500213895 733.433938901 217 715 c 1
 207 705 l 1
 204.017388607 726.994392273 198.266011 748.880850339 195 771 c 1
 195 846.492179203 l 1
 195.294554699 846.786733902 l 1
 205.005651368 780.961726084 l 0
 205.027376532 780.889763764 205.111225629 780.828375598 205.249043936 780.776411291 c 0
443.999735341 215.577934746 m 2
 443.999735341 216.00109323 l 1
 436.305479514 247.783693113 425.696193089 281.631686123 410.8441921 313.19282286 c 1
 358 258 l 1
 350.207820803 242.462155861 342.067969977 227.993703588 334.182211233 213.976895852 c 0
 309.117178025 169.424199322 286.619228959 129.434461272 286.012528907 74.17024696 c 0
 286.199725522 37.8417804081 288.893180749 -12.262558785 324.097592926 -16.4311261478 c 0
 329.008692534 -15.9150745845 335.300808089 -14.204755245 340.22417654 -12.762968665 c 1
 350.247399476 -14.9096826247 362.43727712 -17.0695351398 371.836121161 -17.4766192832 c 0
 434.654255994 -14.5754781339 447.66123069 44.3775995823 448.267378879 108.799893114 c 0
 447.959237274 143.67467132 443.999735341 182.301629935 443.999735341 215.577934746 c 2
EndSplineSet
EndChar
StartChar: bracketleft
Encoding: 91 91 60
Width: 212
Flags: HW
LayerCount: 2
Fore
SplineSet
60 813 m 1
 60 -197 l 1
 157 -197 l 2
 159.759765625 -197 162 -199.240234375 162 -202 c 0
 162 -204.759765625 159.759765625 -207 157 -207 c 2
 55 -207 l 2
 52.240234375 -207 50 -204.759765625 50 -202 c 2
 50 818 l 2
 50 820.759765625 52.240234375 823 55 823 c 2
 157 823 l 2
 159.759765625 823 162 820.759765625 162 818 c 0
 162 815.240234375 159.759765625 813 157 813 c 2
 60 813 l 1
EndSplineSet
EndChar
StartChar: backslash
Encoding: 92 92 61
Width: 341
Flags: HW
LayerCount: 2
Fore
SplineSet
291 107 m 0
 291 104.240234375 288.759765625 102 286 102 c 0
 283.916015625 102 282.12890625 103.27734375 281.377929688 105.090820312 c 2
 50.3779296875 663.090820312 l 2
 50.134765625 663.678710938 50 664.32421875 50 665 c 0
 50 667.759765625 52.240234375 670 55 670 c 0
 57.083984375 670 58.87109375 668.72265625 59.6220703125 666.909179688 c 2
 290.622070312 108.909179688 l 2
 290.865234375 108.321289062 291 107.67578125 291 107 c 0
EndSplineSet
EndChar
StartChar: bracketright
Encoding: 93 93 62
Width: 212
Flags: HW
LayerCount: 2
Fore
SplineSet
55 -207 m 2
 52.240234375 -207 50 -204.759765625 50 -202 c 0
 50 -199.240234375 52.240234375 -197 55 -197 c 2
 152 -197 l 1
 152 813 l 1
 55 813 l 2
 52.240234375 813 50 815.240234375 50 818 c 0
 50 820.759765625 52.240234375 823 55 823 c 2
 157 823 l 2
 159.759765625 823 162 820.759765625 162 818 c 2
 162 -202 l 2
 162 -204.759765625 159.759765625 -207 157 -207 c 2
 55 -207 l 2
EndSplineSet
EndChar
StartChar: asciicircum
Encoding: 94 94 63
Width: 632
Flags: HW
LayerCount: 2
Fore
SplineSet
50 239 m 0
 50 241.759765625 52.240234375 244 55 244 c 0
 57.759765625 244 60 241.759765625 60 239 c 0
 60 236.240234375 57.759765625 234 55 234 c 0
 52.240234375 234 50 236.240234375 50 239 c 0
582 719 m 0
 582 716.240234375 579.759765625 714 577 714 c 0
 576.014648438 714 575.095703125 714.286132812 574.321289062 714.778320312 c 2
 412.0078125 818.068359375 l 1
 250.690429688 714.786132812 l 2
 249.9140625 714.288085938 248.990234375 714 248 714 c 0
 245.240234375 714 243 716.240234375 243 719 c 0
 243 720.76953125 243.920898438 722.325195312 245.309570312 723.213867188 c 2
 409.309570312 828.213867188 l 2
 410.0859375 828.711914062 411.009765625 829 412 829 c 0
 412.985351562 829 413.904296875 828.713867188 414.678710938 828.221679688 c 2
 579.678710938 723.221679688 l 2
 581.07421875 722.333984375 582 720.774414062 582 719 c 0
EndSplineSet
EndChar
StartChar: underscore
Encoding: 95 95 64
Width: 653
Flags: HW
LayerCount: 2
Fore
SplineSet
50 -201 m 0
 50 -198.240234375 52.240234375 -196 55.056640625 -196 c 2
 598.056640625 -202 l 2
 600.790039062 -202.030273438 603 -204.258789062 603 -207 c 0
 603 -209.759765625 600.759765625 -212 597.943359375 -212 c 2
 54.943359375 -206 l 2
 52.2099609375 -205.969726562 50 -203.741210938 50 -201 c 0
EndSplineSet
EndChar
StartChar: grave
Encoding: 96 96 65
Width: 233
Flags: HW
LayerCount: 2
Fore
SplineSet
50 549 m 0
 50 551.759765625 52.240234375 554 55 554 c 0
 56.4833984375 554 57.8173828125 553.352539062 58.7333984375 552.32421875 c 2
 181.733398438 414.32421875 l 2
 182.521484375 413.440429688 183 412.276367188 183 411 c 0
 183 408.240234375 180.759765625 406 178 406 c 0
 176.516601562 406 175.182617188 406.647460938 174.266601562 407.67578125 c 2
 51.2666015625 545.67578125 l 2
 50.478515625 546.559570312 50 547.723632812 50 549 c 0
EndSplineSet
EndChar
StartChar: a
Encoding: 97 97 66
Width: 520
Flags: HW
LayerCount: 2
Fore
SplineSet
68.806640625 183.229492188 m 0
 68.806640625 142.579101562 76.5888671875 102.446289062 93.5224609375 68.1328125 c 0
 96.69140625 61.4306640625 99.720703125 54.3681640625 103.149414062 47.951171875 c 1
 229.713867188 92.42578125 360.02734375 174.854492188 360.02734375 310.795898438 c 0
 360.02734375 322.501953125 359.0703125 334.633789062 357.0625 347.20703125 c 0
 357.021484375 347.46484375 357 347.73046875 357 348 c 0
 357 348.287109375 357.024414062 348.569335938 357.071289062 348.84375 c 0
 357.779296875 353.005859375 358.108398438 356.8515625 358.108398438 360.397460938 c 0
 358.108398438 398.032226562 319.881835938 408.1328125 280.88671875 409.000976562 c 0
 280.08984375 409.018554688 279.337890625 409.223632812 278.674804688 409.573242188 c 0
 259.55859375 419.643554688 241.303710938 424.122070312 224.108398438 424.122070312 c 0
 135.84375 424.122070312 68.806640625 303.329101562 68.806640625 183.229492188 c 0
379.5859375 143.428710938 m 0
 379.5859375 154.248046875 377.88671875 160.854492188 377.1484375 172.893554688 c 0
 376.42578125 184.6953125 375.412109375 202.463867188 372.53125 212.529296875 c 1
 343.418945312 195.765625 328.342773438 161.3203125 328.342773438 125.98828125 c 0
 328.342773438 104.787109375 333.681640625 83.759765625 344.346679688 66.4990234375 c 1
 366.049804688 87.3671875 379.5859375 113.52734375 379.5859375 143.428710938 c 0
137 23 m 0
 137.553710938 23 138.086914062 22.91015625 138.584960938 22.7431640625 c 0
 157.625976562 16.3740234375 178.485351562 13.326171875 199.708984375 13.326171875 c 0
 250.41015625 13.326171875 302.030273438 30.5205078125 336.890625 59.8017578125 c 1
 324.506835938 79.146484375 318.342773438 102.743164062 318.342773438 125.98828125 c 0
 318.342773438 165.436523438 335.823242188 205.361328125 371.754882812 223.467773438 c 0
 372.4296875 223.80859375 373.192382812 224 374 224 c 0
 378.918945312 224 380.622070312 219.704101562 381.391601562 217.831054688 c 0
 385.864257812 206.948242188 386.322265625 186.685546875 387.129882812 173.513671875 c 0
 387.908203125 160.810546875 389.5859375 154.762695312 389.5859375 143.428710938 c 0
 389.5859375 109.489257812 374.305664062 80.603515625 350.251953125 58.03515625 c 1
 365.364257812 38.806640625 388.287109375 26 419 26 c 0
 428.034179688 26 435.458007812 19.203125 442.6328125 13.375 c 0
 451.834960938 5.8994140625 460.932617188 -1 470 -1 c 2
 474.900390625 -1 l 1
 512.909179688 16.5419921875 l 2
 513.544921875 16.8359375 514.25390625 17 515 17 c 0
 517.759765625 17 520 14.759765625 520 12 c 0
 520 9.986328125 518.807617188 8.25 517.090820312 7.4580078125 c 2
 478.090820312 -10.5419921875 l 2
 477.455078125 -10.8359375 476.74609375 -11 476 -11 c 2
 470 -11 l 2
 456.173828125 -11 445.211914062 -1.6025390625 436.333984375 5.6103515625 c 0
 428.677734375 11.830078125 422.603515625 16 419 16 c 0
 384.923828125 16 359.55859375 30.3271484375 342.814453125 51.4853515625 c 1
 305.561523438 20.65625 251.282226562 3.326171875 199.708984375 3.326171875 c 0
 177.84375 3.326171875 156.26171875 6.4072265625 136.309570312 12.9599609375 c 0
 135.774414062 12.9404296875 135.244140625 12.9306640625 134.717773438 12.9306640625 c 0
 117.395507812 12.9306640625 106.401367188 23.4267578125 98.568359375 35.734375 c 1
 66.3720703125 24.8310546875 34.7880859375 16.3935546875 6.0712890625 10.115234375 c 0
 5.7255859375 10.0400390625 5.3671875 10 5 10 c 0
 2.240234375 10 0 12.240234375 0 15 c 0
 0 17.3916015625 1.68359375 19.3935546875 3.9287109375 19.884765625 c 0
 32.0439453125 26.03125 62.5625 34.205078125 93.5107421875 44.6337890625 c 1
 90.0419921875 51.3798828125 87.52734375 57.4169921875 84.4775390625 63.8671875 c 0
 66.7177734375 99.853515625 58.806640625 141.309570312 58.806640625 183.229492188 c 0
 58.806640625 304.818359375 126.241210938 434.122070312 224.108398438 434.122070312 c 0
 242.768554688 434.122070312 262.290039062 429.3203125 282.28515625 418.969726562 c 1
 320.466796875 417.931640625 368.135742188 407.393554688 368.108398438 360.397460938 c 0
 368.107421875 360.069335938 367.766601562 352.336914062 367.065429688 347.981445312 c 0
 369.065429688 335.197265625 370.02734375 322.803710938 370.02734375 310.795898438 c 0
 370.02734375 168.530273438 236.237304688 84.2919921875 108.428710938 39.1455078125 c 1
 114.939453125 29.658203125 123.059570312 22.9306640625 134.717773438 22.9306640625 c 0
 135.456054688 22.9306640625 136.233398438 23 137 23 c 0
EndSplineSet
EndChar
StartChar: b
Encoding: 98 98 67
Width: 532
Flags: HW
LayerCount: 2
Fore
SplineSet
234.147460938 535.052734375 m 0
 234.147460938 592.961914062 222.166015625 653.354492188 210.11328125 708.9375 c 0
 200.711914062 752.295898438 196.82421875 815.521484375 152.486328125 815.997070312 c 0
 137.178710938 812.7265625 129.8515625 788.993164062 119.986328125 775.983398438 c 0
 105.985351562 757.520507812 99.392578125 734.310546875 90.91796875 711.865234375 c 1
 85.4326171875 649.698242188 79.5927734375 587.88671875 73.0087890625 526.8203125 c 1
 78.98828125 341.430664062 l 1
 93.9072265625 234.01953125 l 1
 98.8369140625 216.225585938 103.33203125 198.529296875 108.551757812 181.225585938 c 1
 116.573242188 169.841796875 123.0625 155.94921875 129.264648438 141.44140625 c 1
 197.30859375 243.044921875 234.91015625 366.853515625 234.91015625 490.6171875 c 0
 234.91015625 501.658203125 234.610351562 512.69921875 234.0078125 523.72265625 c 0
 234.002929688 523.814453125 234 523.907226562 234 524 c 0
 234 527.673828125 234.147460938 531.357421875 234.147460938 535.052734375 c 0
323 366 m 0
 319.650390625 366 311.849609375 360.9296875 304.60546875 352.734375 c 0
 296.236328125 343.266601562 289.810546875 331.189453125 289.071289062 326.751953125 c 0
 299.793945312 299.00390625 309.974609375 271.705078125 338.127929688 270.998046875 c 0
 338.563476562 270.987304688 338.985351562 270.920898438 339.38671875 270.8046875 c 0
 351.541015625 267.298828125 364.700195312 264.817382812 378.048828125 264.817382812 c 0
 389.07421875 264.817382812 400.248046875 266.499023438 411.224609375 270.674804688 c 0
 418.836914062 273.571289062 438.502929688 280 449 280 c 2
 461.416992188 280 l 1
 456.223632812 288.516601562 450.443359375 296.916015625 444.8515625 305.209960938 c 0
 411.088867188 355.286132812 381.174804688 366 323 366 c 0
490.034179688 212.639648438 m 0
 490.034179688 197.6953125 489.734375 182.603515625 486.89453125 168.9765625 c 0
 473.915039062 106.680664062 435.02734375 13.349609375 359.090820312 12.0009765625 c 0
 302.672851562 12.0009765625 254.00390625 29.9765625 202.412109375 36.0341796875 c 0
 161.147460938 40.87890625 142.994140625 82.68359375 127.115234375 120.717773438 c 1
 93.740234375 74.0517578125 53.8046875 32.408203125 7.9990234375 -2 c 0
 7.1630859375 -2.6279296875 6.125 -3 5 -3 c 0
 2.240234375 -3 0 -0.759765625 0 2 c 0
 0 3.634765625 0.7861328125 5.087890625 2.0009765625 6 c 0
 48.5859375 40.9931640625 89.03125 83.6845703125 122.551757812 131.630859375 c 1
 115.4765625 148.432617188 108.390625 164.288085938 99.9326171875 176.092773438 c 0
 99.619140625 176.530273438 99.3740234375 177.021484375 99.2138671875 177.549804688 c 0
 93.78515625 195.459960938 89.2509765625 213.37890625 84.1806640625 231.663085938 c 0
 84.123046875 231.872070312 84.078125 232.087890625 84.0478515625 232.306640625 c 2
 69.0478515625 340.306640625 l 2
 69.0234375 340.48046875 69.0087890625 340.657226562 69.0029296875 340.8359375 c 2
 62.9970703125 527 l 2
 62.9921875 527.174804688 63.0087890625 527.348632812 63.0263671875 527.51953125 c 0
 69.65234375 588.87109375 75.501953125 650.999023438 81.0205078125 713.458007812 c 0
 81.0625 713.916992188 81.166015625 714.358398438 81.32421875 714.7734375 c 0
 90.1982421875 738.137695312 96.3427734375 761.3515625 112.013671875 782.016601562 c 0
 123.075195312 796.604492188 128.30859375 821.634765625 151.072265625 825.9140625 c 0
 151.373046875 825.970703125 151.682617188 826 152 826 c 0
 200.573242188 826 209.82421875 767.198242188 216.397460938 729.672851562 c 0
 217.59375 722.84765625 218.706054688 716.506835938 219.88671875 711.0625 c 0
 231.965820312 655.356445312 244.147460938 594.338867188 244.147460938 535.052734375 c 0
 244.147460938 531.384765625 244.100585938 527.723632812 244.00390625 524.0703125 c 0
 244.609375 512.9296875 244.91015625 501.7734375 244.91015625 490.6171875 c 0
 244.91015625 362.6953125 205.447265625 234.734375 133.90625 130.415039062 c 1
 150.903320312 89.69921875 167.6875 50.1806640625 203.587890625 45.9658203125 c 0
 254.788085938 39.9541015625 303.96875 21.9990234375 358.909179688 21.9990234375 c 0
 425.79296875 23.1875 464.088867188 108.549804688 477.10546875 171.0234375 c 0
 479.673828125 183.352539062 480.034179688 197.844726562 480.034179688 212.639648438 c 0
 480.034179688 217.4140625 480 222.216796875 480 226.9921875 c 0
 479.978515625 241.758789062 474.689453125 256.055664062 467.178710938 270 c 1
 449 270 l 2
 441.905273438 270 421.495117188 263.881835938 414.775390625 261.325195312 c 0
 402.525390625 256.6640625 390.109375 254.817382812 378.048828125 254.817382812 c 0
 363.674804688 254.817382812 349.834960938 257.424804688 337.217773438 261.021484375 c 0
 302.643554688 262.293945312 290.58203125 295.020507812 280.657226562 320.7734375 c 0
 280.047851562 322.354492188 279 324.016601562 279 326 c 0
 279 335.213867188 287.552734375 348.5390625 297.111328125 359.352539062 c 0
 304.633789062 367.86328125 313.651367188 376 323 376 c 0
 382.911132812 376 417.657226562 363.430664062 453.1484375 310.790039062 c 0
 459.6015625 301.219726562 466.25390625 291.701171875 472.333007812 281.393554688 c 1
 477.197265625 284.689453125 484.703125 291.69140625 489.833007812 296.046875 c 1
 519.079101562 369.1640625 l 1
 522.017578125 404.419921875 l 2
 522.231445312 406.983398438 524.381835938 409 527 409 c 0
 529.759765625 409 532 406.759765625 532 404 c 0
 532 403.858398438 531.994140625 403.71875 531.982421875 403.580078125 c 2
 528.982421875 367.580078125 l 2
 528.940429688 367.077148438 528.82421875 366.595703125 528.64453125 366.145507812 c 2
 498.64453125 291.145507812 l 2
 498.313476562 290.319335938 497.768554688 289.6015625 497.078125 289.060546875 c 0
 490.948242188 284.262695312 484.391601562 277.150390625 477.288085938 272.494140625 c 1
 484.666992188 258.33984375 489.9765625 243.233398438 490 227.0078125 c 0
 490 222.237304688 490.034179688 217.428710938 490.034179688 212.639648438 c 0
EndSplineSet
EndChar
StartChar: c
Encoding: 99 99 68
Width: 505
Flags: HW
LayerCount: 2
Fore
SplineSet
304 374 m 0
 304 354.682617188 306.305664062 337.34375 322.513671875 337.004882812 c 0
 331.715820312 338.87890625 340.90234375 340.40234375 350.151367188 342.7109375 c 1
 350.711914062 348.865234375 351 355.2890625 351 362 c 0
 351 365.368164062 346.755859375 381.752929688 340.930664062 394.44140625 c 0
 338.33203125 400.1015625 335.40625 405.125976562 332.815429688 408.092773438 c 0
 330.62890625 410.59765625 329.122070312 411 329 411 c 0
 305.4296875 411 304 392.171875 304 374 c 0
165.390625 179.998046875 m 1
 254.614257812 212.01953125 334.91015625 239.803710938 348.853515625 331.952148438 c 1
 342.852539062 330.6328125 337.166015625 329.618164062 332.3359375 328.711914062 c 0
 329.006835938 328.086914062 325.991210938 327 323 327 c 0
 295.462890625 327 294 356.701171875 294 374 c 0
 294 391.064453125 295.822265625 421 329 421 c 0
 333.88671875 421 337.517578125 417.909179688 340.350585938 414.665039062 c 0
 349.232421875 404.493164062 361 373.23046875 361 362 c 0
 361 356.349609375 360.802734375 350.890625 360.41796875 345.611328125 c 1
 377.426757812 351.08203125 391.188476562 359.455078125 391.188476562 374.044921875 c 0
 391.188476562 376.357421875 390.872070312 378.92578125 390.15234375 381.771484375 c 0
 384.821289062 402.845703125 378.999023438 415.228515625 371.784179688 422.360351562 c 0
 362.921875 431.120117188 350.682617188 433.486328125 329.6953125 433.486328125 c 0
 307.787109375 433.486328125 288.33203125 432.016601562 263.5390625 432 c 1
 176.430664062 413.055664062 161.783203125 354.4453125 161.783203125 277.559570312 c 0
 161.783203125 246.419921875 164.293945312 211.741210938 165.390625 179.998046875 c 1
305 16 m 0
 305.108398438 16 305.215820312 15.99609375 305.322265625 15.9892578125 c 0
 320.53515625 15.0185546875 334.90234375 13.10546875 351.638671875 13.00390625 c 1
 497.458984375 99.3056640625 l 2
 498.204101562 99.7470703125 499.072265625 100 500 100 c 0
 502.759765625 100 505 97.759765625 505 95 c 0
 505 93.16796875 504.012695312 91.564453125 502.541015625 90.6943359375 c 2
 355.541015625 3.6943359375 l 2
 354.795898438 3.2529296875 353.927734375 3 353 3 c 0
 335.16796875 3 320.657226562 4.9736328125 304.94140625 5.9931640625 c 0
 304.04296875 5.9580078125 301.103515625 5.857421875 296.807617188 5.857421875 c 0
 282.63671875 5.857421875 253.72265625 6.73828125 233.990234375 15.4208984375 c 0
 208.173828125 27.25390625 181.204101562 61.740234375 181.08203125 61.89453125 c 0
 180.690429688 62.388671875 180.388671875 62.958984375 180.205078125 63.5791015625 c 2
 156.205078125 144.579101562 l 2
 156.071289062 145.029296875 155.999023438 145.506835938 156 146.012695312 c 0
 156.000976562 146.58984375 156.001953125 147.166015625 156.001953125 147.743164062 c 0
 156.001953125 153.798828125 155.924804688 159.85546875 155.790039062 165.903320312 c 1
 102.927734375 146.71875 49.60546875 125.3671875 8.3603515625 87.8984375 c 0
 7.4716796875 87.091796875 6.29296875 86.599609375 5 86.599609375 c 0
 2.240234375 86.599609375 0 88.83984375 0 91.599609375 c 0
 0 93.06640625 0.6328125 94.3857421875 1.6396484375 95.30078125 c 0
 45.5009765625 135.146484375 101.4921875 156.94140625 155.501953125 176.440429688 c 1
 154.4453125 209.456054688 151.783203125 244.908203125 151.783203125 277.559570312 c 0
 151.783203125 355.708007812 168.146484375 421.72265625 261.9453125 441.888671875 c 0
 262.28515625 441.961914062 262.638671875 442 263 442 c 0
 287.934570312 442 307.514648438 443.486328125 329.6953125 443.486328125 c 0
 346.815429688 443.486328125 360.232421875 442.120117188 371.189453125 435.442382812 c 0
 385.028320312 427.009765625 393.028320312 411.184570312 399.84765625 384.228515625 c 0
 400.74609375 380.677734375 401.188476562 377.287109375 401.188476562 374.044921875 c 0
 401.188476562 351.012695312 380.21875 340.388671875 359.302734375 334.536132812 c 1
 345.999023438 231.76953125 256.307617188 202.05859375 165.708007812 169.483398438 c 1
 165.892578125 162.26171875 166.001953125 155.009765625 166.001953125 147.743164062 c 0
 166.001953125 147.403320312 166.000976562 147.063476562 166.000976562 146.723632812 c 2
 189.510742188 67.3798828125 l 1
 193.56640625 62.4599609375 217.65625 33.9072265625 238.009765625 24.5791015625 c 0
 254.943359375 17.1279296875 283.1328125 15.857421875 296.807617188 15.857421875 c 0
 302.135742188 15.857421875 304.612304688 16 305 16 c 0
EndSplineSet
EndChar
StartChar: d
Encoding: 100 100 69
Width: 628
Flags: HW
LayerCount: 2
Fore
SplineSet
357.275390625 253.415039062 m 0
 357.275390625 264.244140625 356.248046875 276.131835938 354.068359375 289.170898438 c 0
 348.911132812 320.03125 343.767578125 344.724609375 332.467773438 362.176757812 c 0
 318.591796875 383.609375 294.844726562 396 245 396 c 0
 130.455078125 396 127.012695312 297.494140625 127 191.622070312 c 1
 131.795898438 172.575195312 138.7734375 148.944335938 147.926757812 124.875 c 1
 256.65234375 136.458007812 357.275390625 146.6328125 357.275390625 253.415039062 c 0
468 298.936523438 m 0
 464.485351562 438.795898438 427.03125 571.715820312 405.071289062 700.15234375 c 0
 403.387695312 710.000976562 399.059570312 727.125 392.185546875 741.46875 c 0
 388.155273438 749.87890625 383.319335938 757.006835938 378.124023438 761.4921875 c 1
 364.0078125 628.802734375 l 1
 369.990234375 416.41796875 l 1
 381.938476562 329.78515625 l 2
 388.112304688 290.704101562 407.684570312 202.647460938 436.14453125 128.748046875 c 1
 458.008789062 177.14453125 467.993164062 235.759765625 468 298.936523438 c 0
141.34375 114.110351562 m 1
 92.669921875 108.859375 44.580078125 102.844726562 6.9375 86.9892578125 c 0
 6.341796875 86.73828125 5.6865234375 86.599609375 5 86.599609375 c 0
 2.240234375 86.599609375 0 88.83984375 0 91.599609375 c 0
 0 93.671875 1.263671875 95.4521484375 3.0625 96.2099609375 c 0
 41.865234375 112.553710938 89.734375 118.59765625 137.6171875 123.770507812 c 1
 128.651367188 147.701171875 121.8671875 170.962890625 117.149414062 189.782226562 c 0
 117.051757812 190.171875 117 190.580078125 117 191 c 0
 117 294.827148438 119.956054688 406 245 406 c 0
 296.361328125 406 324.5703125 392.7734375 340.868164062 367.6015625 c 0
 353.708007812 347.76953125 358.764648438 321.74609375 363.931640625 290.829101562 c 0
 366.188476562 277.322265625 367.275390625 264.887695312 367.275390625 253.415039062 c 0
 367.275390625 137.615234375 257.125 126.450195312 151.709960938 115.220703125 c 1
 159.892578125 94.951171875 169.61328125 74.763671875 180.868164062 57.1181640625 c 0
 202.25 23.5966796875 228.482421875 0.2900390625 259.203125 0.2900390625 c 0
 262.16796875 0.2900390625 265.192382812 0.50390625 268.282226562 0.94921875 c 0
 346.134765625 12.1611328125 398.66015625 54.99609375 430.225585938 116.46484375 c 1
 399.486328125 193.127929688 378.6015625 286.810546875 372.061523438 328.21484375 c 2
 360.046875 415.311523438 l 2
 360.022460938 415.490234375 360.006835938 415.672851562 360.001953125 415.856445312 c 2
 353.998046875 629 l 2
 353.993164062 629.180664062 354.009765625 629.358398438 354.028320312 629.534179688 c 2
 369.028320312 770.534179688 l 2
 369.294921875 773.04296875 371.420898438 775 374 775 c 0
 374.6875 775 375.341796875 774.861328125 375.938476562 774.609375 c 0
 397.955078125 765.331054688 410.939453125 725.173828125 414.928710938 701.84765625 c 0
 436.983398438 572.853515625 474.45703125 440.461914062 477.998046875 299.126953125 c 0
 477.999023438 299.084960938 478 299.04296875 478 299 c 0
 478 231.421875 466.568359375 167.948242188 441.126953125 116.189453125 c 1
 466.146484375 55.0166015625 496.76171875 10 527 10 c 0
 547.012695312 10 565.53515625 19.41015625 583.547851562 24.2646484375 c 1
 618.530273438 93.8408203125 l 2
 619.352539062 95.4765625 621.045898438 96.599609375 623 96.599609375 c 0
 625.759765625 96.599609375 628 94.359375 628 91.599609375 c 0
 628 90.7939453125 627.80859375 90.0322265625 627.469726562 89.3583984375 c 2
 591.469726562 17.7587890625 l 2
 590.827148438 16.4794921875 589.650390625 15.513671875 588.234375 15.1533203125 c 0
 568.416992188 10.115234375 550.400390625 0 527 0 c 1
 508.435546875 21.13671875 459.217773438 47.7451171875 435.103515625 104.631835938 c 1
 401.969726562 44.6328125 348.33203125 2.373046875 269.717773438 -8.94921875 c 0
 266.165039062 -9.4599609375 262.659179688 -9.7099609375 259.203125 -9.7099609375 c 0
 199.630859375 -9.7099609375 161.533203125 63.298828125 141.34375 114.110351562 c 1
EndSplineSet
EndChar
StartChar: e
Encoding: 101 101 70
Width: 550
Flags: HW
LayerCount: 2
Fore
SplineSet
143.48046875 123.106445312 m 1
 274.823242188 160.3125 401.633789062 236.490234375 413.998046875 374.202148438 c 0
 413.801757812 383.71875 399.765625 392.638671875 376.903320312 398.651367188 c 0
 349.505859375 405.856445312 315.008789062 408 302 408 c 0
 278.870117188 408 245.89453125 388.961914062 216.727539062 362.23828125 c 0
 180.220703125 328.7890625 151 284.567382812 151 257 c 0
 151 256.858398438 150.994140625 256.71875 150.982421875 256.580078125 c 0
 148.419921875 225.819335938 143.676757812 193.248046875 143.676757812 161.74609375 c 0
 143.676757812 152.702148438 144.05859375 143.637695312 144.974609375 134.50390625 c 0
 144.991210938 134.337890625 145 134.169921875 145 134 c 0
 145 130.319335938 143.853515625 126.55859375 143.48046875 123.106445312 c 1
278.356445312 -0.8662109375 m 0
 287.038085938 -0.8662109375 295.732421875 -0.2607421875 304.293945312 0.9501953125 c 0
 395.5625 13.8671875 424.533203125 34.2783203125 484.962890625 76.2548828125 c 0
 497.271484375 84.8046875 510.853515625 94.240234375 526.46484375 104.65234375 c 1
 540.928710938 124.901367188 l 2
 541.8359375 126.171875 543.322265625 127 545 127 c 0
 547.759765625 127 550 124.759765625 550 122 c 0
 550 120.918945312 549.65625 119.916992188 549.071289062 119.098632812 c 2
 534.071289062 98.0986328125 l 2
 533.716796875 97.6025390625 533.274414062 97.173828125 532.766601562 96.8359375 c 0
 516.927734375 86.2841796875 503.16796875 76.7265625 490.658203125 68.0361328125 c 0
 430.314453125 26.119140625 398.276367188 4.150390625 305.706054688 -8.9501953125 c 0
 296.672851562 -10.228515625 287.51171875 -10.8662109375 278.356445312 -10.8662109375 c 0
 206.377929688 -10.8662109375 132.727539062 29.177734375 132.727539062 109.399414062 c 0
 132.727539062 109.517578125 132.728515625 109.63671875 132.728515625 109.755859375 c 1
 88.7802734375 98.2294921875 44.99609375 90.9599609375 5.5009765625 87.0244140625 c 0
 5.3359375 87.0244140625 5.1689453125 87 5 87 c 0
 2.240234375 87 0 89.240234375 0 92 c 0
 0 94.5908203125 1.974609375 96.7236328125 4.4990234375 96.9755859375 c 0
 44.8154296875 100.9921875 89.0859375 108.473632812 133.169921875 120.267578125 c 1
 133.534179688 124.8046875 134.125976562 129.447265625 134.956054688 134.194335938 c 0
 134.051757812 143.470703125 133.676757812 152.643554688 133.676757812 161.74609375 c 0
 133.676757812 194.060546875 138.404296875 226.151367188 141 257.216796875 c 0
 141.137695312 290.30859375 172.764648438 335.517578125 209.975585938 369.612304688 c 0
 239.84765625 396.982421875 274.1640625 418 302 418 c 0
 315.880859375 418 350.618164062 415.905273438 379.450195312 408.323242188 c 0
 401.411132812 402.547851562 424 392.970703125 424 374 c 0
 424 373.849609375 423.993164062 373.700195312 423.98046875 373.552734375 c 0
 411.05859375 227.959960938 277.616210938 149.8359375 142.766601562 112.462890625 c 0
 142.740234375 111.434570312 142.727539062 110.413085938 142.727539062 109.399414062 c 0
 142.727539062 36.9365234375 209.122070312 -0.8662109375 278.356445312 -0.8662109375 c 0
EndSplineSet
EndChar
StartChar: f
Encoding: 102 102 71
Width: 402
Flags: HW
LayerCount: 2
Fore
SplineSet
154.002929688 573.102539062 m 0
 154.002929688 572.392578125 154.029296875 571.686523438 153.9140625 571.075195312 c 0
 144.893554688 522.927734375 142.833007812 473.322265625 142.833007812 423.237304688 c 0
 142.833007812 381.935546875 144.23046875 340.346679688 144.23046875 299.028320312 c 0
 144.23046875 283.40625 143.735351562 267.921875 143.275390625 252.998046875 c 1
 146.13671875 252.94921875 148.897460938 252.15625 151.614257812 251.201171875 c 0
 188.896484375 326.204101562 204.782226562 412.544921875 204.782226562 499.744140625 c 0
 204.782226562 521.030273438 203.833984375 542.358398438 202.018554688 563.568359375 c 0
 201.81640625 565.930664062 201.737304688 568.552734375 201.737304688 571.42578125 c 0
 201.737304688 591.607421875 204.287109375 614.954101562 204.287109375 636.646484375 c 0
 204.287109375 673.001953125 198.2890625 700.997070312 177.321289062 702.897460938 c 1
 161.752929688 682.595703125 158.49609375 652.631835938 155.978515625 625.532226562 c 0
 155.954101562 625.275390625 155.911132812 625.0234375 155.849609375 624.778320312 c 0
 153.973632812 617.321289062 153.453125 609.077148438 153.453125 600.458007812 c 0
 153.453125 591.446289062 154.002929688 582.1796875 154.002929688 573.102539062 c 0
142.8515625 234.501953125 m 1
 144.24609375 237.020507812 145.61328125 239.553710938 146.956054688 242.100585938 c 1
 145.122070312 242.654296875 143.6796875 243 143.009765625 243 c 0
 142.946289062 240.16796875 142.893554688 237.334960938 142.8515625 234.501953125 c 1
247.546875 126.454101562 m 1
 213.24609375 139.31640625 l 2
 212.431640625 139.622070312 211.716796875 140.134765625 211.16796875 140.790039062 c 0
 192.112304688 163.509765625 159.98046875 175.634765625 142.908203125 201.165039062 c 1
 143.973632812 145.190429688 150.221679688 89.9169921875 165.779296875 39.4736328125 c 0
 170.385742188 24.5361328125 173.346679688 7.111328125 181.020507812 -6.4052734375 c 0
 185.697265625 -14.6416015625 190.877929688 -18.9599609375 196.916015625 -19 c 0
 215.493164062 -18.298828125 225.736328125 0.990234375 234.44921875 20.072265625 c 0
 234.5625 20.3203125 234.6953125 20.5576171875 234.845703125 20.7822265625 c 0
 247.217773438 39.2099609375 247.490234375 63.6728515625 247.495117188 89.091796875 c 0
 247.495117188 101.615234375 248.458007812 114.323242188 247.546875 126.454101562 c 1
165.774414062 236.915039062 m 0
 162.596679688 236.915039062 159.482421875 237.756835938 156.493164062 238.780273438 c 0
 152.911132812 231.923828125 149.1484375 225.1640625 145.201171875 218.506835938 c 1
 151.837890625 199.91796875 167.975585938 188.198242188 185.791992188 175.383789062 c 0
 196.993164062 167.328125 208.637695312 159.016601562 217.963867188 148.229492188 c 1
 246.30078125 137.603515625 l 1
 244.048828125 152.670898438 239.530273438 167.153320312 232.571289062 181.671875 c 0
 219.15234375 204.947265625 199.145507812 237.44140625 172.859375 237.44140625 c 0
 170.587890625 237.44140625 168.118164062 236.915039062 165.774414062 236.915039062 c 0
131.884765625 242.612304688 m 0
 131.954101562 242.93359375 131.89453125 246.291015625 133.139648438 248.447265625 c 0
 133.583007812 264.986328125 134.23046875 281.767578125 134.23046875 299.028320312 c 0
 134.23046875 340.297851562 132.833007812 381.884765625 132.833007812 423.237304688 c 0
 132.833007812 473.443359375 134.875 523.52734375 144.001953125 572.477539062 c 0
 144.001953125 572.685546875 144.002929688 572.89453125 144.002929688 573.102539062 c 0
 144.002929688 582.08984375 143.453125 591.357421875 143.453125 600.458007812 c 0
 143.453125 609.3359375 143.94921875 618.262695312 146.056640625 626.842773438 c 0
 148.626953125 654.512695312 151.6796875 687.78125 171.154296875 711.194335938 c 0
 172.072265625 712.296875 173.454101562 713 175 713 c 0
 209.286132812 713 214.287109375 671.908203125 214.287109375 636.646484375 c 0
 214.287109375 614.831054688 211.737304688 591.369140625 211.737304688 571.42578125 c 0
 211.737304688 568.74609375 211.814453125 566.380859375 211.981445312 564.431640625 c 0
 213.821289062 542.947265625 214.782226562 521.333007812 214.782226562 499.744140625 c 0
 214.782226562 411.899414062 198.823242188 324.321289062 161.120117188 247.893554688 c 1
 163.12890625 247.295898438 164.801757812 246.915039062 165.774414062 246.915039062 c 0
 168.168945312 246.915039062 170.536132812 247.44140625 172.859375 247.44140625 c 0
 207.075195312 247.44140625 228.619140625 208.55859375 241.334960938 186.491210938 c 0
 241.397460938 186.383789062 241.455078125 186.2734375 241.508789062 186.161132812 c 0
 249.748046875 169.01953125 254.8203125 151.721679688 256.903320312 133.626953125 c 1
 264.489257812 130.782226562 l 1
 336.009765625 112.90234375 l 1
 397.80078125 102.936523438 l 2
 400.180664062 102.552734375 402 100.487304688 402 98 c 0
 402 95.240234375 399.759765625 93 397 93 c 0
 396.727539062 93 396.459960938 93.021484375 396.19921875 93.0634765625 c 2
 334.19921875 103.063476562 l 2
 334.05859375 103.086914062 333.920898438 103.115234375 333.78515625 103.1484375 c 2
 261.78515625 121.1484375 l 2
 260.404296875 121.494140625 259.107421875 122.119140625 257.798828125 122.609375 c 1
 257.93359375 119.821289062 258 117.012695312 258 114.1796875 c 0
 258 114.010742188 258.000976562 113.85546875 257.990234375 113.6875 c 0
 255.712890625 76.8759765625 262.426757812 44.310546875 243.384765625 15.564453125 c 0
 235.366210938 -1.9931640625 222.94140625 -29 197 -29 c 0
 185.467773438 -29 177.615234375 -20.6611328125 172.318359375 -11.33203125 c 0
 163.521484375 4.162109375 161.020507812 20.9658203125 156.220703125 36.5263671875 c 0
 140.462890625 87.6220703125 134.124023438 143.123046875 132.946289062 199.080078125 c 1
 101.66015625 152.399414062 60.4189453125 111.579101562 7.576171875 79.71484375 c 0
 6.82421875 79.2607421875 5.9423828125 79 5 79 c 0
 2.240234375 79 0 81.240234375 0 84 c 0
 0 85.8173828125 0.9716796875 87.4091796875 2.423828125 88.28515625 c 0
 58.5341796875 122.120117188 101.305664062 166.369140625 132.740234375 217.220703125 c 0
 132.740234375 217.891601562 132.73828125 218.561523438 132.73828125 219.232421875 c 0
 132.73828125 221.922851562 132.749023438 224.61328125 132.770507812 227.302734375 c 0
 132.266601562 230.68359375 132 234.243164062 132 238 c 0
 132 239.549804688 131.884765625 241.041015625 131.884765625 242.612304688 c 0
EndSplineSet
EndChar
StartChar: g
Encoding: 103 103 72
Width: 426
Flags: HW
LayerCount: 2
Fore
SplineSet
5 87 m 0
 2.240234375 87 0 89.240234375 0 92 c 0
 0 93.7880859375 0.9404296875 95.3583984375 2.353515625 96.2421875 c 0
 19.7109375 107.099609375 31.9794921875 127.404296875 47.630859375 141.693359375 c 0
 57.8134765625 150.989257812 68.603515625 163.225585938 76.4892578125 174.283203125 c 1
 84.2548828125 197.580078125 l 2
 84.9169921875 199.56640625 86.79296875 201 89 201 c 0
 91.759765625 201 94 198.759765625 94 196 c 0
 94 195.448242188 93.91015625 194.916015625 93.7451171875 194.419921875 c 2
 85.7451171875 170.419921875 l 2
 85.5888671875 169.952148438 85.365234375 169.514648438 85.0869140625 169.120117188 c 0
 76.6875 157.228515625 65.361328125 144.341796875 54.369140625 134.306640625 c 0
 38.0966796875 119.451171875 26.9248046875 99.8173828125 7.646484375 87.7578125 c 0
 6.87890625 87.27734375 5.9716796875 87 5 87 c 0
258.637695312 101.564453125 m 0
 246.690429688 101.564453125 234.434570312 102.139648438 222.72265625 102.139648438 c 0
 215.120117188 102.139648438 207.987304688 101.875976562 201.657226562 101.04296875 c 0
 178.864257812 98.0439453125 160.229492188 96.052734375 144.791992188 96.052734375 c 0
 115.590820312 96.052734375 96.828125 103.803710938 87.3125 126.484375 c 0
 79.95703125 144.017578125 78 169.291992188 78 205.94140625 c 0
 77.9697265625 207.295898438 77.9541015625 208.659179688 77.9541015625 210.030273438 c 0
 77.9541015625 295.319335938 137.483398438 418.69140625 225.850585938 418.69140625 c 0
 247.502929688 418.69140625 270.431640625 411.090820312 293.930664062 394.05078125 c 0
 301.056640625 388.8828125 307.815429688 374.704101562 314.399414062 360.333007812 c 0
 323.309570312 340.887695312 329.892578125 324.453125 329.994140625 322.234375 c 2
 335.994140625 192.234375 l 2
 335.998046875 192.15625 336 192.078125 336 191.946289062 c 2
 335.502929688 144.771484375 l 1
 335.975585938 144.919921875 336.478515625 145 337 145 c 0
 339.759765625 145 342 142.759765625 342 140 c 0
 342 139.21875 341.8203125 138.479492188 341.500976562 137.821289062 c 0
 339.685546875 134.081054688 337.615234375 130.721679688 335.323242188 127.705078125 c 1
 334.032226562 4.9931640625 l 1
 358.711914062 15.5625 378.565429688 30.6865234375 388.337890625 55.810546875 c 0
 390.608398438 61.646484375 406.377929688 78.2919921875 408.955078125 80.9990234375 c 2
 416.655273438 94.4755859375 l 2
 417.517578125 95.9833984375 419.140625 97 421 97 c 0
 423.759765625 97 426 94.759765625 426 92 c 0
 426 91.099609375 425.76171875 90.2548828125 425.344726562 89.5244140625 c 2
 417.344726562 75.5244140625 l 2
 416.713867188 74.4208984375 402.047851562 58.67578125 397.662109375 52.189453125 c 1
 385.877929688 21.8984375 361.568359375 4.919921875 333.0390625 -6.3681640625 c 1
 323.96484375 -82.5966796875 l 2
 323.955078125 -82.673828125 323.944335938 -82.75 323.931640625 -82.8271484375 c 2
 313.931640625 -142.827148438 l 2
 313.885742188 -143.104492188 313.81640625 -143.374023438 313.7265625 -143.634765625 c 2
 295.7265625 -195.634765625 l 2
 295.60546875 -195.983398438 295.447265625 -196.315429688 295.255859375 -196.625 c 0
 285.705078125 -212.067382812 271.358398438 -225.985351562 251.612304688 -225.985351562 c 0
 248.71875 -225.985351562 245.75 -225.681640625 242.71484375 -225.0546875 c 0
 239.451171875 -225.369140625 236.149414062 -225.528320312 232.836914062 -225.528320312 c 0
 203.135742188 -225.528320312 170.895507812 -212.522460938 162.361328125 -182 c 1
 151.831054688 -164.73828125 143.516601562 -145.586914062 143.516601562 -123.146484375 c 0
 143.516601562 -120.064453125 143.672851562 -116.927734375 144 -113.734375 c 0
 144.158203125 -42.9189453125 206.6796875 -28.7265625 265.887695312 -14.958984375 c 0
 286.018554688 -10.27734375 305.91796875 -5.5712890625 323.841796875 0.96875 c 1
 324.594726562 39.515625 324.705078125 78.7060546875 325.215820312 117.49609375 c 1
 307.329101562 103.629882812 282.282226562 101.564453125 258.637695312 101.564453125 c 0
251.612304688 -215.985351562 m 0
 266.001953125 -215.985351562 277.66796875 -205.862304688 286.456054688 -191.837890625 c 1
 304.13671875 -140.760742188 l 1
 314.048828125 -81.2880859375 l 1
 322.5078125 -10.23046875 l 1
 304.947265625 -16.2109375 286.2421875 -20.494140625 268.158203125 -24.69921875 c 0
 207.10546875 -38.8955078125 154.001953125 -51.5908203125 154 -114 c 0
 154 -117.096679688 153.516601562 -120.170898438 153.516601562 -123.146484375 c 0
 153.516601562 -143.2421875 161.018554688 -160.720703125 171.262695312 -177.38671875 c 0
 171.513671875 -177.794921875 171.708007812 -178.2421875 171.833984375 -178.717773438 c 0
 178.348632812 -203.298828125 205.029296875 -215.528320312 232.836914062 -215.528320312 c 0
 236.251953125 -215.528320312 239.640625 -215 243 -215 c 0
 245.93359375 -215 248.921875 -215.985351562 251.612304688 -215.985351562 c 0
88 206 m 0
 88 169.62890625 90.2470703125 145.342773438 96.5390625 130.346679688 c 0
 104.086914062 112.353515625 117.150390625 106.052734375 144.791992188 106.052734375 c 0
 159.356445312 106.052734375 177.690429688 107.9765625 200.342773438 110.95703125 c 0
 207.353515625 111.879882812 214.888671875 112.139648438 222.72265625 112.139648438 c 0
 234.506835938 112.139648438 246.760742188 111.564453125 258.637695312 111.564453125 c 0
 285.922851562 111.564453125 310.610351562 114.564453125 325.361328125 131.345703125 c 1
 325.999023438 191.909179688 l 1
 320.041992188 320.963867188 l 1
 318.670898438 324.5390625 312.4375 340.604492188 305.302734375 356.176757812 c 0
 298.83203125 370.299804688 291.037109375 383.797851562 288.069335938 385.94921875 c 0
 265.927734375 402.004882812 245.080078125 408.69140625 225.850585938 408.69140625 c 0
 147.150390625 408.69140625 87.9541015625 293.454101562 87.9541015625 210.030273438 c 0
 87.9541015625 208.676757812 88 207.334960938 88 206 c 0
EndSplineSet
EndChar
StartChar: h
Encoding: 104 104 73
Width: 607
Flags: HW
LayerCount: 2
Fore
SplineSet
242.989257812 413.575195312 m 1
 240.006835938 583.5546875 l 1
 230.661132812 640.735351562 221.893554688 698.494140625 213.196289062 756.323242188 c 1
 209.41796875 763.09765625 207.251953125 771.850585938 204.901367188 780.852539062 c 0
 199.459960938 801.688476562 194.017578125 819.71484375 178.990234375 821.798828125 c 1
 177.889648438 819.59765625 l 1
 172.012695312 757.888671875 l 1
 177.984375 641.430664062 l 1
 195.974609375 491.502929688 l 2
 201.922851562 435.309570312 206.647460938 377.892578125 213.44921875 322.552734375 c 1
 225.5546875 352.291992188 235.338867188 382.998046875 242.989257812 413.575195312 c 1
476.294921875 129.704101562 m 0
 476.294921875 66.4814453125 485.06640625 7 524 7 c 0
 530.84375 7 535.9140625 10.296875 541.966796875 12.2880859375 c 1
 585.736328125 70.6474609375 l 1
 597.540039062 93.861328125 l 2
 598.366210938 95.4853515625 600.053710938 96.599609375 602 96.599609375 c 0
 604.759765625 96.599609375 607 94.359375 607 91.599609375 c 0
 607 90.7861328125 606.805664062 90.017578125 606.459960938 89.337890625 c 2
 594.459960938 65.73828125 l 2
 594.328125 65.48046875 594.174804688 65.234375 594.001953125 65.00390625 c 2
 549.001953125 5.00390625 l 2
 548.368164062 4.1591796875 547.473632812 3.5205078125 546.436523438 3.2099609375 c 0
 538.834960938 0.9296875 534.018554688 -3 524 -3 c 0
 472.563476562 -3 466.294921875 70.0126953125 466.294921875 129.704101562 c 0
 466.294921875 157.061523438 468.166992188 184.40234375 468.166992188 209.291992188 c 0
 468.166992188 223.33203125 467.452148438 236.413085938 467.309570312 251.065429688 c 0
 466.682617188 315.408203125 465.368164062 384.328125 406.092773438 407.983398438 c 1
 395.473632812 407.58984375 382.943359375 400.380859375 370.594726562 389.626953125 c 0
 353.534179688 374.770507812 338.71484375 355.671875 326.909179688 340.883789062 c 0
 304.27734375 312.536132812 300.364257812 273.770507812 282.751953125 240.2890625 c 0
 279.883789062 227.05078125 269.831054688 214.189453125 269.831054688 200.059570312 c 0
 269.831054688 197.579101562 270.12890625 195.00390625 270.840820312 192.254882812 c 0
 270.944335938 191.854492188 271 191.43359375 271 191 c 0
 271 190.673828125 270.96875 190.354492188 270.909179688 190.045898438 c 2
 252.958007812 97.298828125 l 1
 243.98046875 -4.4443359375 l 2
 243.754882812 -6.99609375 241.609375 -9 239 -9 c 0
 236.334960938 -9 234.154296875 -6.91015625 234.0078125 -4.28125 c 2
 228.015625 103.569335938 l 1
 219.033203125 181.421875 l 2
 219.01171875 181.611328125 219 181.8046875 219 182 c 2
 219 202.671875 l 1
 208.158203125 285.793945312 l 1
 165.625976562 196.983398438 100.512695312 120.125 6.66796875 86.884765625 c 0
 6.146484375 86.7001953125 5.5849609375 86.599609375 5 86.599609375 c 0
 2.240234375 86.599609375 0 88.83984375 0 91.599609375 c 0
 0 93.7744140625 1.3916015625 95.626953125 3.33203125 96.314453125 c 0
 98.7294921875 130.104492188 164.170898438 211.240234375 205.7265625 304.43359375 c 1
 197.54296875 364.837890625 192.661132812 428.545898438 186.025390625 490.497070312 c 2
 168.036132812 640.399414062 l 2
 168.022460938 640.51171875 168.012695312 640.625 168.006835938 640.740234375 c 2
 162.006835938 757.740234375 l 2
 162.001953125 757.826171875 162 757.913085938 162 758 c 0
 162 758.161132812 162.0078125 758.321289062 162.022460938 758.479492188 c 2
 168.022460938 821.479492188 l 2
 168.08203125 822.103515625 168.256835938 822.694335938 168.525390625 823.231445312 c 0
 170.077148438 826.3359375 171.522460938 832 176 832 c 0
 202.713867188 832 209.380859375 803.282226562 214.578125 783.3828125 c 0
 217.03125 773.98828125 219.391601562 765.446289062 222.301757812 760.548828125 c 0
 222.623046875 760.0078125 222.845703125 759.401367188 222.943359375 758.75390625 c 0
 231.697265625 700.5234375 240.53125 642.373046875 249.9375 584.794921875 c 0
 249.973632812 584.564453125 249.995117188 584.329101562 249.999023438 584.088867188 c 2
 252.999023438 413.088867188 l 2
 253 412.58203125 252.948242188 412.176757812 252.8515625 411.788085938 c 0
 243.7421875 375.239257812 231.5859375 338.305664062 216.01171875 302.901367188 c 1
 228.958007812 203.651367188 l 2
 228.985351562 203.438476562 229 203.220703125 229 203 c 2
 229 182.291015625 l 1
 237.966796875 104.578125 l 2
 237.978515625 104.48046875 237.986328125 104.380859375 237.9921875 104.28125 c 2
 240.133789062 65.7373046875 l 1
 243.01953125 98.4443359375 l 2
 243.03515625 98.6171875 243.05859375 98.787109375 243.090820312 98.9541015625 c 2
 260.8828125 190.875976562 l 1
 260.155273438 194.037109375 259.831054688 197.1015625 259.831054688 200.059570312 c 0
 259.831054688 217.161132812 270.30859375 229.010742188 273.096679688 242.982421875 c 0
 273.192382812 243.463867188 273.358398438 243.920898438 273.58203125 244.342773438 c 0
 291.856445312 278.705078125 294.758789062 316.638671875 319.090820312 347.116210938 c 0
 330.984375 362.013671875 345.947265625 381.420898438 364.032226562 397.170898438 c 0
 377.330078125 408.750976562 391.973632812 418 407 418 c 0
 407.635742188 418 408.244140625 417.880859375 408.8046875 417.6640625 c 0
 476.59375 391.390625 476.6953125 314.1875 477.309570312 251.1640625 c 0
 477.455078125 236.252929688 478.166992188 223.39453125 478.166992188 209.291992188 c 0
 478.166992188 184.217773438 476.294921875 157.022460938 476.294921875 129.704101562 c 0
EndSplineSet
EndChar
StartChar: i
Encoding: 105 105 74
Width: 296
Flags: HW
LayerCount: 2
Fore
SplineSet
153 553 m 0
 153.342773438 553 153.676757812 552.965820312 154 552.899414062 c 0
 154.323242188 552.965820312 154.657226562 553 155 553 c 0
 156.379882812 553 157.629882812 552.439453125 158.53515625 551.53515625 c 2
 164.53515625 545.53515625 l 2
 165.439453125 544.629882812 166 543.379882812 166 542 c 0
 166 539.178710938 165.197265625 535.278320312 164.001953125 531.537109375 c 0
 163.642578125 530.411132812 162.64453125 525 157 525 c 0
 153.557617188 525 146.112304688 527.0703125 145.829101562 527.137695312 c 0
 143.633789062 527.666015625 142 529.643554688 142 532 c 0
 142 532.372070312 142.041015625 532.735351562 142.118164062 533.083984375 c 0
 143.318359375 538.502929688 144.947265625 545.311523438 148.924804688 550.896484375 c 0
 149.831054688 552.168945312 151.319335938 553 153 553 c 0
153.083007812 535.737304688 m 1
 153.639648438 535.615234375 154.18359375 535.499023438 154.682617188 535.396484375 c 0
 155.03515625 536.80859375 155.396484375 538.741210938 155.64453125 540.28515625 c 1
 154.892578125 541.037109375 l 1
 154.205078125 539.397460938 153.606445312 537.591796875 153.083007812 535.737304688 c 1
5 91 m 2
 2.240234375 91 0 93.240234375 0 96 c 0
 0 98.759765625 2.240234375 101 5 101 c 2
 8.8203125 101 l 1
 54.259765625 104.2578125 84.560546875 130.08984375 105.078125 166.249023438 c 1
 104.7109375 168.03515625 104.106445312 169.846679688 104.006835938 171.733398438 c 2
 100.006835938 247.733398438 l 2
 100.001953125 247.821289062 99.9912109375 247.911132812 99.9951171875 248 c 2
 104.004882812 342.215820312 l 2
 104.01171875 342.392578125 104.028320312 342.56640625 104.053710938 342.737304688 c 2
 112.053710938 396.737304688 l 2
 112.232421875 397.943359375 112.842773438 399.009765625 113.721679688 399.774414062 c 0
 120.254882812 405.455078125 115.750976562 412.971679688 124.92578125 418.111328125 c 0
 128.723632812 420.23828125 133.651367188 421 141 421 c 0
 159.616210938 421 160.758789062 395.264648438 160.758789062 381.038085938 c 0
 160.758789062 373.965820312 160.294921875 367.560546875 159.984375 363.603515625 c 0
 155.484375 306.310546875 148.03125 223.526367188 115.71875 164.166992188 c 1
 127.897460938 105.01171875 l 2
 127.912109375 104.938476562 127.92578125 104.865234375 127.9375 104.791015625 c 0
 132.11328125 78.5595703125 149.954101562 57.3232421875 172.291992188 37.7626953125 c 0
 187.801757812 24.1806640625 218.7890625 7 237 7 c 0
 239.114257812 7 244.689453125 11.78125 250.581054688 18.36328125 c 0
 252.6875 20.716796875 254.745117188 23.04296875 256.87109375 25.009765625 c 1
 267.13671875 47.5205078125 277.321289062 70.1123046875 286.35546875 93.8544921875 c 0
 287.092773438 95.697265625 288.895507812 97 291 97 c 0
 293.759765625 97 296 94.759765625 296 92 c 0
 296 91.3447265625 295.874023438 90.7197265625 295.64453125 90.1455078125 c 0
 291.630859375 80.111328125 287.995117188 69.8037109375 283.5625 59.9521484375 c 2
 265.5625 19.9521484375 l 2
 265.262695312 19.287109375 264.822265625 18.6982421875 264.278320312 18.2255859375 c 0
 262.608398438 16.7734375 260.408203125 14.3515625 258.033203125 11.6982421875 c 0
 252.899414062 5.9619140625 246.172851562 -3 237 -3 c 0
 214.095703125 -3 182.439453125 15.5859375 165.708007812 30.2373046875 c 0
 142.854492188 50.25 122.870117188 73.2685546875 118.080078125 103.096679688 c 1
 108.134765625 151.404296875 l 1
 86.3974609375 117.916015625 55.0634765625 94.228515625 9.35546875 91.0126953125 c 0
 9.23828125 91.00390625 9.119140625 91 9 91 c 2
 5 91 l 2
141 411 m 0
 134.344726562 411 131.057617188 410.083007812 129.801757812 409.379882812 c 0
 128.576171875 408.693359375 128.404296875 408.23828125 127.565429688 404.997070312 c 0
 126.822265625 402.123046875 125.629882812 397.65625 121.6953125 393.571289062 c 1
 113.984375 341.521484375 l 1
 110.005859375 248.025390625 l 1
 113.444335938 182.68359375 l 1
 138.591796875 237.717773438 145.73046875 309.83984375 150.015625 364.396484375 c 0
 150.319335938 368.266601562 150.758789062 374.403320312 150.758789062 381.038085938 c 0
 150.758789062 398.631835938 147.034179688 411 141 411 c 0
EndSplineSet
EndChar
StartChar: j
Encoding: 106 106 75
Width: 236
Flags: HW
LayerCount: 2
Fore
SplineSet
151 525 m 0
 153.759765625 525 156 522.759765625 156 519.999023438 c 1
 159.451171875 515.985351562 162.049804688 511.119140625 165.163085938 506.768554688 c 0
 165.69140625 505.975585938 166 505.0234375 166 504 c 2
 166 500 l 2
 166 493.333984375 159.947265625 489 155 489 c 0
 151.563476562 489 146.856445312 490.416015625 142.920898438 492.79296875 c 0
 141.336914062 493.749023438 138 495.63671875 138 500 c 0
 138 500.84765625 138.2109375 501.645507812 138.583984375 502.345703125 c 0
 139.196289062 503.49609375 139.490234375 505.470703125 139.716796875 508.27734375 c 0
 140.07421875 512.727539062 140.673828125 520.513671875 148.806640625 524.494140625 c 0
 149.46875 524.818359375 150.213867188 525 151 525 c 0
148.76953125 501.069335938 m 0
 150.682617188 500.223632812 153.875 499.227539062 154.784179688 499.033203125 c 0
 155.411132812 499.34375 155.911132812 500.017578125 156 500.141601562 c 2
 156 502.486328125 l 1
 150.09765625 511.33984375 l 1
 149.50390625 508.008789062 149.780273438 504.717773438 148.76953125 501.069335938 c 0
149.879882812 403.303710938 m 1
 148.75390625 404.668945312 145.793945312 406.841796875 143.856445312 408.109375 c 0
 135.110351562 399.791015625 133.056640625 389.42578125 133.056640625 376.930664062 c 0
 133.056640625 366.326171875 134.546875 355.161132812 134.546875 344.278320312 c 0
 133.705078125 328.416992188 132.295898438 310.51171875 132.295898438 294.428710938 c 0
 132.295898438 276.587890625 133.29296875 258.870117188 135.002929688 241.225585938 c 1
 144.182617188 271.081054688 148.466796875 303.221679688 148.466796875 335.444335938 c 0
 148.466796875 343.813476562 147.842773438 352.177734375 147.842773438 360.537109375 c 0
 147.842773438 374.995117188 149.811523438 388.963867188 149.879882812 403.303710938 c 1
129.913085938 200.948242188 m 1
 105.991210938 151.521484375 66.056640625 111.508789062 6.466796875 93.21875 c 0
 6.0029296875 93.0771484375 5.5107421875 93 5 93 c 0
 2.240234375 93 0 95.240234375 0 98 c 0
 0 100.249023438 1.48828125 102.153320312 3.533203125 102.78125 c 0
 65.5126953125 121.803710938 105.411132812 165.702148438 127.341796875 219.666015625 c 1
 124.237304688 244.334960938 122.295898438 269.211914062 122.295898438 294.428710938 c 0
 122.295898438 307.670898438 122.833007812 321.00390625 124.01953125 334.444335938 c 0
 124.301757812 337.639648438 124.546875 340.8984375 124.546875 344.278320312 c 0
 124.546875 354.956054688 123.056640625 366.1171875 123.056640625 376.930664062 c 0
 123.056640625 391.578125 125.931640625 406.625976562 139.859375 417.889648438 c 0
 140.717773438 418.583984375 141.810546875 419 143 419 c 0
 145.641601562 419 146.793945312 418.05078125 148.221679688 417.239257812 c 0
 150.0546875 416.198242188 152.047851562 414.809570312 153.911132812 413.262695312 c 0
 156.163085938 411.393554688 160 408.971679688 160 404 c 0
 160 389.248046875 157.842773438 375.036132812 157.842773438 360.537109375 c 0
 157.842773438 352.162109375 158.466796875 343.828125 158.466796875 335.444335938 c 0
 158.466796875 295.364257812 151.9375 254.91796875 137.584960938 218.479492188 c 1
 146.818359375 146.970703125 165.610351562 76.9521484375 175.1171875 5.1953125 c 1
 186.538085938 20.05859375 197.750976562 34.75390625 206.646484375 50.458984375 c 0
 211.727539062 59.4306640625 224 81.015625 224 86 c 2
 224 100 l 2
 224 102.759765625 226.240234375 105 229 105 c 0
 231.340820312 105 233.307617188 103.387695312 233.8515625 101.21484375 c 0
 234.568359375 98.345703125 236 95.126953125 236 92 c 0
 236 90.365234375 235.213867188 88.9130859375 234 88.0009765625 c 1
 234 86 l 2
 234 74.5791015625 220.87890625 55.296875 215.353515625 45.541015625 c 0
 204.319335938 26.05859375 190.258789062 8.609375 176.89453125 -8.9228515625 c 1
 182.763671875 -56.6875 188 -105.419921875 188 -154 c 0
 188 -160.338867188 185.956054688 -178.778320312 181.3125 -194.8125 c 0
 177.98046875 -206.317382812 172.811523438 -221 161 -221 c 0
 160.752929688 -221 160.510742188 -220.982421875 160.2734375 -220.947265625 c 0
 135.25 -217.296875 109.471679688 -202.235351562 109.471679688 -175.713867188 c 0
 109.471679688 -171.11328125 110.27734375 -166.305664062 111.942382812 -161.325195312 c 0
 111.759765625 -158.454101562 111.671875 -155.580078125 111.671875 -152.708984375 c 0
 111.671875 -129.669921875 117.252929688 -106.853515625 124.176757812 -86.6484375 c 0
 131.08984375 -55.2021484375 148.36328125 -29.9970703125 166.469726562 -6.103515625 c 1
 157.795898438 64.0244140625 140.151367188 131.903320312 129.913085938 200.948242188 c 1
122 -162 m 0
 122 -162.586914062 121.8984375 -163.151367188 121.711914062 -163.674804688 c 0
 120.1484375 -168.067382812 119.471679688 -172.076171875 119.471679688 -175.713867188 c 0
 119.471679688 -194.3203125 138.120117188 -207.456054688 161.216796875 -210.9765625 c 0
 163.237304688 -210.561523438 168.051757812 -204.642578125 171.705078125 -192.029296875 c 0
 175.965820312 -177.319335938 178 -158.715820312 178 -154 c 0
 178 -109.609375 173.545898438 -64.7998046875 168.2265625 -20.498046875 c 1
 152.828125 -41.5634765625 139.499023438 -63.26953125 133.885742188 -89.06640625 c 0
 133.844726562 -89.2568359375 133.791992188 -89.4423828125 133.729492188 -89.6240234375 c 0
 126.974609375 -109.279296875 121.671875 -131.213867188 121.671875 -152.708984375 c 0
 121.671875 -155.81640625 122 -158.913085938 122 -162 c 0
EndSplineSet
EndChar
StartChar: k
Encoding: 107 107 76
Width: 434
Flags: HW
LayerCount: 2
Fore
SplineSet
117.049804688 776.694335938 m 1
 102.592773438 751.825195312 97.064453125 720.33203125 97.064453125 685.000976562 c 0
 97.064453125 635.048828125 108.09765625 577.83203125 119.015625 522.34375 c 1
 120.970703125 549.274414062 121.955078125 576.342773438 121.955078125 603.505859375 c 0
 121.955078125 625.514648438 121.30859375 647.587890625 120.008789062 669.702148438 c 0
 119.991210938 669.999023438 119.991210938 670.2109375 119.991210938 670.48046875 c 0
 119.991210938 684.681640625 120.859375 698.37109375 120.859375 719.51953125 c 0
 120.859375 740.368164062 120.926757812 761.201171875 117.049804688 776.694335938 c 1
87.064453125 685.000976562 m 0
 87.064453125 724.530273438 93.685546875 760.583007812 112.861328125 788.8046875 c 0
 113.760742188 790.12890625 115.279296875 791 117 791 c 0
 121.991210938 791 124.198242188 786.745117188 125.294921875 784.147460938 c 0
 126.916992188 780.3046875 127.8828125 775.323242188 128.657226562 769.306640625 c 0
 130.39453125 755.81640625 130.859375 737.15234375 130.859375 719.51953125 c 0
 130.859375 698.384765625 129.991210938 684.447265625 129.991210938 670.48046875 c 0
 129.991210938 670.375 129.993164062 670.296875 129.993164062 670.268554688 c 0
 131.303710938 647.966796875 131.955078125 625.705078125 131.955078125 603.505859375 c 0
 131.955078125 564.39453125 129.932617188 525.481445312 125.928710938 486.885742188 c 1
 133.688476562 446.118164062 140 407.336914062 140 374 c 0
 140 324.1171875 144.5625 274.130859375 147.887695312 225.547851562 c 1
 149.11328125 238.149414062 150.490234375 251.168945312 152.033203125 264.577148438 c 0
 158.720703125 322.694335938 234.23046875 407 295 407 c 0
 295.45703125 407 295.900390625 406.938476562 296.321289062 406.823242188 c 0
 352.55859375 391.432617188 370.676757812 338.009765625 370.676757812 287.220703125 c 0
 370.676757812 281.50390625 370.451171875 275.80078125 370.026367188 270.158203125 c 0
 370.7578125 264.829101562 371.112304688 259.547851562 371.112304688 254.338867188 c 0
 371.112304688 195.467773438 325.646484375 146.502929688 267.372070312 146.502929688 c 0
 259.967773438 146.502929688 252.379882812 147.294921875 244.681640625 148.950195312 c 0
 240.427734375 148.580078125 235.724609375 148.381835938 230.721679688 148.381835938 c 0
 229.380859375 148.5234375 202.911132812 149.615234375 188.775390625 152.803710938 c 1
 199.174804688 131.361328125 224.034179688 76.4716796875 231.030273438 66.9580078125 c 0
 231.29296875 66.6005859375 231.509765625 66.2080078125 231.669921875 65.7880859375 c 0
 248.244140625 22.56640625 291.311523438 7 347 7 c 0
 373.16015625 7 384.905273438 27.0029296875 397.946289062 49.8662109375 c 0
 401.966796875 56.9150390625 406.029296875 64.0595703125 410.703125 70.587890625 c 1
 424.525390625 98.2314453125 l 2
 425.345703125 99.8720703125 427.041992188 101 429 101 c 0
 431.759765625 101 434 98.759765625 434 96 c 0
 434 95.1982421875 433.810546875 94.4404296875 433.474609375 93.7685546875 c 2
 419.474609375 65.7685546875 l 2
 419.354492188 65.52734375 419.21484375 65.296875 419.057617188 65.0791015625 c 0
 400.612304688 39.5126953125 389.579101562 -3 347 -3 c 0
 290.23828125 -3 241.521484375 13.083984375 222.563476562 61.6064453125 c 0
 216.756835938 69.8759765625 206.538085938 91.9130859375 195.073242188 116.26171875 c 0
 188.702148438 129.791992188 181.909179688 144.015625 175.721679688 156.430664062 c 1
 167.232421875 159.291992188 159.467773438 162.994140625 153.098632812 167.87109375 c 1
 152.784179688 163.354492188 152.491210938 158.915039062 152.217773438 154.552734375 c 0
 154.8125 105.241210938 155.758789062 68.6982421875 155.758789062 43.4990234375 c 0
 155.758789062 26.8603515625 155.352539062 15.1904296875 154.708984375 7.8876953125 c 0
 154.1953125 2.048828125 154.259765625 -5.005859375 147.946289062 -5.005859375 c 0
 143.369140625 -5.005859375 142.55859375 -1.3173828125 141.954101562 1.400390625 c 0
 141.40234375 3.8779296875 140.958984375 7.31640625 140.549804688 11.9619140625 c 0
 139.634765625 22.375 138.989257812 38.6826171875 138.989257812 60.251953125 c 0
 138.989257812 85.1328125 139.854492188 116.985351562 142.200195312 154.602539062 c 0
 141.71875 163.72265625 141.181640625 173.28125 140.583007812 183.286132812 c 0
 138.927734375 187.138671875 138 191.375976562 138 196 c 0
 138 197.434570312 138.60546875 198.728515625 139.57421875 199.640625 c 0
 136.010742188 255.84765625 130 315.40625 130 374 c 0
 130 397.486328125 126.682617188 424.295898438 121.881835938 452.90234375 c 1
 105.079101562 328.015625 67.447265625 206.8671875 10.40234375 93.6064453125 c 1
 10.9736328125 91.8935546875 12 90.060546875 12 88 c 0
 12 85.240234375 9.759765625 83 7 83 c 0
 4.79296875 83 2.9169921875 84.43359375 2.2548828125 86.419921875 c 0
 1.490234375 88.7138671875 0 91.3154296875 0 94 c 0
 0 94.8095703125 0.193359375 95.5751953125 0.53515625 96.251953125 c 0
 62.5146484375 218.760742188 101.55078125 350.604492188 115.825195312 486.424804688 c 1
 103.897460938 549.067382812 87.064453125 623.236328125 87.064453125 685.000976562 c 0
245 159 m 0
 245.374023438 159 245.737304688 158.958984375 246.087890625 158.880859375 c 0
 253.356445312 157.265625 260.47265625 156.502929688 267.372070312 156.502929688 c 0
 319.728515625 156.502929688 361.112304688 200.557617188 361.112304688 254.338867188 c 0
 361.112304688 259.247070312 360.766601562 264.241210938 360.049804688 269.29296875 c 0
 360.016601562 269.5234375 360 269.759765625 360 270 c 0
 360 275.708007812 360.676757812 281.462890625 360.676757812 287.220703125 c 0
 360.676757812 336.099609375 343.715820312 383.111328125 294.331054688 396.99609375 c 1
 240.900390625 396.333007812 168.094726562 316.666992188 161.966796875 263.422851562 c 0
 159.447265625 241.530273438 157.373046875 220.6796875 155.6796875 201 c 1
 156.649414062 201 l 2
 156.85546875 201.020507812 157.059570312 201.030273438 157.260742188 201.030273438 c 0
 162.208984375 201.030273438 164.290039062 197.130859375 166.19140625 194.521484375 c 0
 171.411132812 187.359375 177.979492188 174.569335938 182.877929688 164.788085938 c 1
 198.065429688 160.348632812 215.833007812 158.381835938 230.721679688 158.381835938 c 0
 235.958007812 158.381835938 240.678710938 159 245 159 c 0
168.779296875 170.05859375 m 1
 163.228515625 180.659179688 158.685546875 188.471679688 156.170898438 191 c 1
 154.84375 191 l 1
 154.556640625 187.46875 154.283203125 183.9765625 154.020507812 180.525390625 c 0
 157.809570312 176.245117188 163.091796875 172.7734375 168.779296875 170.05859375 c 1
EndSplineSet
EndChar
StartChar: l
Encoding: 108 108 77
Width: 302
Flags: HW
LayerCount: 2
Fore
SplineSet
202.391601562 706.606445312 m 0
 202.391601562 681.181640625 200.91796875 661.056640625 200.91796875 639.798828125 c 0
 200.91796875 638.220703125 200.942382812 636.872070312 201.0078125 635.71484375 c 0
 202.157226562 615.337890625 202.782226562 594.650390625 202.782226562 573.811523438 c 0
 202.782226562 465.184570312 185.802734375 352.791992188 138.0625 258.40234375 c 1
 129.979492188 320.32421875 125.770507812 372.515625 125.770507812 436.775390625 c 0
 125.770507812 528.947265625 134.790039062 621.236328125 147.946289062 710.263671875 c 0
 152.93359375 749.407226562 156.2265625 790.134765625 175.499023438 819.759765625 c 1
 183.408203125 818.211914062 189.924804688 809.158203125 194.565429688 792.125976562 c 0
 200.75 769.426757812 202.391601562 736.475585938 202.391601562 706.606445312 c 0
210.91796875 639.798828125 m 0
 210.91796875 660.819335938 212.391601562 681.174804688 212.391601562 706.606445312 c 0
 212.391601562 736.854492188 210.876953125 770.306640625 204.21484375 794.756835938 c 0
 199.05859375 813.681640625 189.985351562 830 173 830 c 0
 171.30078125 830 169.798828125 829.150390625 168.89453125 827.853515625 c 0
 146.059570312 795.079101562 143.22265625 752.301757812 138.053710938 711.736328125 c 0
 124.848632812 622.375 115.770507812 529.611328125 115.770507812 436.775390625 c 0
 115.770507812 364.3125 120.319335938 314.033203125 130.001953125 243.170898438 c 1
 99.5595703125 188.170898438 57.9453125 139.97265625 2.2490234375 103.174804688 c 0
 0.89453125 102.280273438 0 100.743164062 0 99 c 2
 0 93 l 2
 0 90.240234375 2.240234375 88 5 88 c 0
 7.759765625 88 10 90.240234375 10 93 c 2
 10 96.322265625 l 1
 62.2822265625 131.376953125 102.240234375 176.154296875 132.28125 226.9296875 c 1
 141.590820312 162.311523438 157.501953125 67.8447265625 181.741210938 17.818359375 c 0
 190.420898438 -0.095703125 200.82421875 -14 215.024414062 -14 c 0
 233.690429688 -13.91015625 249.053710938 -0.7216796875 261.41015625 15.28125 c 0
 280.536132812 40.05078125 290.436523438 66.501953125 301.505859375 89.4306640625 c 0
 301.822265625 90.0869140625 302 90.822265625 302 91.599609375 c 0
 302 94.359375 299.759765625 96.599609375 297 96.599609375 c 0
 295.017578125 96.599609375 293.302734375 95.443359375 292.494140625 93.7685546875 c 0
 281.581054688 71.1630859375 271.51171875 44.7236328125 253.491210938 21.3857421875 c 0
 241.71875 6.1396484375 228.6171875 -3.9345703125 214.9296875 -4 c 0
 208.208007812 -4 199.450195312 4.205078125 190.74609375 22.1689453125 c 0
 166.09375 73.048828125 149.274414062 176.796875 140.375 241.189453125 c 1
 194.217773438 340.109375 212.782226562 459.6015625 212.782226562 573.811523438 c 0
 212.782226562 594.854492188 212.151367188 615.73046875 210.9921875 636.28515625 c 0
 210.944335938 637.135742188 210.91796875 638.3359375 210.91796875 639.798828125 c 0
EndSplineSet
EndChar
StartChar: m
Encoding: 109 109 78
Width: 650
Flags: HW
LayerCount: 2
Fore
SplineSet
177.944335938 400.9140625 m 0
 175.098632812 400.439453125 173.150390625 399 169 399 c 2
 159 399 l 2
 154.564453125 399 148.603515625 395.009765625 142.319335938 387.337890625 c 0
 134.666015625 377.994140625 127.365234375 364.635742188 121.444335938 353.72265625 c 0
 118.330078125 347.984375 115.609375 342.940429688 113.176757812 339.251953125 c 0
 72.3896484375 277.41015625 40.4658203125 209.233398438 21.8349609375 138.720703125 c 0
 21.7724609375 138.487304688 21.6943359375 138.259765625 21.6005859375 138.041015625 c 0
 15.087890625 122.780273438 13.5224609375 106.591796875 10 89.4833984375 c 1
 10 86 l 2
 10 83.240234375 7.759765625 81 5 81 c 0
 2.240234375 81 0 83.240234375 0 86 c 2
 0 90 l 2
 0 90.3505859375 0.0361328125 90.6923828125 0.1044921875 91.0224609375 c 0
 3.8203125 108.868164062 5.0654296875 124.595703125 12.2568359375 141.623046875 c 0
 31.2119140625 213.189453125 63.564453125 282.190429688 104.823242188 344.748046875 c 0
 106.836914062 347.80078125 109.545898438 352.763671875 112.6484375 358.481445312 c 0
 118.587890625 369.427734375 126.012695312 383.208007812 134.580078125 393.66796875 c 0
 141.2734375 401.83984375 149.24609375 409 159 409 c 2
 169 409 l 2
 172.356445312 409 174.545898438 411 179 411 c 0
 179.787109375 411 180.532226562 410.817382812 181.194335938 410.493164062 c 0
 199.838867188 401.361328125 206.515625 380.827148438 215.297851562 364.564453125 c 0
 225.604492188 348.840820312 226.372070312 329.743164062 231.794921875 311.419921875 c 0
 234.58203125 302.002929688 236.881835938 292.408203125 238.763671875 282.686523438 c 1
 249.94921875 303.91796875 260.998046875 323.217773438 277.110351562 343.140625 c 0
 295.385742188 365.739257812 314.823242188 411 349 411 c 0
 349.51953125 411 350.021484375 410.920898438 350.493164062 410.772460938 c 0
 378.626953125 401.96875 399.248046875 368.673828125 399.998046875 338.125 c 0
 400.086914062 334.521484375 400.7890625 330.744140625 401.713867188 326.736328125 c 1
 410.234375 353.515625 l 2
 410.545898438 354.494140625 411.150390625 355.342773438 411.9453125 355.95703125 c 0
 438.606445312 376.575195312 441.458984375 415 491 415 c 0
 500.397460938 415 507.348632812 408.815429688 512.46484375 401.58984375 c 0
 518.954101562 392.424804688 523.521484375 380.408203125 527.497070312 370.140625 c 0
 530.40625 362.62890625 533.067382812 355.993164062 535.1953125 352.719726562 c 0
 535.634765625 352.043945312 535.915039062 351.255859375 535.983398438 350.409179688 c 0
 543.975585938 264.885742188 547.455078125 174.747070312 551.998046875 86.1591796875 c 1
 553.990234375 22.376953125 l 1
 555.6484375 8.7119140625 563.77734375 4.990234375 577.846679688 4.990234375 c 0
 591.643554688 4.990234375 594.784179688 6.359375 605.067382812 13.3681640625 c 1
 626.369140625 57.9072265625 l 1
 640.279296875 97.650390625 l 2
 640.961914062 99.599609375 642.818359375 101 645 101 c 0
 647.759765625 101 650 98.759765625 650 96 c 0
 650 95.421875 649.901367188 94.8662109375 649.720703125 94.349609375 c 2
 635.720703125 54.349609375 l 2
 635.66015625 54.177734375 635.590820312 54.009765625 635.513671875 53.84765625 c 2
 613.513671875 7.84765625 l 2
 613.131835938 7.0498046875 612.544921875 6.3681640625 611.821289062 5.873046875 c 0
 600.166015625 -2.1142578125 593.439453125 -5.009765625 577.846679688 -5.009765625 c 0
 561.553710938 -5.009765625 546.37109375 1.23046875 544.033203125 21.419921875 c 0
 544.017578125 21.55859375 544.006835938 21.69921875 544.002929688 21.8408203125 c 0
 541.9375 108.295898438 536.528320312 191.328125 532.010742188 275.66015625 c 1
 526.114257812 348.389648438 l 1
 523.2734375 353.14453125 520.876953125 359.5390625 518.16796875 366.53515625 c 0
 510.532226562 386.254882812 501.784179688 405 491 405 c 0
 462.640625 405 453.572265625 391.662109375 441.673828125 374.80859375 c 0
 435.678710938 366.317382812 429.125976562 356.962890625 419.302734375 349.029296875 c 1
 419.302734375 349.029296875 405.818359375 306.6484375 405.795898438 306.55859375 c 0
 405.903320312 305.333984375 405.971679688 304.088867188 405.993164062 302.822265625 c 0
 411.282226562 286.486328125 412.434570312 269.62109375 412.434570312 252.936523438 c 0
 412.434570312 239.012695312 411.60546875 224.9765625 411.60546875 211.17578125 c 0
 411.60546875 197.258789062 412.477539062 183.852539062 415.831054688 171.291015625 c 0
 418.045898438 162.998046875 420.372070312 123.719726562 420.372070312 82.9541015625 c 0
 420.372070312 57.677734375 419.396484375 32.271484375 416.517578125 14.2451171875 c 0
 415.234375 6.21484375 413.640625 -0.373046875 411.181640625 -5.25 c 0
 409.3515625 -8.8798828125 406.25390625 -13 401 -13 c 0
 400.391601562 -13 399.80859375 -12.8916015625 399.26953125 -12.6923828125 c 0
 385.94921875 -7.771484375 385.756835938 4.27734375 379.044921875 12.94140625 c 0
 372.372070312 21.5556640625 367.427734375 35.3916015625 364.28125 44.34375 c 0
 364.098632812 44.8623046875 364 45.419921875 364.000976562 46.078125 c 2
 366.000976562 176.078125 l 2
 366.005859375 176.399414062 366.041015625 176.712890625 366.103515625 177.016601562 c 0
 374.736328125 221.639648438 385.044921875 264.586914062 395.6640625 307.22265625 c 1
 394.438476562 317.286132812 390.270507812 326.913085938 390.001953125 337.875 c 0
 389.346679688 364.509765625 370.739257812 393.453125 348.244140625 400.98828125 c 1
 329.499023438 400.401367188 313.42578125 378.0859375 298.482421875 355.927734375 c 0
 293.834960938 349.036132812 289.375 342.40625 284.889648438 336.859375 c 0
 269.282226562 317.560546875 258.58984375 298.8828125 247.427734375 277.67578125 c 0
 245.405273438 273.833984375 243.290039062 270.112304688 241.567382812 266.076171875 c 0
 245.01953125 242.303710938 246.26171875 217.961914062 246.26171875 193.76953125 c 0
 246.26171875 186.119140625 245.967773438 178.588867188 245.967773438 170.953125 c 0
 245.967773438 155.696289062 246.641601562 141.489257812 246.641601562 123.3828125 c 0
 246.641601562 93.0546875 245.262695312 56.2255859375 237.922851562 28.7919921875 c 0
 232.225585938 7.4970703125 222.100585938 -11 203 -11 c 0
 200.865234375 -11 199.041992188 -9.66015625 198.325195312 -7.775390625 c 0
 190.556640625 12.642578125 188.731445312 38.3935546875 188.006835938 61.7138671875 c 0
 187.721679688 65.197265625 187.588867188 68.6357421875 187.588867188 72.033203125 c 0
 187.588867188 115.448242188 209.124023438 151.572265625 212.012695312 192.357421875 c 0
 212.038085938 192.715820312 212.1015625 193.063476562 212.198242188 193.397460938 c 0
 219.423828125 218.234375 221.854492188 243.954101562 231.2578125 267.364257812 c 1
 229.111328125 281.4140625 226.165039062 295.189453125 222.219726562 308.529296875 c 0
 216.784179688 325.552734375 215.5703125 346.037109375 206.828125 359.245117188 c 0
 204.926757812 362.116210938 203.5078125 365.583984375 201.900390625 368.821289062 c 0
 195.38671875 381.94140625 188.474609375 395.095703125 177.944335938 400.9140625 c 0
402.434570312 252.936523438 m 0
 402.434570312 263.4921875 401.943359375 273.849609375 400.279296875 283.879882812 c 1
 391.274414062 248.64453125 383.322265625 212.356445312 375.9921875 175.446289062 c 1
 374.013671875 46.822265625 l 1
 377.107421875 38.095703125 382.064453125 25.3701171875 386.955078125 19.05859375 c 0
 392.099609375 12.41796875 394.663085938 0.9697265625 401.129882812 -2.5810546875 c 1
 404.282226562 1.3125 405.342773438 7.6904296875 406.642578125 15.83203125 c 0
 409.356445312 32.8203125 410.372070312 57.9755859375 410.372070312 82.9541015625 c 0
 410.372070312 122.865234375 407.565429688 163.475585938 406.168945312 168.708984375 c 0
 402.473632812 182.549804688 401.60546875 196.850585938 401.60546875 211.17578125 c 0
 401.60546875 225.064453125 402.434570312 239.103515625 402.434570312 252.936523438 c 0
236.26171875 193.76953125 m 0
 236.26171875 210.418945312 235.659179688 227.075195312 234.151367188 243.491210938 c 1
 229.676757812 226.084960938 226.989257812 208.58984375 221.948242188 191.109375 c 0
 218.909179688 150.345703125 197.588867188 113.814453125 197.588867188 72.033203125 c 0
 197.588867188 68.771484375 197.89453125 65.4853515625 197.998046875 62.1572265625 c 0
 198.665039062 40.580078125 200.431640625 17.3388671875 206.3984375 -0.6337890625 c 1
 215.83984375 1.4501953125 223.181640625 12.3955078125 228.26171875 31.3798828125 c 0
 235.134765625 57.0703125 236.641601562 93.40625 236.641601562 123.3828125 c 0
 236.641601562 141.436523438 235.967773438 155.614257812 235.967773438 170.953125 c 0
 235.967773438 178.588867188 236.26171875 186.13671875 236.26171875 193.76953125 c 0
EndSplineSet
EndChar
StartChar: n
Encoding: 110 110 79
Width: 488
Flags: HW
LayerCount: 2
Fore
SplineSet
5 87 m 0
 2.240234375 87 0 89.240234375 0 92 c 0
 0 92.634765625 0.1181640625 93.2421875 0.3349609375 93.80078125 c 0
 40.7666015625 198.348632812 65.6328125 296.637695312 135.135742188 381.171875 c 0
 144.29296875 392.309570312 155.791992188 413 175 413 c 0
 185.048828125 413 192.528320312 405.899414062 198.193359375 397.749023438 c 0
 205.416992188 387.354492188 210.783203125 373.697265625 215.284179688 362.399414062 c 0
 218.40625 354.5625 221.204101562 347.776367188 223.192382812 344.724609375 c 0
 223.620117188 344.068359375 223.897460938 343.306640625 223.9765625 342.486328125 c 2
 228.432617188 296.438476562 l 1
 234.380859375 310.981445312 240.36328125 325.474609375 246.3828125 339.919921875 c 0
 246.541992188 340.301757812 246.747070312 340.659179688 246.991210938 340.986328125 c 0
 272.206054688 374.763671875 291.200195312 419 351 419 c 0
 372.772460938 419 383.826171875 392.70703125 396.296875 381.7578125 c 0
 397.171875 380.989257812 397.77734375 379.919921875 397.94921875 378.711914062 c 2
 405.94921875 322.711914062 l 2
 405.982421875 322.479492188 406 322.2421875 406 322 c 0
 406 321.774414062 405.985351562 321.551757812 405.956054688 321.333984375 c 0
 400.978515625 283.030273438 393.981445312 245.206054688 389.9765625 207.471679688 c 0
 383.473632812 146.19921875 384.202148438 80.77734375 382.083984375 16.6611328125 c 1
 385.44140625 14.296875 387.830078125 11.81640625 389.774414062 9.802734375 c 0
 394.045898438 5.3779296875 395.698242188 3 405 3 c 0
 433.00390625 3 440.880859375 21.4921875 450.05859375 42.9423828125 c 0
 453.23046875 50.357421875 456.439453125 57.9296875 460.791015625 64.6982421875 c 2
 478.791015625 92.6982421875 l 2
 479.680664062 94.08203125 481.234375 95 483 95 c 0
 485.759765625 95 488 92.759765625 488 90 c 0
 488 89.0068359375 487.709960938 88.080078125 487.208984375 87.3017578125 c 2
 469.208984375 59.3017578125 l 2
 465.494140625 53.5224609375 462.4296875 46.4326171875 459.256835938 39.0166015625 c 0
 450.341796875 18.177734375 439.536132812 -7 405 -7 c 0
 386.4453125 -7 384.883789062 3.515625 374.456054688 9.6953125 c 0
 372.986328125 10.56640625 371.998046875 12.1689453125 371.998046875 14 c 0
 374.180664062 79.259765625 375.1484375 145.734375 380.009765625 208.31640625 c 0
 380.018554688 208.458007812 380.033203125 208.598632812 380.053710938 208.737304688 c 0
 385.760742188 246.076171875 391.012695312 283.870117188 395.952148438 321.9765625 c 1
 388.299804688 375.544921875 l 1
 385.294921875 378.479492188 382.376953125 382.227539062 379.220703125 386.206054688 c 0
 370.088867188 397.721679688 360.1015625 409 351 409 c 0
 297.291992188 409 280.0546875 368.733398438 255.380859375 335.512695312 c 1
 246.79296875 314.89453125 238.27734375 294.17578125 229.829101562 273.356445312 c 1
 225.998046875 125.868164062 l 2
 225.994140625 125.7109375 225.983398438 125.556640625 225.96484375 125.403320312 c 2
 215.997070312 41.677734375 l 2
 215.903320312 35.7236328125 213.25390625 22.3994140625 208.407226562 10.603515625 c 0
 204.806640625 1.83984375 199.217773438 -9 189 -9 c 0
 187.12890625 -9 185.497070312 -7.970703125 184.639648438 -6.447265625 c 0
 175.530273438 9.732421875 173.776367188 29.2109375 173.776367188 47.7626953125 c 0
 173.776367188 51.86328125 173.866210938 55.9267578125 173.994140625 59.912109375 c 0
 173.59765625 65.87890625 173.409179688 71.7763671875 173.409179688 77.59765625 c 0
 173.409179688 122.059570312 184.427734375 162.024414062 198.16796875 195.399414062 c 1
 206.07421875 240.861328125 l 2
 206.133789062 241.205078125 206.229492188 241.538085938 206.35546875 241.854492188 c 0
 210.844726562 253.077148438 215.352539062 264.270507812 219.879882812 275.436523438 c 1
 219.993164062 279.821289062 l 1
 214.135742188 340.353515625 l 1
 211.388671875 344.947265625 208.900390625 351.3984375 205.989257812 358.705078125 c 0
 201.500976562 369.97265625 196.19921875 383.09765625 189.975585938 392.05078125 c 0
 184.883789062 399.37890625 179.828125 403 175 403 c 0
 163.372070312 403 151.747070312 385.631835938 142.864257812 374.828125 c 0
 75.103515625 292.4140625 49.7607421875 193.876953125 9.6650390625 90.19921875 c 0
 8.94140625 88.328125 7.125 87 5 87 c 0
184 60 m 0
 184 55.9453125 183.776367188 51.8525390625 183.776367188 47.7626953125 c 0
 183.776367188 31.41015625 185.3515625 15.2841796875 191.420898438 2.234375 c 1
 193.60546875 4.0712890625 196.530273438 8.01171875 199.153320312 14.3974609375 c 0
 203.485351562 24.94140625 206 38.732421875 206 42 c 0
 206 42.2021484375 206.01171875 42.400390625 206.03515625 42.5966796875 c 2
 216.0078125 126.365234375 l 1
 219.137695312 246.86328125 l 1
 218.036132812 244.120117188 216.936523438 241.375 215.836914062 238.626953125 c 2
 207.92578125 193.138671875 l 2
 207.862304688 192.775390625 207.760742188 192.42578125 207.623046875 192.09375 c 0
 194.134765625 159.4609375 183.409179688 120.5859375 183.409179688 77.59765625 c 0
 183.409179688 71.80859375 184 65.9306640625 184 60 c 0
EndSplineSet
EndChar
StartChar: o
Encoding: 111 111 80
Width: 325
Flags: HW
LayerCount: 2
Fore
SplineSet
63.822265625 120.990234375 m 1
 61.7880859375 157.555664062 44.4482421875 191.723632812 44 229.940429688 c 0
 44 244.01171875 45.62890625 257.29296875 48.0791015625 270.890625 c 0
 58.296875 327.596679688 89.537109375 403.661132812 153.342773438 416.767578125 c 0
 162.873046875 421.548828125 173.543945312 423.78125 184.146484375 423.78125 c 0
 210.678710938 423.78125 238.5703125 409.268554688 243.916015625 382.348632812 c 1
 264.758789062 364.576171875 280.251953125 339.639648438 286.8515625 313.213867188 c 0
 286.927734375 312.907226562 286.9765625 312.588867188 286.993164062 312.262695312 c 0
 287.673828125 299.162109375 292.040039062 288.23828125 296.856445312 276.337890625 c 0
 301.456054688 264.970703125 306.436523438 252.75 307.974609375 237.506835938 c 0
 309.206054688 225.310546875 314.504882812 201.4375 319.498046875 191.184570312 c 0
 319.784179688 190.59765625 319.958007812 189.947265625 319.993164062 189.259765625 c 2
 324.993164062 91.859375 l 2
 324.998046875 91.7734375 325 91.6865234375 325 91.599609375 c 0
 325 88.83984375 322.759765625 86.599609375 320 86.599609375 c 0
 317.327148438 86.599609375 315.142578125 88.7001953125 315.006835938 91.33984375 c 2
 310.057617188 187.751953125 l 1
 304.189453125 200.431640625 299.350585938 223.36328125 298.025390625 236.493164062 c 0
 295.20703125 264.42578125 278.72265625 282.276367188 277.034179688 311.240234375 c 1
 271.653320312 332.415039062 260.048828125 352.44921875 244.603515625 367.9921875 c 1
 244.224609375 363.869140625 243.362304688 359.591796875 241.984375 355.173828125 c 0
 241.971679688 354.575195312 241.955078125 353.978515625 241.934570312 353.381835938 c 0
 251.4296875 336.563476562 259.8203125 317.786132812 263.858398438 301.184570312 c 0
 271.196289062 271.01953125 282.709960938 238.43359375 282.709960938 204.14453125 c 0
 282.709960938 199.412109375 282.490234375 194.639648438 282.008789062 189.828125 c 0
 282.127929688 186.182617188 282.186523438 182.537109375 282.186523438 178.892578125 c 0
 282.186523438 141.23046875 275.922851562 103.775390625 265.805664062 68.6162109375 c 0
 265.741210938 68.390625 265.66015625 68.171875 265.565429688 67.9599609375 c 0
 251.524414062 36.61328125 229.831054688 -1.171875 189.956054688 -8.908203125 c 0
 189.646484375 -8.96875 189.327148438 -9 189 -9 c 0
 176.2421875 -9 170.03515625 -6.9580078125 159.9921875 -4.8984375 c 0
 103.686523438 6.650390625 70.0185546875 55.279296875 64.5078125 109.600585938 c 1
 49.07421875 100.3671875 32.42578125 93.1591796875 14.0791015625 89.1171875 c 0
 13.7314453125 89.0400390625 13.3701171875 89 13 89 c 2
 5 89 l 2
 2.240234375 89 0 91.240234375 0 94 c 0
 0 96.759765625 2.240234375 99 5 99 c 2
 12.447265625 99 l 1
 31.0986328125 103.18359375 48.0234375 110.950195312 63.822265625 120.990234375 c 1
73.365234375 127.4140625 m 1
 105.215820312 150.038085938 133.01171875 181.638671875 161.31640625 209.389648438 c 1
 195.413085938 250.486328125 228.880859375 296.912109375 231.813476562 350.870117188 c 1
 227.68359375 358.046875 223.375976562 364.806640625 219.189453125 370.73046875 c 1
 190.528320312 398.403320312 l 2
 189.5859375 399.3125 189 400.588867188 189 402 c 0
 189 404.759765625 191.240234375 407 194 407 c 0
 194.341796875 407 194.67578125 406.965820312 194.999023438 406.900390625 c 0
 206.803710938 404.502929688 218.025390625 399.9140625 228.349609375 393.63671875 c 1
 219.40234375 406.428710938 202.30078125 413.78125 184.146484375 413.78125 c 0
 174.762695312 413.78125 165.37890625 411.731445312 157.2890625 407.5546875 c 0
 156.879882812 407.342773438 156.438476562 407.186523438 155.973632812 407.094726562 c 0
 99.017578125 395.837890625 68.0654296875 325.413085938 57.9208984375 269.109375 c 0
 55.5322265625 255.85546875 54 243.33984375 54 230.059570312 c 0
 54.412109375 194.829101562 70.0888671875 161.696289062 73.365234375 127.4140625 c 1
272 190 m 0
 272 194.733398438 272.709960938 199.453125 272.709960938 204.14453125 c 0
 272.709960938 236.206054688 261.296875 269.397460938 254.141601562 298.815429688 c 0
 251.416992188 310.015625 246.341796875 322.734375 240.224609375 335.127929688 c 1
 232.374023438 283.915039062 200.08984375 240.446289062 168.848632812 202.809570312 c 0
 168.73828125 202.676757812 168.62109375 202.549804688 168.498046875 202.428710938 c 0
 138.297851562 172.841796875 109.651367188 139.546875 74.033203125 115.646484375 c 1
 77.583984375 62.5009765625 109.168945312 15.7353515625 162.0078125 4.8984375 c 0
 171.547851562 2.94140625 177.22265625 1.037109375 188.509765625 1.0009765625 c 0
 222.267578125 7.8154296875 242.392578125 40.7744140625 256.291015625 71.720703125 c 1
 266.134765625 106.030273438 272.186523438 142.479492188 272.186523438 178.892578125 c 0
 272.186523438 182.595703125 272 186.298828125 272 190 c 0
234.830078125 372.848632812 m 0
 234.830078125 374.256835938 234.754882812 375.634765625 234.608398438 376.982421875 c 0
 227.961914062 382.3046875 220.798828125 386.829101562 213.262695312 390.350585938 c 1
 226.471679688 377.596679688 l 2
 226.6953125 377.380859375 226.8984375 377.14453125 227.079101562 376.890625 c 0
 229.470703125 373.5234375 231.89453125 369.913085938 234.302734375 366.122070312 c 1
 234.661132812 368.4609375 234.830078125 370.704101562 234.830078125 372.848632812 c 0
EndSplineSet
EndChar
StartChar: p
Encoding: 112 112 81
Width: 329
Flags: HW
LayerCount: 2
Fore
SplineSet
109.580078125 336.451171875 m 0
 109.580078125 358.931640625 105.91796875 377.208984375 101.6171875 388.62890625 c 0
 99.474609375 394.317382812 97.10546875 397.758789062 95.7529296875 399.418945312 c 1
 95.1416015625 397.39453125 94.44921875 393.543945312 94.44921875 387.865234375 c 0
 94.44921875 378.447265625 95.978515625 364.30078125 99.900390625 344.999023438 c 0
 101.181640625 338.689453125 106.448242188 300.834960938 109.583007812 278.021484375 c 1
 109.680664062 280.404296875 109.73046875 282.79296875 109.73046875 285.1875 c 0
 109.73046875 293.16796875 109.181640625 301.217773438 108.048828125 309.30078125 c 0
 108.016601562 309.529296875 108 309.762695312 108 310 c 0
 108 310.200195312 108.01171875 310.397460938 108.03515625 310.591796875 c 0
 109.109375 319.689453125 109.580078125 328.34765625 109.580078125 336.451171875 c 0
162.103515625 -152.850585938 m 0
 162.103515625 -121.545898438 154.44921875 -83.1318359375 147.3984375 -47.9990234375 c 0
 141.500976562 -18.6142578125 136 8.3974609375 136 28 c 0
 136 36.751953125 132.665039062 44.5869140625 128.66015625 52.6728515625 c 1
 135.991210938 -127.672851562 l 1
 143.266601562 -209.51953125 l 1
 156.783203125 -199.022460938 162.103515625 -179.080078125 162.103515625 -152.850585938 c 0
285.782226562 267.344726562 m 0
 285.782226562 238.389648438 290 209.671875 290 180 c 0
 290 179.516601562 289.931640625 179.049804688 289.803710938 178.608398438 c 0
 278.91796875 141.034179688 259.51171875 108.0703125 225.786132812 93.9306640625 c 1
 230.959960938 92.49609375 234.779296875 91.3642578125 236.625976562 90.7294921875 c 0
 247.1953125 87.091796875 261.037109375 85.3408203125 274.518554688 85.3408203125 c 0
 295.638671875 85.3408203125 315.234375 90.1259765625 320.54296875 95.2099609375 c 0
 321.44140625 96.0703125 322.659179688 96.599609375 324 96.599609375 c 0
 326.759765625 96.599609375 329 94.359375 329 91.599609375 c 0
 329 90.1806640625 328.408203125 88.8994140625 327.45703125 87.9892578125 c 0
 318.05859375 78.9873046875 296.430664062 75.3408203125 274.518554688 75.3408203125 c 0
 260.185546875 75.3408203125 245.45703125 77.1123046875 233.374023438 81.2705078125 c 0
 230.434570312 82.2822265625 220.252929688 85.0791015625 207.158203125 88.390625 c 0
 200.86328125 87.2109375 194.166015625 86.5908203125 187.041015625 86.5908203125 c 0
 183.6484375 86.5908203125 180.16796875 86.7314453125 176.59765625 87.015625 c 0
 159.850585938 88.3505859375 141.525390625 98.0771484375 126.653320312 102.020507812 c 1
 127.265625 86.9736328125 l 2
 127.608398438 86.466796875 128 85.740234375 128 84 c 0
 128 76.521484375 131.588867188 69.0576171875 135.9453125 60.4501953125 c 0
 140.584960938 51.2841796875 146 40.859375 146 28 c 0
 146 10.1923828125 151.314453125 -16.685546875 157.203125 -46.0234375 c 0
 164.259765625 -81.1845703125 172.103515625 -119.98828125 172.103515625 -152.850585938 c 0
 172.103515625 -183.651367188 165.149414062 -210.966796875 141.163085938 -222.508789062 c 0
 140.508789062 -222.823242188 139.774414062 -223 139 -223 c 0
 136.391601562 -223 134.24609375 -220.998046875 134.01953125 -218.447265625 c 2
 126.01953125 -128.447265625 l 2
 126.012695312 -128.3671875 126.0078125 -128.287109375 126.00390625 -128.206054688 c 2
 117.384765625 83.826171875 l 2
 116.404296875 85.2109375 115.092773438 86.880859375 115.092773438 86.880859375 c 2
 114.461914062 87.669921875 114.065429688 88.6533203125 114.0078125 89.7265625 c 2
 110.0078125 163.7265625 l 2
 110.002929688 163.817382812 110 163.908203125 110 164 c 0
 110 171.2109375 110.428710938 178.439453125 110.643554688 185.64453125 c 0
 109.908203125 196.670898438 108.305664062 206.829101562 107.125 217.41015625 c 1
 96.2275390625 188.65234375 78.751953125 162.390625 56.6279296875 140.556640625 c 1
 8.73828125 86.6806640625 l 2
 7.8212890625 85.6494140625 6.486328125 85 5 85 c 0
 2.240234375 85 0 87.240234375 0 90 c 0
 0 91.2734375 0.4775390625 92.4365234375 1.26171875 93.3193359375 c 2
 49.26171875 147.319335938 l 2
 49.3359375 147.40234375 49.412109375 147.483398438 49.4912109375 147.560546875 c 0
 75.8828125 173.568359375 95.265625 206.083007812 104.215820312 241.411132812 c 1
 102.036132812 259.393554688 l 1
 102.036132812 259.393554688 91.744140625 334.90625 90.099609375 343.000976562 c 0
 86.08984375 362.740234375 84.44921875 377.395507812 84.44921875 387.865234375 c 0
 84.44921875 396.3515625 85.2705078125 402.305664062 88.033203125 406.452148438 c 0
 89.4658203125 408.602539062 91.9736328125 410.559570312 95.140625 410.559570312 c 0
 99.087890625 410.559570312 101.778320312 408.057617188 103.799804688 405.612304688 c 0
 106.48046875 402.37109375 108.822265625 397.875 110.978515625 392.1484375 c 0
 115.819335938 379.296875 119.607421875 360.032226562 119.580078125 336.451171875 c 0
 119.579101562 335.967773438 119.108398438 319.313476562 118.041015625 310.053710938 c 0
 118.141601562 309.31640625 118.237304688 308.578125 118.329101562 307.83984375 c 1
 142.525390625 356.231445312 l 2
 142.665039062 356.51171875 142.831054688 356.77734375 143.01953125 357.025390625 c 0
 158.517578125 377.37890625 177.987304688 386.526367188 197.541015625 386.526367188 c 0
 242.848632812 386.526367188 286.095703125 338.85546875 286.095703125 282.479492188 c 0
 286.095703125 277.438476562 285.782226562 272.415039062 285.782226562 267.344726562 c 0
275.782226562 267.344726562 m 0
 275.782226562 272.384765625 276.095703125 277.446289062 276.095703125 282.479492188 c 0
 276.095703125 334.38671875 235.891601562 376.526367188 197.541015625 376.526367188 c 0
 181.368164062 376.526367188 165.073242188 369.291015625 151.262695312 351.34375 c 1
 123.96484375 296.748046875 l 1
 120.65625 185.893554688 l 1
 122.438476562 161.986328125 124.606445312 138.46484375 126.153320312 114.323242188 c 0
 126.362304688 114.323242188 126.565429688 114.31640625 126.759765625 114.31640625 c 0
 142.454101562 114.31640625 180.58203125 105.654296875 207.788085938 98.7041015625 c 1
 246.5703125 107.0703125 267.912109375 139.438476562 279.999023438 180.713867188 c 1
 279.934570312 209.893554688 275.782226562 238.39453125 275.782226562 267.344726562 c 0
EndSplineSet
EndChar
